SplineFontDB: 3.0
FontName: DaysOne-Regular
FullName: Days One
FamilyName: Days One
Weight: Book
Copyright: Copyright (c) 2009 by Alexander Kalachev, Alexey Maslov, Jovanny Lemonad. All rights reserved.
Version: 1.002
ItalicAngle: 0
UnderlinePosition: -103
UnderlineWidth: 102
Ascent: 1638
Descent: 410
sfntRevision: 0x00010000
LayerCount: 2
Layer: 0 1 "Back"  1
Layer: 1 1 "Fore"  0
XUID: [1021 288 713564382 8611242]
FSType: 0
OS2Version: 3
OS2_WeightWidthSlopeOnly: 0
OS2_UseTypoMetrics: 1
CreationTime: 1312311956
ModificationTime: 1312580729
PfmFamily: 17
TTFWeight: 400
TTFWidth: 5
LineGap: 0
VLineGap: 0
Panose: 2 0 5 5 0 0 0 2 0 4
OS2TypoAscent: 402
OS2TypoAOffset: 1
OS2TypoDescent: -158
OS2TypoDOffset: 1
OS2TypoLinegap: 0
OS2WinAscent: 0
OS2WinAOffset: 1
OS2WinDescent: 0
OS2WinDOffset: 1
HheadAscent: 0
HheadAOffset: 1
HheadDescent: 0
HheadDOffset: 1
OS2SubXSize: 1434
OS2SubYSize: 1331
OS2SubXOff: 0
OS2SubYOff: 287
OS2SupXSize: 1434
OS2SupYSize: 1331
OS2SupXOff: 0
OS2SupYOff: 977
OS2StrikeYSize: 102
OS2StrikeYPos: 512
OS2Vendor: 'PYRS'
OS2CodePages: 00000005.00000000
OS2UnicodeRanges: 8000022f.1000000a.00000000.00000000
Lookup: 258 0 0 "'kern' Horizontal Kerning lookup 0"  {"'kern' Horizontal Kerning lookup 0 subtable"  } ['kern' ('DFLT' <'dflt' > 'cyrl' <'dflt' > 'latn' <'dflt' > ) ]
DEI: 91125
TtTable: prep
PUSHW_1
 511
SCANCTRL
PUSHB_1
 4
SCANTYPE
EndTTInstrs
ShortTable: maxp 16
  1
  0
  354
  107
  7
  0
  0
  2
  0
  1
  1
  0
  64
  0
  0
  0
EndShort

StartChar: exclam
Encoding: 33 33 4
Width: 653
Flags: W
LayerCount: 2
Fore
SplineSet
125 1339 m 2,0,1
 123 1378 123 1378 151.5 1406 c 128,-1,2
 180 1434 180 1434 219 1434 c 2,3,-1
 434 1434 l 2,4,5
 473 1434 473 1434 501.5 1406 c 128,-1,6
 530 1378 530 1378 528 1339 c 2,7,-1
 500 518 l 2,8,9
 498 479 498 479 471 452.5 c 128,-1,10
 444 426 444 426 406 426 c 2,11,-1
 248 426 l 2,12,13
 209 426 209 426 182.5 452.5 c 128,-1,14
 156 479 156 479 154 518 c 2,15,-1
 125 1339 l 2,0,1
389 324 m 2,16,17
 524 324 524 324 524 188 c 2,18,-1
 524 125 l 2,19,20
 524 62 524 62 489.5 26 c 128,-1,21
 455 -10 455 -10 389 -10 c 2,22,-1
 266 -10 l 2,23,24
 200 -10 200 -10 165.5 26 c 128,-1,25
 131 62 131 62 131 125 c 2,26,-1
 131 188 l 2,27,28
 131 254 131 254 166 289 c 128,-1,29
 201 324 201 324 266 324 c 2,30,-1
 389 324 l 2,16,17
EndSplineSet
EndChar

StartChar: quotedbl
Encoding: 34 34 5
Width: 807
Flags: W
LayerCount: 2
Fore
SplineSet
63 1352 m 2,0,1
 61 1386 61 1386 83.5 1410 c 128,-1,2
 106 1434 106 1434 143 1434 c 2,3,-1
 274 1434 l 2,4,5
 311 1434 311 1434 333.5 1410 c 128,-1,6
 356 1386 356 1386 354 1352 c 2,7,-1
 324 926 l 1,8,9
 319 889 319 889 296.5 866.5 c 128,-1,10
 274 844 274 844 240 844 c 2,11,-1
 178 844 l 2,12,13
 143 844 143 844 120.5 866.5 c 128,-1,14
 98 889 98 889 94 926 c 1,15,-1
 63 1352 l 2,0,1
453 1352 m 2,16,17
 451 1386 451 1386 473.5 1410 c 128,-1,18
 496 1434 496 1434 532 1434 c 2,19,-1
 664 1434 l 2,20,21
 700 1434 700 1434 722.5 1410 c 128,-1,22
 745 1386 745 1386 743 1352 c 2,23,-1
 713 926 l 1,24,25
 709 889 709 889 686.5 866.5 c 128,-1,26
 664 844 664 844 629 844 c 2,27,-1
 567 844 l 2,28,29
 532 844 532 844 509.5 866.5 c 128,-1,30
 487 889 487 889 483 926 c 1,31,-1
 453 1352 l 2,16,17
EndSplineSet
EndChar

StartChar: numbersign
Encoding: 35 35 6
Width: 1714
Flags: W
LayerCount: 2
Fore
SplineSet
242 0 m 2,0,1
 182 0 182 0 182 63 c 0,2,3
 182 78 182 78 186 94 c 2,4,-1
 252 328 l 1,5,-1
 102 328 l 2,6,7
 75 328 75 328 58 345 c 128,-1,8
 41 362 41 362 41 389 c 2,9,-1
 41 508 l 1,10,11
 43 535 43 535 59.5 552 c 128,-1,12
 76 569 76 569 102 569 c 2,13,-1
 319 569 l 1,14,-1
 403 864 l 1,15,-1
 193 864 l 2,16,17
 166 864 166 864 148.5 881.5 c 128,-1,18
 131 899 131 899 131 926 c 2,19,-1
 131 1044 l 2,20,21
 131 1071 131 1071 148.5 1088.5 c 128,-1,22
 166 1106 166 1106 193 1106 c 2,23,-1
 471 1106 l 1,24,-1
 539 1339 l 2,25,26
 566 1433 566 1433 702 1434 c 1,27,-1
 817 1434 l 2,28,29
 874 1434 874 1434 877 1371 c 0,30,31
 877 1356 877 1356 872 1339 c 2,32,-1
 805 1106 l 1,33,-1
 1102 1106 l 1,34,-1
 1169 1339 l 2,35,36
 1196 1433 1196 1433 1333 1434 c 1,37,-1
 1448 1434 l 2,38,39
 1505 1434 1505 1434 1508 1371 c 0,40,41
 1508 1356 1508 1356 1503 1339 c 2,42,-1
 1436 1106 l 1,43,-1
 1612 1106 l 2,44,45
 1639 1106 1639 1106 1655 1088.5 c 128,-1,46
 1671 1071 1671 1071 1673 1044 c 1,47,-1
 1673 926 l 1,48,49
 1671 899 1671 899 1654.5 881.5 c 128,-1,50
 1638 864 1638 864 1612 864 c 2,51,-1
 1368 864 l 1,52,-1
 1284 569 l 1,53,-1
 1495 569 l 2,54,55
 1522 569 1522 569 1539 552 c 128,-1,56
 1556 535 1556 535 1556 508 c 2,57,-1
 1556 389 l 2,58,59
 1556 362 1556 362 1540 345 c 128,-1,60
 1524 328 1524 328 1497 328 c 2,61,-1
 1217 328 l 1,62,-1
 1151 94 l 2,63,64
 1124 0 1124 0 987 0 c 2,65,-1
 872 0 l 2,66,67
 813 0 813 0 813 63 c 0,68,69
 813 78 813 78 817 94 c 2,70,-1
 883 328 l 1,71,-1
 586 328 l 1,72,-1
 520 94 l 2,73,74
 493 0 493 0 356 0 c 2,75,-1
 242 0 l 2,0,1
645 563 m 1,76,-1
 954 563 l 1,77,-1
 1040 870 l 1,78,-1
 731 870 l 1,79,-1
 645 563 l 1,76,-1
EndSplineSet
EndChar

StartChar: dollar
Encoding: 36 36 7
Width: 1595
Flags: W
LayerCount: 2
Fore
SplineSet
61 360 m 0,0,1
 61 419 61 419 96 445 c 128,-1,2
 131 471 131 471 164 471 c 2,3,-1
 283 471 l 2,4,5
 373 471 373 471 420 373 c 128,-1,6
 467 275 467 275 631 274 c 1,7,-1
 639 274 l 1,8,-1
 639 592 l 1,9,10
 319 660 319 660 192 771 c 0,11,12
 74 873 74 873 74 1024 c 0,13,14
 74 1214 74 1214 202 1320.5 c 128,-1,15
 330 1427 330 1427 639 1440 c 1,16,-1
 639 1534 l 2,17,18
 639 1561 639 1561 656.5 1578 c 128,-1,19
 674 1595 674 1595 700 1595 c 2,20,-1
 774 1595 l 1,21,-1
 774 1442 l 1,22,-1
 829 1442 l 1,23,-1
 829 1595 l 1,24,-1
 903 1595 l 2,25,26
 930 1595 930 1595 947.5 1578 c 128,-1,27
 965 1561 965 1561 965 1534 c 2,28,-1
 965 1442 l 1,29,30
 1168 1440 1168 1440 1332.5 1334.5 c 128,-1,31
 1497 1229 1497 1229 1497 1073 c 0,32,33
 1497 1014 1497 1014 1462 988.5 c 128,-1,34
 1427 963 1427 963 1395 963 c 2,35,-1
 1276 963 l 2,36,37
 1186 963 1186 963 1142 1055 c 128,-1,38
 1098 1147 1098 1147 965 1157 c 1,39,-1
 965 844 l 1,40,41
 1203 791 1203 791 1351 708 c 1,42,43
 1534 607 1534 607 1534 413.5 c 128,-1,44
 1534 220 1534 220 1405 112 c 128,-1,45
 1276 4 1276 4 965 -6 c 1,46,-1
 965 -100 l 2,47,48
 965 -127 965 -127 947.5 -144.5 c 128,-1,49
 930 -162 930 -162 903 -162 c 2,50,-1
 829 -162 l 1,51,-1
 829 -8 l 1,52,-1
 774 -8 l 1,53,-1
 774 -162 l 1,54,-1
 700 -162 l 2,55,56
 673 -162 673 -162 656 -144.5 c 128,-1,57
 639 -127 639 -127 639 -100 c 2,58,-1
 639 -8 l 1,59,-1
 596 -8 l 2,60,61
 391 -8 391 -8 226 97 c 128,-1,62
 61 202 61 202 61 360 c 0,0,1
451 1044 m 0,63,64
 451 964 451 964 639 913 c 1,65,-1
 639 1159 l 1,66,-1
 627 1159 l 2,67,68
 451 1159 451 1159 451 1044 c 0,63,64
774 274 m 1,69,-1
 829 274 l 1,70,-1
 829 551 l 1,71,-1
 774 561 l 1,72,-1
 774 274 l 1,69,-1
774 883 m 1,73,-1
 829 872 l 1,74,-1
 829 1159 l 1,75,-1
 774 1159 l 1,76,-1
 774 883 l 1,73,-1
965 274 m 1,77,-1
 981 274 l 2,78,79
 1157 274 1157 274 1157 389 c 0,80,81
 1157 469 1157 469 965 520 c 1,82,-1
 965 274 l 1,77,-1
EndSplineSet
EndChar

StartChar: percent
Encoding: 37 37 8
Width: 1673
Flags: W
LayerCount: 2
Fore
SplineSet
61 1122.5 m 128,-1,1
 61 1276 61 1276 160.5 1365 c 128,-1,2
 260 1454 260 1454 409.5 1454 c 128,-1,3
 559 1454 559 1454 658.5 1365 c 128,-1,4
 758 1276 758 1276 758 1122.5 c 128,-1,5
 758 969 758 969 658.5 880 c 128,-1,6
 559 791 559 791 409.5 791 c 128,-1,7
 260 791 260 791 160.5 880 c 128,-1,0
 61 969 61 969 61 1122.5 c 128,-1,1
135 56 m 0,8,9
 135 71 135 71 154 94 c 2,10,-1
 1151 1339 l 2,11,12
 1225 1433 1225 1433 1325 1434 c 1,13,-1
 1485 1434 l 2,14,15
 1524 1434 1524 1434 1535 1403 c 0,16,17
 1538 1394 1538 1394 1538 1378 c 128,-1,18
 1538 1362 1538 1362 1520 1339 c 2,19,-1
 522 94 l 1,20,21
 448 0 448 0 348 0 c 2,22,-1
 188 0 l 2,23,24
 135 0 135 0 135 56 c 0,8,9
295 1122.5 m 128,-1,26
 295 1055 295 1055 325.5 1016 c 128,-1,27
 356 977 356 977 409.5 977 c 128,-1,28
 463 977 463 977 493.5 1016 c 128,-1,29
 524 1055 524 1055 524 1122.5 c 128,-1,30
 524 1190 524 1190 493.5 1229 c 128,-1,31
 463 1268 463 1268 409.5 1268 c 128,-1,32
 356 1268 356 1268 325.5 1229 c 128,-1,25
 295 1190 295 1190 295 1122.5 c 128,-1,26
915 313.5 m 128,-1,34
 915 467 915 467 1014.5 556 c 128,-1,35
 1114 645 1114 645 1263.5 645 c 128,-1,36
 1413 645 1413 645 1512.5 556 c 128,-1,37
 1612 467 1612 467 1612 313.5 c 128,-1,38
 1612 160 1612 160 1512.5 71 c 128,-1,39
 1413 -18 1413 -18 1263.5 -18 c 128,-1,40
 1114 -18 1114 -18 1014.5 71 c 128,-1,33
 915 160 915 160 915 313.5 c 128,-1,34
1149 313.5 m 128,-1,42
 1149 246 1149 246 1179.5 207 c 128,-1,43
 1210 168 1210 168 1263.5 168 c 128,-1,44
 1317 168 1317 168 1347.5 207 c 128,-1,45
 1378 246 1378 246 1378 313.5 c 128,-1,46
 1378 381 1378 381 1347.5 420 c 128,-1,47
 1317 459 1317 459 1263.5 459 c 128,-1,48
 1210 459 1210 459 1179.5 420 c 128,-1,41
 1149 381 1149 381 1149 313.5 c 128,-1,42
EndSplineSet
EndChar

StartChar: ampersand
Encoding: 38 38 9
Width: 1540
Flags: W
LayerCount: 2
Fore
SplineSet
61 424 m 0,0,1
 61 703 61 703 301 813 c 1,2,3
 211 911 211 911 211 1047 c 0,4,5
 211 1221 211 1221 350 1337.5 c 128,-1,6
 489 1454 489 1454 742 1454 c 128,-1,7
 995 1454 995 1454 1140.5 1366 c 128,-1,8
 1286 1278 1286 1278 1286 1106 c 0,9,10
 1286 1079 1286 1079 1268.5 1061.5 c 128,-1,11
 1251 1044 1251 1044 1225 1044 c 2,12,-1
 1092 1044 l 2,13,14
 1024 1044 1024 1044 977 1118 c 0,15,16
 918 1212 918 1212 745 1212 c 0,17,18
 657 1212 657 1212 608 1173.5 c 128,-1,19
 559 1135 559 1135 559 1064 c 128,-1,20
 559 993 559 993 603 931.5 c 128,-1,21
 647 870 647 870 731 799 c 1,22,-1
 1077 498 l 1,23,-1
 1176 639 l 2,24,25
 1210 686 1210 686 1257 655 c 2,26,-1
 1366 582 l 1,27,28
 1396 560 1396 560 1396 537.5 c 128,-1,29
 1396 515 1396 515 1382 496 c 2,30,-1
 1262 324 l 1,31,-1
 1518 94 l 2,32,33
 1539 74 1539 74 1539 58 c 0,34,35
 1539 0 1539 0 1483 0 c 2,36,-1
 1255 0 l 2,37,38
 1177 0 1177 0 1112 50 c 0,39,40
 1090 68 1090 68 1051 104 c 1,41,42
 856 -21 856 -21 603 -20.5 c 128,-1,43
 350 -20 350 -20 205.5 98.5 c 128,-1,44
 61 217 61 217 61 424 c 0,0,1
397 424 m 0,45,46
 397 221 397 221 643 221 c 0,47,48
 766 221 766 221 854 281 c 1,49,-1
 498 602 l 1,50,51
 397 553 397 553 397 424 c 0,45,46
EndSplineSet
EndChar

StartChar: quotesingle
Encoding: 39 39 10
Width: 418
Flags: W
LayerCount: 2
Fore
SplineSet
63 1352 m 2,0,1
 61 1386 61 1386 83.5 1410 c 128,-1,2
 106 1434 106 1434 143 1434 c 2,3,-1
 274 1434 l 2,4,5
 311 1434 311 1434 333.5 1410 c 128,-1,6
 356 1386 356 1386 354 1352 c 2,7,-1
 324 926 l 1,8,9
 319 889 319 889 296.5 866.5 c 128,-1,10
 274 844 274 844 240 844 c 2,11,-1
 178 844 l 2,12,13
 143 844 143 844 120.5 866.5 c 128,-1,14
 98 889 98 889 94 926 c 1,15,-1
 63 1352 l 2,0,1
EndSplineSet
EndChar

StartChar: parenleft
Encoding: 40 40 11
Width: 666
Flags: W
LayerCount: 2
Fore
SplineSet
498 1509 m 1,0,1
 512 1520 512 1520 523.5 1520 c 128,-1,2
 535 1520 535 1520 550 1514.5 c 128,-1,3
 565 1509 565 1509 580 1487 c 1,4,-1
 637 1393 l 2,5,6
 643 1382 643 1382 643 1364 c 128,-1,7
 643 1346 643 1346 612 1311 c 1,8,9
 373 1018 373 1018 373 624.5 c 128,-1,10
 373 231 373 231 612 -61 c 1,11,12
 643 -96 643 -96 643 -114.5 c 128,-1,13
 643 -133 643 -133 637 -143 c 2,14,-1
 580 -238 l 1,15,16
 565 -260 565 -260 550 -264 c 128,-1,17
 535 -268 535 -268 523.5 -269 c 128,-1,18
 512 -270 512 -270 498 -260 c 0,19,20
 281 -117 281 -117 171 119.5 c 128,-1,21
 61 356 61 356 61 624.5 c 128,-1,22
 61 893 61 893 171 1129.5 c 128,-1,23
 281 1366 281 1366 498 1509 c 1,0,1
EndSplineSet
EndChar

StartChar: parenright
Encoding: 41 41 12
Width: 666
Flags: W
LayerCount: 2
Fore
SplineSet
29 -143 m 2,0,1
 23 -133 23 -133 23 -114.5 c 128,-1,2
 23 -96 23 -96 53 -61 c 0,3,4
 293 231 293 231 293 624.5 c 128,-1,5
 293 1018 293 1018 53 1311 c 1,6,7
 23 1346 23 1346 23 1364 c 128,-1,8
 23 1382 23 1382 29 1393 c 2,9,-1
 86 1487 l 2,10,11
 107 1520 107 1520 130.5 1520 c 128,-1,12
 154 1520 154 1520 168 1509 c 1,13,14
 385 1366 385 1366 494.5 1129.5 c 128,-1,15
 604 893 604 893 604 624.5 c 128,-1,16
 604 356 604 356 494.5 119.5 c 128,-1,17
 385 -117 385 -117 168 -260 c 0,18,19
 154 -270 154 -270 142.5 -270 c 128,-1,20
 131 -270 131 -270 125 -266 c 1,21,22
 100 -260 100 -260 86 -238 c 2,23,-1
 29 -143 l 2,0,1
EndSplineSet
EndChar

StartChar: asterisk
Encoding: 42 42 13
Width: 872
Flags: W
LayerCount: 2
Fore
SplineSet
63 914 m 1,0,1
 68 955 68 955 94 969 c 2,2,-1
 238 1044 l 1,3,-1
 94 1120 l 2,4,5
 71 1132 71 1132 67.5 1149.5 c 128,-1,6
 64 1167 64 1167 63.5 1179 c 128,-1,7
 63 1191 63 1191 72 1204 c 1,8,-1
 113 1280 l 2,9,10
 125 1303 125 1303 148.5 1310 c 128,-1,11
 172 1317 172 1317 197 1303 c 1,12,-1
 330 1221 l 1,13,-1
 328 1378 l 2,14,15
 328 1403 328 1403 345 1418.5 c 128,-1,16
 362 1434 362 1434 389 1434 c 2,17,-1
 483 1434 l 2,18,19
 510 1434 510 1434 527.5 1418.5 c 128,-1,20
 545 1403 545 1403 545 1378 c 2,21,-1
 543 1221 l 1,22,-1
 676 1303 l 1,23,24
 701 1317 701 1317 724.5 1310 c 128,-1,25
 748 1303 748 1303 760 1280 c 2,26,-1
 801 1204 l 2,27,28
 809 1190 809 1190 809 1178 c 0,29,30
 809 1136 809 1136 778 1120 c 2,31,-1
 635 1044 l 1,32,-1
 778 969 l 2,33,34
 809 953 809 953 809 925.5 c 128,-1,35
 809 898 809 898 801 885 c 2,36,-1
 760 809 l 2,37,38
 748 786 748 786 724 779 c 128,-1,39
 700 772 700 772 676 786 c 2,40,-1
 543 868 l 1,41,-1
 545 711 l 2,42,43
 545 686 545 686 527.5 670.5 c 128,-1,44
 510 655 510 655 483 655 c 2,45,-1
 389 655 l 2,46,47
 362 655 362 655 345 670.5 c 128,-1,48
 328 686 328 686 328 711 c 2,49,-1
 330 868 l 1,50,-1
 197 786 l 1,51,52
 172 772 172 772 148.5 779 c 128,-1,53
 125 786 125 786 113 809 c 2,54,-1
 72 885 l 2,55,56
 64 899 64 899 63 914 c 1,0,1
EndSplineSet
EndChar

StartChar: plus
Encoding: 43 43 14
Width: 958
Flags: W
LayerCount: 2
Fore
SplineSet
41 569 m 2,0,-1
 41 688 l 2,1,2
 41 715 41 715 58.5 732.5 c 128,-1,3
 76 750 76 750 102 750 c 2,4,-1
 352 750 l 1,5,-1
 352 999 l 2,6,7
 352 1026 352 1026 369.5 1043.5 c 128,-1,8
 387 1061 387 1061 414 1061 c 2,9,-1
 532 1061 l 2,10,11
 559 1061 559 1061 576.5 1043.5 c 128,-1,12
 594 1026 594 1026 594 999 c 2,13,-1
 594 750 l 1,14,-1
 856 750 l 2,15,16
 883 750 883 750 900.5 732.5 c 128,-1,17
 918 715 918 715 918 688 c 2,18,-1
 918 569 l 2,19,20
 918 542 918 542 900.5 525 c 128,-1,21
 883 508 883 508 856 508 c 2,22,-1
 594 508 l 1,23,-1
 594 246 l 2,24,25
 594 219 594 219 576.5 201.5 c 128,-1,26
 559 184 559 184 532 184 c 2,27,-1
 414 184 l 2,28,29
 387 184 387 184 369.5 201.5 c 128,-1,30
 352 219 352 219 352 246 c 2,31,-1
 352 508 l 1,32,-1
 102 508 l 2,33,34
 75 508 75 508 58 525 c 128,-1,35
 41 542 41 542 41 569 c 2,0,-1
EndSplineSet
EndChar

StartChar: comma
Encoding: 44 44 15
Width: 551
Flags: W
LayerCount: 2
Fore
SplineSet
340 324 m 2,0,1
 469 324 469 324 469 229 c 0,2,3
 469 203 469 203 455 168 c 2,4,-1
 336 -133 l 1,5,6
 315 -182 315 -182 273 -215 c 128,-1,7
 231 -248 231 -248 178 -248 c 2,8,-1
 139 -248 l 2,9,10
 76 -248 76 -248 59.5 -221.5 c 128,-1,11
 43 -195 43 -195 43 -167 c 128,-1,12
 43 -139 43 -139 47 -113 c 2,13,-1
 106 209 l 2,14,15
 115 256 115 256 161 290 c 128,-1,16
 207 324 207 324 258 324 c 2,17,-1
 340 324 l 2,0,1
EndSplineSet
EndChar

StartChar: hyphen
Encoding: 45 45 16
Width: 958
Flags: W
LayerCount: 2
Fore
SplineSet
41 569 m 2,0,-1
 41 688 l 2,1,2
 41 715 41 715 58.5 732.5 c 128,-1,3
 76 750 76 750 102 750 c 2,4,-1
 856 750 l 2,5,6
 883 750 883 750 900.5 732.5 c 128,-1,7
 918 715 918 715 918 688 c 2,8,-1
 918 569 l 2,9,10
 918 542 918 542 900.5 525 c 128,-1,11
 883 508 883 508 856 508 c 2,12,-1
 102 508 l 2,13,14
 75 508 75 508 58 525 c 128,-1,15
 41 542 41 542 41 569 c 2,0,-1
EndSplineSet
EndChar

StartChar: period
Encoding: 46 46 17
Width: 557
Flags: W
LayerCount: 2
Fore
SplineSet
340 324 m 2,0,1
 475 324 475 324 475 188 c 2,2,-1
 475 125 l 2,3,4
 475 62 475 62 440.5 26 c 128,-1,5
 406 -10 406 -10 340 -10 c 2,6,-1
 217 -10 l 2,7,8
 151 -10 151 -10 116.5 26 c 128,-1,9
 82 62 82 62 82 125 c 2,10,-1
 82 188 l 2,11,12
 82 254 82 254 117 289 c 128,-1,13
 152 324 152 324 217 324 c 2,14,-1
 340 324 l 2,0,1
EndSplineSet
EndChar

StartChar: slash
Encoding: 47 47 18
Width: 1055
Flags: W
LayerCount: 2
Fore
SplineSet
49 0 m 2,0,1
 0 0 0 0 0 47 c 0,2,3
 0 70 0 70 14 94 c 1,4,-1
 664 1339 l 1,5,6
 711 1434 711 1434 838 1434 c 2,7,-1
 1006 1434 l 2,8,9
 1055 1434 1055 1434 1055 1386 c 0,10,11
 1055 1364 1055 1364 1040 1339 c 1,12,-1
 391 94 l 1,13,14
 344 0 344 0 217 0 c 2,15,-1
 49 0 l 2,0,1
EndSplineSet
EndChar

StartChar: zero
Encoding: 48 48 19
Width: 1630
Flags: W
LayerCount: 2
Fore
SplineSet
61 717 m 0,0,1
 61 918 61 918 116.5 1062 c 128,-1,2
 172 1206 172 1206 274 1287 c 0,3,4
 468 1442 468 1442 780 1442 c 2,5,-1
 850 1442 l 2,6,7
 1162 1442 1162 1442 1356 1287 c 0,8,9
 1569 1117 1569 1117 1569 717 c 0,10,11
 1569 315 1569 315 1356 146 c 0,12,13
 1162 -8 1162 -8 850 -8 c 2,14,-1
 780 -8 l 2,15,16
 468 -8 468 -8 274 146 c 0,17,18
 61 315 61 315 61 717 c 0,0,1
438 716.5 m 128,-1,20
 438 274 438 274 815 274 c 128,-1,21
 1192 274 1192 274 1192 716.5 c 128,-1,22
 1192 1159 1192 1159 815 1159 c 128,-1,19
 438 1159 438 1159 438 716.5 c 128,-1,20
EndSplineSet
EndChar

StartChar: one
Encoding: 49 49 20
Width: 813
Flags: W
LayerCount: 2
Fore
SplineSet
14 1085 m 1,0,1
 2 1102 2 1102 2 1125 c 128,-1,2
 2 1148 2 1148 35 1176 c 2,3,-1
 279 1386 l 1,4,5
 332 1433 332 1433 426 1434 c 1,6,-1
 573 1434 l 2,7,8
 614 1434 614 1434 642 1406 c 128,-1,9
 670 1378 670 1378 670 1339 c 2,10,-1
 670 94 l 2,11,12
 670 55 670 55 641 27.5 c 128,-1,13
 612 0 612 0 573 0 c 2,14,-1
 387 0 l 2,15,16
 348 0 348 0 320.5 26.5 c 128,-1,17
 293 53 293 53 293 92 c 2,18,-1
 293 1059 l 1,19,-1
 178 975 l 2,20,21
 158 961 158 961 132 966 c 128,-1,22
 106 971 106 971 90 989 c 1,23,-1
 14 1085 l 1,0,1
EndSplineSet
EndChar

StartChar: two
Encoding: 50 50 21
Width: 1438
Flags: W
LayerCount: 2
Fore
SplineSet
61 94 m 2,0,-1
 61 240 l 2,1,2
 61 367 61 367 113.5 460 c 128,-1,3
 166 553 166 553 248 606 c 128,-1,4
 330 659 330 659 430 697 c 128,-1,5
 530 735 530 735 630.5 758.5 c 128,-1,6
 731 782 731 782 813 806 c 0,7,8
 999 862 999 862 999 965 c 0,9,10
 999 1077 999 1077 941 1118 c 128,-1,11
 883 1159 883 1159 745 1159 c 2,12,-1
 674 1159 l 2,13,14
 481 1159 481 1159 420 1036 c 1,15,16
 375 942 375 942 285 942 c 2,17,-1
 166 942 l 2,18,19
 117 942 117 942 90 977 c 128,-1,20
 63 1012 63 1012 63 1053 c 0,21,22
 63 1167 63 1167 150.5 1258.5 c 128,-1,23
 238 1350 238 1350 368 1396 c 128,-1,24
 498 1442 498 1442 639 1442 c 2,25,-1
 774 1442 l 2,26,27
 1213 1442 1213 1442 1330 1198 c 0,28,29
 1376 1102 1376 1102 1376 975 c 128,-1,30
 1376 848 1376 848 1324 759 c 128,-1,31
 1272 670 1272 670 1190 617.5 c 128,-1,32
 1108 565 1108 565 1007.5 527 c 128,-1,33
 907 489 907 489 807 464.5 c 128,-1,34
 707 440 707 440 625 418 c 0,35,36
 438 366 438 366 438 283 c 1,37,-1
 1268 283 l 2,38,39
 1309 283 1309 283 1336.5 255 c 128,-1,40
 1364 227 1364 227 1364 188 c 2,41,-1
 1364 94 l 2,42,43
 1364 55 1364 55 1335.5 27.5 c 128,-1,44
 1307 0 1307 0 1268 0 c 2,45,-1
 158 0 l 2,46,47
 119 0 119 0 90 27.5 c 128,-1,48
 61 55 61 55 61 94 c 2,0,-1
EndSplineSet
EndChar

StartChar: three
Encoding: 51 51 22
Width: 1481
Flags: W
LayerCount: 2
Fore
SplineSet
51 391 m 0,0,1
 51 451 51 451 86 476.5 c 128,-1,2
 121 502 121 502 154 502 c 2,3,-1
 272 502 l 2,4,5
 365 502 365 502 418 388 c 128,-1,6
 471 274 471 274 662 274 c 2,7,-1
 805 274 l 2,8,9
 928 274 928 274 985 309 c 128,-1,10
 1042 344 1042 344 1042 428 c 128,-1,11
 1042 512 1042 512 985 547 c 128,-1,12
 928 582 928 582 805 582 c 2,13,-1
 625 582 l 2,14,15
 586 582 586 582 558 609.5 c 128,-1,16
 530 637 530 637 530 676 c 2,17,-1
 530 758 l 2,18,19
 530 795 530 795 557 823.5 c 128,-1,20
 584 852 584 852 621 852 c 2,21,-1
 768 852 l 2,22,23
 901 852 901 852 961.5 887 c 128,-1,24
 1022 922 1022 922 1022 1006 c 128,-1,25
 1022 1090 1022 1090 961.5 1124.5 c 128,-1,26
 901 1159 901 1159 768 1159 c 2,27,-1
 694 1159 l 2,28,29
 502 1159 502 1159 440 1036 c 1,30,31
 395 942 395 942 305 942 c 2,32,-1
 186 942 l 2,33,34
 138 942 138 942 111 977 c 128,-1,35
 84 1012 84 1012 84 1053 c 0,36,37
 84 1167 84 1167 171 1258.5 c 128,-1,38
 258 1350 258 1350 388 1396 c 128,-1,39
 518 1442 518 1442 659 1442 c 2,40,-1
 797 1442 l 2,41,42
 1399 1442 1399 1442 1399 1004 c 0,43,44
 1399 821 1399 821 1262 717 c 1,45,46
 1419 618 1419 618 1419 428 c 0,47,48
 1419 197 1419 197 1271.5 94.5 c 128,-1,49
 1124 -8 1124 -8 840 -8 c 2,50,-1
 627 -8 l 2,51,52
 403 -8 403 -8 227 102.5 c 128,-1,53
 51 213 51 213 51 391 c 0,0,1
EndSplineSet
EndChar

StartChar: four
Encoding: 52 52 23
Width: 1536
Flags: W
LayerCount: 2
Fore
SplineSet
20 346 m 2,0,-1
 20 465 l 2,1,2
 20 553 20 553 82 621 c 1,3,-1
 743 1372 l 2,4,5
 798 1433 798 1433 899 1434 c 1,6,-1
 1212 1434 l 2,7,8
 1253 1434 1253 1434 1281 1406 c 128,-1,9
 1309 1378 1309 1378 1309 1339 c 2,10,-1
 1309 535 l 1,11,-1
 1419 535 l 2,12,13
 1460 535 1460 535 1488 507 c 128,-1,14
 1516 479 1516 479 1516 440 c 2,15,-1
 1516 346 l 2,16,17
 1516 307 1516 307 1487 279.5 c 128,-1,18
 1458 252 1458 252 1419 252 c 2,19,-1
 1309 252 l 1,20,-1
 1309 94 l 2,21,22
 1309 55 1309 55 1280 27.5 c 128,-1,23
 1251 0 1251 0 1212 0 c 2,24,-1
 1026 0 l 2,25,26
 987 0 987 0 959.5 26.5 c 128,-1,27
 932 53 932 53 932 92 c 2,28,-1
 932 252 l 1,29,-1
 117 252 l 2,30,31
 78 252 78 252 49 279.5 c 128,-1,32
 20 307 20 307 20 346 c 2,0,-1
422 535 m 1,33,-1
 932 535 l 1,34,-1
 932 1114 l 1,35,-1
 422 535 l 1,33,-1
EndSplineSet
EndChar

StartChar: five
Encoding: 53 53 24
Width: 1485
Flags: W
LayerCount: 2
Fore
SplineSet
82 346 m 0,0,1
 82 406 82 406 117 431.5 c 128,-1,2
 152 457 152 457 184 457 c 2,3,-1
 303 457 l 2,4,5
 387 457 387 457 437 365.5 c 128,-1,6
 487 274 487 274 651 274 c 2,7,-1
 809 274 l 2,8,9
 932 274 932 274 989.5 313 c 128,-1,10
 1047 352 1047 352 1047 446.5 c 128,-1,11
 1047 541 1047 541 989.5 579.5 c 128,-1,12
 932 618 932 618 809 618 c 2,13,-1
 227 618 l 2,14,15
 188 618 188 618 160.5 645 c 128,-1,16
 133 672 133 672 133 711 c 2,17,-1
 133 1339 l 2,18,19
 133 1380 133 1380 160.5 1407 c 128,-1,20
 188 1434 188 1434 227 1434 c 2,21,-1
 1257 1434 l 2,22,23
 1298 1434 1298 1434 1325 1407 c 128,-1,24
 1352 1380 1352 1380 1352 1339 c 2,25,-1
 1352 1245 l 2,26,27
 1352 1204 1352 1204 1325 1177.5 c 128,-1,28
 1298 1151 1298 1151 1257 1151 c 2,29,-1
 510 1151 l 1,30,-1
 510 901 l 1,31,-1
 844 901 l 2,32,33
 1128 901 1128 901 1275.5 794.5 c 128,-1,34
 1423 688 1423 688 1423 446.5 c 128,-1,35
 1423 205 1423 205 1275.5 98.5 c 128,-1,36
 1128 -8 1128 -8 844 -8 c 2,37,-1
 616 -8 l 2,38,39
 391 -8 391 -8 236.5 93.5 c 128,-1,40
 82 195 82 195 82 346 c 0,0,1
EndSplineSet
EndChar

StartChar: six
Encoding: 54 54 25
Width: 1522
Flags: W
LayerCount: 2
Fore
SplineSet
82 483 m 2,0,-1
 82 926 l 2,1,2
 82 1210 82 1210 226.5 1326 c 128,-1,3
 371 1442 371 1442 657 1442 c 2,4,-1
 911 1442 l 2,5,6
 1137 1442 1137 1442 1287.5 1342.5 c 128,-1,7
 1438 1243 1438 1243 1438 1094 c 0,8,9
 1438 1034 1438 1034 1403 1008.5 c 128,-1,10
 1368 983 1368 983 1335 983 c 2,11,-1
 1217 983 l 2,12,13
 1139 983 1139 983 1085.5 1071 c 128,-1,14
 1032 1159 1032 1159 877 1159 c 2,15,-1
 692 1159 l 2,16,17
 569 1159 569 1159 514 1110 c 128,-1,18
 459 1061 459 1061 459 926 c 2,19,-1
 459 889 l 1,20,-1
 881 889 l 2,21,22
 1165 889 1165 889 1312.5 785.5 c 128,-1,23
 1460 682 1460 682 1460 440.5 c 128,-1,24
 1460 199 1460 199 1312.5 95.5 c 128,-1,25
 1165 -8 1165 -8 881 -8 c 2,26,-1
 662 -8 l 2,27,28
 373 -8 373 -8 227.5 102.5 c 128,-1,29
 82 213 82 213 82 483 c 2,0,-1
459 483 m 2,30,31
 459 360 459 360 514 317 c 128,-1,32
 569 274 569 274 696 274 c 2,33,-1
 846 274 l 2,34,35
 969 274 969 274 1026 310 c 128,-1,36
 1083 346 1083 346 1083 440.5 c 128,-1,37
 1083 535 1083 535 1026 570.5 c 128,-1,38
 969 606 969 606 846 606 c 2,39,-1
 459 606 l 1,40,-1
 459 483 l 2,30,31
EndSplineSet
EndChar

StartChar: seven
Encoding: 55 55 26
Width: 1305
Flags: W
LayerCount: 2
Fore
SplineSet
20 1245 m 2,0,-1
 20 1339 l 2,1,2
 20 1378 20 1378 49 1406 c 128,-1,3
 78 1434 78 1434 117 1434 c 2,4,-1
 1188 1434 l 2,5,6
 1227 1434 1227 1434 1255.5 1406 c 128,-1,7
 1284 1378 1284 1378 1284 1339 c 2,8,-1
 1284 1247 l 2,9,10
 1284 1178 1284 1178 1223 1065 c 2,11,-1
 698 94 l 2,12,13
 647 0 647 0 567 0 c 2,14,-1
 362 0 l 2,15,16
 322 0 322 0 305.5 26.5 c 128,-1,17
 289 53 289 53 305 84 c 2,18,-1
 883 1151 l 1,19,-1
 117 1151 l 2,20,21
 76 1151 76 1151 48 1178.5 c 128,-1,22
 20 1206 20 1206 20 1245 c 2,0,-1
EndSplineSet
EndChar

StartChar: eight
Encoding: 56 56 27
Width: 1548
Flags: W
LayerCount: 2
Fore
SplineSet
221 105.5 m 128,-1,1
 61 219 61 219 61 439 c 128,-1,2
 61 659 61 659 254 762 c 1,3,4
 119 873 119 873 119 1026 c 0,5,6
 119 1137 119 1137 164 1220 c 128,-1,7
 209 1303 209 1303 289 1350 c 0,8,9
 446 1442 446 1442 680 1442 c 2,10,-1
 868 1442 l 2,11,12
 1104 1442 1104 1442 1260 1350 c 0,13,14
 1339 1303 1339 1303 1384.5 1220 c 128,-1,15
 1430 1137 1430 1137 1430 1026 c 0,16,17
 1430 872 1430 872 1294 762 c 1,18,19
 1487 660 1487 660 1487 439.5 c 128,-1,20
 1487 219 1487 219 1327 105.5 c 128,-1,21
 1167 -8 1167 -8 915 -8 c 2,22,-1
 633 -8 l 2,23,0
 381 -8 381 -8 221 105.5 c 128,-1,1
438 432 m 128,-1,25
 438 344 438 344 495.5 309 c 128,-1,26
 553 274 553 274 676 274 c 2,27,-1
 872 274 l 2,28,29
 995 274 995 274 1052.5 309 c 128,-1,30
 1110 344 1110 344 1110 432 c 128,-1,31
 1110 520 1110 520 1052.5 555 c 128,-1,32
 995 590 995 590 872 590 c 2,33,-1
 676 590 l 2,34,35
 553 590 553 590 495.5 555 c 128,-1,24
 438 520 438 520 438 432 c 128,-1,25
483 1012 m 128,-1,37
 483 932 483 932 540.5 898 c 128,-1,38
 598 864 598 864 721 864 c 2,39,-1
 823 864 l 2,40,41
 946 864 946 864 1003.5 898 c 128,-1,42
 1061 932 1061 932 1061 1012 c 128,-1,43
 1061 1092 1061 1092 1003.5 1125.5 c 128,-1,44
 946 1159 946 1159 823 1159 c 2,45,-1
 721 1159 l 2,46,47
 598 1159 598 1159 540.5 1125.5 c 128,-1,36
 483 1092 483 1092 483 1012 c 128,-1,37
EndSplineSet
EndChar

StartChar: nine
Encoding: 57 57 28
Width: 1522
Flags: W
LayerCount: 2
Fore
SplineSet
641 1442 m 2,0,-1
 860 1442 l 2,1,2
 1149 1442 1149 1442 1294.5 1331.5 c 128,-1,3
 1440 1221 1440 1221 1440 950 c 2,4,-1
 1440 508 l 2,5,6
 1440 223 1440 223 1295.5 107.5 c 128,-1,7
 1151 -8 1151 -8 864 -8 c 2,8,-1
 610 -8 l 2,9,10
 385 -8 385 -8 234.5 91 c 128,-1,11
 84 190 84 190 84 340 c 0,12,13
 84 399 84 399 119 425 c 128,-1,14
 154 451 154 451 186 451 c 2,15,-1
 305 451 l 2,16,17
 383 451 383 451 436 362.5 c 128,-1,18
 489 274 489 274 645 274 c 2,19,-1
 829 274 l 2,20,21
 952 274 952 274 1007.5 323.5 c 128,-1,22
 1063 373 1063 373 1063 508 c 2,23,-1
 1063 545 l 1,24,-1
 641 545 l 2,25,26
 356 545 356 545 208.5 648.5 c 128,-1,27
 61 752 61 752 61 993.5 c 128,-1,28
 61 1235 61 1235 208.5 1338.5 c 128,-1,29
 356 1442 356 1442 641 1442 c 2,0,-1
676 827 m 2,30,-1
 1063 827 l 1,31,-1
 1063 950 l 2,32,33
 1063 1073 1063 1073 1007.5 1116 c 128,-1,34
 952 1159 952 1159 825 1159 c 2,35,-1
 676 1159 l 2,36,37
 553 1159 553 1159 495.5 1123 c 128,-1,38
 438 1087 438 1087 438 993 c 128,-1,39
 438 899 438 899 495.5 863 c 128,-1,40
 553 827 553 827 676 827 c 2,30,-1
EndSplineSet
EndChar

StartChar: colon
Encoding: 58 58 29
Width: 557
Flags: W
LayerCount: 2
Fore
SplineSet
340 324 m 2,0,1
 475 324 475 324 475 188 c 2,2,-1
 475 125 l 2,3,4
 475 62 475 62 440.5 26 c 128,-1,5
 406 -10 406 -10 340 -10 c 2,6,-1
 217 -10 l 2,7,8
 151 -10 151 -10 116.5 26 c 128,-1,9
 82 62 82 62 82 125 c 2,10,-1
 82 188 l 2,11,12
 82 254 82 254 117 289 c 128,-1,13
 152 324 152 324 217 324 c 2,14,-1
 340 324 l 2,0,1
217 782 m 2,15,16
 82 782 82 782 82 918 c 2,17,-1
 82 981 l 2,18,19
 82 1044 82 1044 117 1080 c 128,-1,20
 152 1116 152 1116 217 1116 c 2,21,-1
 340 1116 l 2,22,23
 406 1116 406 1116 440.5 1080 c 128,-1,24
 475 1044 475 1044 475 981 c 2,25,-1
 475 918 l 2,26,27
 475 782 475 782 340 782 c 2,28,-1
 217 782 l 2,15,16
EndSplineSet
EndChar

StartChar: semicolon
Encoding: 59 59 30
Width: 561
Flags: W
LayerCount: 2
Fore
SplineSet
47 -113 m 2,0,-1
 106 209 l 2,1,2
 114 256 114 256 160.5 290 c 128,-1,3
 207 324 207 324 258 324 c 2,4,-1
 340 324 l 2,5,6
 420 324 420 324 452 282 c 0,7,8
 483 242 483 242 455 168 c 1,9,-1
 336 -133 l 2,10,11
 316 -182 316 -182 273.5 -215 c 128,-1,12
 231 -248 231 -248 178 -248 c 2,13,-1
 139 -248 l 2,14,15
 76 -248 76 -248 59 -221.5 c 128,-1,16
 42 -195 42 -195 42 -167 c 128,-1,17
 42 -139 42 -139 47 -113 c 2,0,-1
221 782 m 2,18,19
 86 782 86 782 86 918 c 2,20,-1
 86 981 l 2,21,22
 86 1044 86 1044 121 1080 c 128,-1,23
 156 1116 156 1116 221 1116 c 2,24,-1
 344 1116 l 2,25,26
 410 1116 410 1116 444.5 1080 c 128,-1,27
 479 1044 479 1044 479 981 c 2,28,-1
 479 918 l 2,29,30
 479 782 479 782 344 782 c 2,31,-1
 221 782 l 2,18,19
EndSplineSet
EndChar

StartChar: less
Encoding: 60 60 31
Width: 819
Flags: W
LayerCount: 2
Fore
SplineSet
20 522 m 2,0,-1
 20 571 l 2,1,2
 20 637 20 637 80 680 c 2,3,-1
 649 1083 l 1,4,5
 684 1106 684 1106 710.5 1092.5 c 128,-1,6
 737 1079 737 1079 737 1042 c 2,7,-1
 737 870 l 2,8,9
 737 796 737 796 649 735 c 2,10,-1
 383 547 l 1,11,-1
 649 358 l 1,12,13
 737 297 737 297 737 223 c 2,14,-1
 737 51 l 2,15,16
 737 14 737 14 710.5 1 c 128,-1,17
 684 -12 684 -12 649 10 c 1,18,-1
 80 414 l 2,19,20
 20 456 20 456 20 522 c 2,0,-1
EndSplineSet
EndChar

StartChar: equal
Encoding: 61 61 32
Width: 999
Flags: W
LayerCount: 2
Fore
SplineSet
61 354 m 2,0,-1
 61 473 l 2,1,2
 61 500 61 500 78.5 517.5 c 128,-1,3
 96 535 96 535 123 535 c 2,4,-1
 877 535 l 2,5,6
 904 535 904 535 921 517.5 c 128,-1,7
 938 500 938 500 938 473 c 2,8,-1
 938 354 l 2,9,10
 938 327 938 327 920.5 310 c 128,-1,11
 903 293 903 293 877 293 c 2,12,-1
 123 293 l 2,13,14
 96 293 96 293 78.5 310 c 128,-1,15
 61 327 61 327 61 354 c 2,0,-1
61 776 m 2,16,-1
 61 895 l 2,17,18
 61 922 61 922 78.5 939 c 128,-1,19
 96 956 96 956 123 956 c 2,20,-1
 877 956 l 2,21,22
 904 956 904 956 921 939 c 128,-1,23
 938 922 938 922 938 895 c 2,24,-1
 938 776 l 2,25,26
 938 749 938 749 920.5 732 c 128,-1,27
 903 715 903 715 877 715 c 2,28,-1
 123 715 l 2,29,30
 96 715 96 715 78.5 732 c 128,-1,31
 61 749 61 749 61 776 c 2,16,-1
EndSplineSet
EndChar

StartChar: greater
Encoding: 62 62 33
Width: 819
Flags: W
LayerCount: 2
Fore
SplineSet
82 51 m 2,0,-1
 82 223 l 2,1,2
 82 297 82 297 170 358 c 1,3,-1
 436 547 l 1,4,-1
 170 735 l 2,5,6
 82 796 82 796 82 870 c 2,7,-1
 82 1042 l 2,8,9
 82 1079 82 1079 109 1093 c 0,10,11
 119 1098 119 1098 133.5 1098 c 128,-1,12
 148 1098 148 1098 170 1083 c 2,13,-1
 739 680 l 2,14,15
 798 637 798 637 799 571 c 1,16,-1
 799 522 l 2,17,18
 799 456 799 456 739 414 c 2,19,-1
 170 10 l 1,20,21
 148 -4 148 -4 133 -4 c 128,-1,22
 118 -4 118 -4 109 1 c 0,23,24
 82 14 82 14 82 51 c 2,0,-1
EndSplineSet
EndChar

StartChar: question
Encoding: 63 63 34
Width: 1321
Flags: W
LayerCount: 2
Fore
SplineSet
20 1053 m 0,0,1
 20 1223 20 1223 192.5 1332.5 c 128,-1,2
 365 1442 365 1442 569 1442 c 2,3,-1
 684 1442 l 2,4,5
 1260 1442 1260 1442 1260 995 c 0,6,7
 1260 895 1260 895 1211.5 821.5 c 128,-1,8
 1163 748 1163 748 1093.5 709 c 128,-1,9
 1024 670 1024 670 954.5 639 c 128,-1,10
 885 608 885 608 836.5 571.5 c 128,-1,11
 788 535 788 535 788 498 c 0,12,13
 788 426 788 426 727 426 c 2,14,-1
 502 426 l 2,15,16
 475 426 475 426 457.5 443.5 c 128,-1,17
 440 461 440 461 440 487 c 0,18,19
 440 573 440 573 473 639 c 128,-1,20
 506 705 506 705 555 742.5 c 128,-1,21
 604 780 604 780 661.5 813 c 128,-1,22
 719 846 719 846 768 868 c 0,23,24
 883 921 883 921 883 1001 c 128,-1,25
 883 1081 883 1081 828.5 1120 c 128,-1,26
 774 1159 774 1159 655 1159 c 2,27,-1
 604 1159 l 2,28,29
 438 1159 438 1159 377 1036 c 1,30,31
 332 942 332 942 242 942 c 2,32,-1
 123 942 l 2,33,34
 74 942 74 942 47 977 c 128,-1,35
 20 1012 20 1012 20 1053 c 0,0,1
420 125 m 2,36,-1
 420 188 l 2,37,38
 420 254 420 254 456 289 c 128,-1,39
 492 324 492 324 555 324 c 2,40,-1
 678 324 l 2,41,42
 741 324 741 324 777 289 c 128,-1,43
 813 254 813 254 813 188 c 2,44,-1
 813 125 l 2,45,46
 813 61 813 61 777 25.5 c 128,-1,47
 741 -10 741 -10 678 -10 c 2,48,-1
 555 -10 l 2,49,50
 492 -10 492 -10 456 25.5 c 128,-1,51
 420 61 420 61 420 125 c 2,36,-1
EndSplineSet
EndChar

StartChar: at
Encoding: 64 64 35
Width: 1700
Flags: W
LayerCount: 2
Fore
SplineSet
279.5 1242 m 128,-1,1
 498 1454 498 1454 863.5 1454 c 128,-1,2
 1229 1454 1229 1454 1433.5 1287 c 128,-1,3
 1638 1120 1638 1120 1638 766 c 0,4,5
 1638 549 1638 549 1520.5 411.5 c 128,-1,6
 1403 274 1403 274 1165 274 c 2,7,-1
 1069 274 l 2,8,9
 1051 274 1051 274 1038.5 286.5 c 128,-1,10
 1026 299 1026 299 1026 315 c 2,11,-1
 1026 338 l 1,12,13
 920 262 920 262 777.5 262 c 128,-1,14
 635 262 635 262 545 324.5 c 128,-1,15
 455 387 455 387 455 500.5 c 128,-1,16
 455 614 455 614 545 675.5 c 128,-1,17
 635 737 635 737 778 737 c 2,18,-1
 1004 737 l 1,19,20
 1004 817 1004 817 971 849 c 128,-1,21
 938 881 938 881 855 881 c 128,-1,22
 772 881 772 881 731 836 c 1,23,24
 707 799 707 799 653 799 c 2,25,-1
 551 799 l 2,26,27
 535 799 535 799 522.5 810 c 128,-1,28
 510 821 510 821 510 840 c 0,29,30
 510 1036 510 1036 883 1036 c 0,31,32
 1044 1036 1044 1036 1143.5 962.5 c 128,-1,33
 1243 889 1243 889 1243 737 c 2,34,-1
 1243 469 l 1,35,36
 1382 469 1382 469 1382 766 c 0,37,38
 1382 1006 1382 1006 1247 1119.5 c 128,-1,39
 1112 1233 1112 1233 861 1233 c 128,-1,40
 610 1233 610 1233 463.5 1074 c 128,-1,41
 317 915 317 915 317 655 c 128,-1,42
 317 395 317 395 464.5 236.5 c 128,-1,43
 612 78 612 78 870 78 c 0,44,45
 1006 78 1006 78 1087.5 93.5 c 128,-1,46
 1169 109 1169 109 1190 109 c 2,47,-1
 1219 109 l 2,48,49
 1245 109 1245 109 1262.5 89.5 c 128,-1,50
 1280 70 1280 70 1280 43 c 2,51,-1
 1280 -51 l 2,52,53
 1280 -74 1280 -74 1262.5 -91.5 c 128,-1,54
 1245 -109 1245 -109 1219 -113 c 1,55,56
 1065 -143 1065 -143 870 -143 c 0,57,58
 498 -143 498 -143 279.5 69 c 128,-1,59
 61 281 61 281 61 655.5 c 128,-1,0
 61 1030 61 1030 279.5 1242 c 128,-1,1
719 560.5 m 128,-1,61
 690 537 690 537 690 500 c 128,-1,62
 690 463 690 463 720 439.5 c 128,-1,63
 750 416 750 416 803 416 c 0,64,65
 909 416 909 416 1004 477 c 1,66,-1
 1004 584 l 1,67,-1
 797 584 l 2,68,60
 748 584 748 584 719 560.5 c 128,-1,61
EndSplineSet
EndChar

StartChar: A
Encoding: 65 65 36
Width: 1708
Flags: W
LayerCount: 2
Fore
SplineSet
25 92 m 2,0,-1
 276 1044 l 2,1,2
 378 1433 378 1433 940 1434 c 1,3,-1
 1479 1434 l 2,4,5
 1516 1434 1516 1434 1540.5 1406 c 128,-1,6
 1565 1378 1565 1378 1565 1341 c 2,7,-1
 1565 92 l 2,8,9
 1565 53 1565 53 1537 26.5 c 128,-1,10
 1509 0 1509 0 1470 0 c 2,11,-1
 1282 0 l 2,12,13
 1241 0 1241 0 1214.5 26.5 c 128,-1,14
 1188 53 1188 53 1188 94 c 2,15,-1
 1188 346 l 1,16,-1
 477 346 l 1,17,-1
 410 94 l 2,18,19
 400 53 400 53 365 26.5 c 128,-1,20
 330 0 330 0 291 0 c 2,21,-1
 94 0 l 2,22,23
 55 0 55 0 38 22.5 c 128,-1,24
 21 45 21 45 21.5 62 c 128,-1,25
 22 79 22 79 25 92 c 2,0,-1
551 629 m 1,26,-1
 1188 629 l 1,27,-1
 1188 1151 l 1,28,-1
 903 1151 l 2,29,30
 807 1151 807 1151 735.5 1096.5 c 128,-1,31
 664 1042 664 1042 639 950 c 2,32,-1
 551 629 l 1,26,-1
EndSplineSet
EndChar

StartChar: B
Encoding: 66 66 37
Width: 1690
Flags: W
LayerCount: 2
Fore
SplineSet
143 1339 m 2,0,1
 143 1378 143 1378 171 1406 c 128,-1,2
 199 1434 199 1434 238 1434 c 2,3,-1
 1051 1434 l 2,4,5
 1350 1434 1350 1434 1492 1262 c 0,6,7
 1571 1167 1571 1167 1571 1019.5 c 128,-1,8
 1571 872 1571 872 1436 762 c 1,9,10
 1628 659 1628 659 1628 442 c 128,-1,11
 1628 225 1628 225 1474.5 112.5 c 128,-1,12
 1321 0 1321 0 1098 0 c 2,13,-1
 238 0 l 2,14,15
 199 0 199 0 171 27.5 c 128,-1,16
 143 55 143 55 143 94 c 2,17,-1
 143 1339 l 2,0,1
520 270 m 1,18,-1
 1092 270 l 2,19,20
 1169 270 1169 270 1210 316 c 128,-1,21
 1251 362 1251 362 1251 442 c 128,-1,22
 1251 522 1251 522 1210 568 c 128,-1,23
 1169 614 1169 614 1092 614 c 2,24,-1
 520 614 l 1,25,-1
 520 270 l 1,18,-1
520 877 m 1,26,-1
 1055 877 l 2,27,28
 1118 877 1118 877 1156 914.5 c 128,-1,29
 1194 952 1194 952 1194 1019.5 c 128,-1,30
 1194 1087 1194 1087 1156 1125 c 128,-1,31
 1118 1163 1118 1163 1055 1163 c 2,32,-1
 520 1163 l 1,33,-1
 520 877 l 1,26,-1
EndSplineSet
EndChar

StartChar: C
Encoding: 67 67 38
Width: 1673
Flags: W
LayerCount: 2
Fore
SplineSet
61 716.5 m 128,-1,1
 61 1087 61 1087 246.5 1264.5 c 128,-1,2
 432 1442 432 1442 803 1442 c 2,3,-1
 1026 1442 l 2,4,5
 1253 1442 1253 1442 1427.5 1324 c 128,-1,6
 1602 1206 1602 1206 1602 1001 c 0,7,8
 1602 942 1602 942 1567 916.5 c 128,-1,9
 1532 891 1532 891 1499 891 c 2,10,-1
 1380 891 l 2,11,12
 1288 891 1288 891 1237 1001 c 0,13,14
 1163 1159 1163 1159 991 1159 c 2,15,-1
 813 1159 l 2,16,17
 594 1159 594 1159 516 1065 c 128,-1,18
 438 971 438 971 438 717 c 128,-1,19
 438 463 438 463 516 368.5 c 128,-1,20
 594 274 594 274 813 274 c 2,21,-1
 1012 274 l 2,22,23
 1184 274 1184 274 1257 432 c 0,24,25
 1308 543 1308 543 1401 543 c 2,26,-1
 1520 543 l 2,27,28
 1567 543 1567 543 1594.5 508 c 128,-1,29
 1622 473 1622 473 1622 432 c 0,30,31
 1622 227 1622 227 1448 109.5 c 128,-1,32
 1274 -8 1274 -8 1047 -8 c 2,33,-1
 803 -8 l 2,34,35
 432 -8 432 -8 246.5 169 c 128,-1,0
 61 346 61 346 61 716.5 c 128,-1,1
EndSplineSet
EndChar

StartChar: D
Encoding: 68 68 39
Width: 1688
Flags: W
LayerCount: 2
Fore
SplineSet
143 92 m 2,0,-1
 143 1337 l 2,1,2
 143 1378 143 1378 171 1406 c 128,-1,3
 199 1434 199 1434 238 1434 c 2,4,-1
 797 1434 l 2,5,6
 1231 1434 1231 1434 1428.5 1260.5 c 128,-1,7
 1626 1087 1626 1087 1626 716.5 c 128,-1,8
 1626 346 1626 346 1428.5 173 c 128,-1,9
 1231 0 1231 0 797 0 c 2,10,-1
 238 0 l 2,11,12
 199 0 199 0 171 26.5 c 128,-1,13
 143 53 143 53 143 92 c 2,0,-1
520 283 m 1,14,-1
 786 283 l 2,15,16
 1055 283 1055 283 1152 381 c 128,-1,17
 1249 479 1249 479 1249 716.5 c 128,-1,18
 1249 954 1249 954 1152 1052.5 c 128,-1,19
 1055 1151 1055 1151 786 1151 c 2,20,-1
 520 1151 l 1,21,-1
 520 283 l 1,14,-1
EndSplineSet
EndChar

StartChar: E
Encoding: 69 69 40
Width: 1526
Flags: W
LayerCount: 2
Fore
SplineSet
143 96 m 2,0,-1
 143 1341 l 2,1,2
 143 1380 143 1380 171 1407 c 128,-1,3
 199 1434 199 1434 238 1434 c 2,4,-1
 1391 1434 l 2,5,6
 1430 1434 1430 1434 1457.5 1406 c 128,-1,7
 1485 1378 1485 1378 1485 1339 c 2,8,-1
 1485 1245 l 2,9,10
 1485 1206 1485 1206 1457.5 1178.5 c 128,-1,11
 1430 1151 1430 1151 1391 1151 c 2,12,-1
 520 1151 l 1,13,-1
 520 860 l 1,14,-1
 1270 860 l 2,15,16
 1309 860 1309 860 1336.5 832.5 c 128,-1,17
 1364 805 1364 805 1364 766 c 2,18,-1
 1364 672 l 2,19,20
 1364 633 1364 633 1336.5 605.5 c 128,-1,21
 1309 578 1309 578 1270 578 c 2,22,-1
 520 578 l 1,23,-1
 520 283 l 1,24,-1
 1389 283 l 2,25,26
 1427 283 1427 283 1454 256 c 128,-1,27
 1481 229 1481 229 1481 190 c 2,28,-1
 1481 94 l 2,29,30
 1481 55 1481 55 1453 27.5 c 128,-1,31
 1425 0 1425 0 1386 0 c 2,32,-1
 238 0 l 2,33,34
 199 0 199 0 171 27.5 c 128,-1,35
 143 55 143 55 143 96 c 2,0,-1
EndSplineSet
EndChar

StartChar: F
Encoding: 70 70 41
Width: 1505
Flags: W
LayerCount: 2
Fore
SplineSet
143 96 m 2,0,-1
 143 1341 l 2,1,2
 143 1380 143 1380 171 1407 c 128,-1,3
 199 1434 199 1434 238 1434 c 2,4,-1
 1391 1434 l 2,5,6
 1430 1434 1430 1434 1457.5 1406 c 128,-1,7
 1485 1378 1485 1378 1485 1339 c 2,8,-1
 1485 1245 l 2,9,10
 1485 1206 1485 1206 1457.5 1178.5 c 128,-1,11
 1430 1151 1430 1151 1391 1151 c 2,12,-1
 520 1151 l 1,13,-1
 520 799 l 1,14,-1
 1229 799 l 2,15,16
 1268 799 1268 799 1295.5 771 c 128,-1,17
 1323 743 1323 743 1323 705 c 2,18,-1
 1323 610 l 2,19,20
 1323 571 1323 571 1295.5 543.5 c 128,-1,21
 1268 516 1268 516 1229 516 c 2,22,-1
 520 516 l 1,23,-1
 520 96 l 2,24,25
 520 55 520 55 492.5 27.5 c 128,-1,26
 465 0 465 0 426 0 c 2,27,-1
 238 0 l 2,28,29
 199 0 199 0 171 27.5 c 128,-1,30
 143 55 143 55 143 96 c 2,0,-1
EndSplineSet
EndChar

StartChar: G
Encoding: 71 71 42
Width: 1696
Flags: W
LayerCount: 2
Fore
SplineSet
238.5 171 m 128,-1,1
 61 350 61 350 61 718.5 c 128,-1,2
 61 1087 61 1087 246.5 1264.5 c 128,-1,3
 432 1442 432 1442 803 1442 c 2,4,-1
 1026 1442 l 2,5,6
 1247 1442 1247 1442 1424.5 1336.5 c 128,-1,7
 1602 1231 1602 1231 1602 1073 c 0,8,9
 1602 1014 1602 1014 1567 988.5 c 128,-1,10
 1532 963 1532 963 1499 963 c 2,11,-1
 1380 963 l 2,12,13
 1294 963 1294 963 1243 1061 c 128,-1,14
 1192 1159 1192 1159 991 1159 c 2,15,-1
 813 1159 l 2,16,17
 594 1159 594 1159 516 1065 c 128,-1,18
 438 971 438 971 438 719 c 128,-1,19
 438 467 438 467 508 370.5 c 128,-1,20
 578 274 578 274 758 274 c 2,21,-1
 963 274 l 2,22,23
 1124 274 1124 274 1193 335.5 c 128,-1,24
 1262 397 1262 397 1264 512 c 1,25,-1
 1038 512 l 2,26,27
 999 512 999 512 971.5 539.5 c 128,-1,28
 944 567 944 567 944 606 c 2,29,-1
 944 684 l 2,30,31
 944 723 944 723 971.5 750.5 c 128,-1,32
 999 778 999 778 1038 778 c 2,33,-1
 1540 778 l 2,34,35
 1579 778 1579 778 1606.5 750.5 c 128,-1,36
 1634 723 1634 723 1634 684 c 2,37,-1
 1634 573 l 2,38,39
 1634 293 1634 293 1466 142.5 c 128,-1,40
 1298 -8 1298 -8 973 -8 c 2,41,-1
 748 -8 l 2,42,0
 416 -8 416 -8 238.5 171 c 128,-1,1
EndSplineSet
EndChar

StartChar: H
Encoding: 72 72 43
Width: 1729
Flags: W
LayerCount: 2
Fore
SplineSet
143 94 m 2,0,-1
 143 1339 l 2,1,2
 143 1378 143 1378 171 1406 c 128,-1,3
 199 1434 199 1434 240 1434 c 2,4,-1
 426 1434 l 2,5,6
 465 1434 465 1434 492.5 1406 c 128,-1,7
 520 1378 520 1378 520 1339 c 2,8,-1
 520 889 l 1,9,-1
 1208 889 l 1,10,-1
 1208 1339 l 2,11,12
 1208 1378 1208 1378 1236 1406 c 128,-1,13
 1264 1434 1264 1434 1303 1434 c 2,14,-1
 1489 1434 l 2,15,16
 1530 1434 1530 1434 1557.5 1406 c 128,-1,17
 1585 1378 1585 1378 1585 1339 c 2,18,-1
 1585 94 l 2,19,20
 1585 55 1585 55 1556.5 27.5 c 128,-1,21
 1528 0 1528 0 1489 0 c 2,22,-1
 1303 0 l 2,23,24
 1264 0 1264 0 1236 26.5 c 128,-1,25
 1208 53 1208 53 1208 92 c 2,26,-1
 1208 606 l 1,27,-1
 520 606 l 1,28,-1
 520 92 l 2,29,30
 520 53 520 53 492.5 26.5 c 128,-1,31
 465 0 465 0 426 0 c 2,32,-1
 240 0 l 2,33,34
 201 0 201 0 172 27.5 c 128,-1,35
 143 55 143 55 143 94 c 2,0,-1
EndSplineSet
EndChar

StartChar: I
Encoding: 73 73 44
Width: 664
Flags: W
LayerCount: 2
Fore
SplineSet
143 92 m 2,0,-1
 143 1339 l 2,1,2
 143 1378 143 1378 171 1406 c 128,-1,3
 199 1434 199 1434 238 1434 c 2,4,-1
 424 1434 l 2,5,6
 465 1434 465 1434 492.5 1406 c 128,-1,7
 520 1378 520 1378 520 1339 c 2,8,-1
 520 94 l 2,9,10
 520 55 520 55 491.5 27.5 c 128,-1,11
 463 0 463 0 424 0 c 2,12,-1
 238 0 l 2,13,14
 199 0 199 0 171 26.5 c 128,-1,15
 143 53 143 53 143 92 c 2,0,-1
EndSplineSet
EndChar

StartChar: J
Encoding: 74 74 45
Width: 1130
Flags: W
LayerCount: 2
Fore
SplineSet
127 301 m 1,0,-1
 295 283 l 1,1,-1
 367 283 l 2,2,3
 506 283 506 283 568.5 340 c 128,-1,4
 631 397 631 397 631 532 c 2,5,-1
 631 1339 l 2,6,7
 631 1378 631 1378 658.5 1406 c 128,-1,8
 686 1434 686 1434 725 1434 c 2,9,-1
 911 1434 l 2,10,11
 952 1434 952 1434 980 1406 c 128,-1,12
 1008 1378 1008 1378 1008 1339 c 2,13,-1
 1008 535 l 2,14,15
 1008 279 1008 279 838 139.5 c 128,-1,16
 668 0 668 0 377 0 c 2,17,-1
 94 0 l 2,18,19
 55 0 55 0 27.5 27.5 c 128,-1,20
 0 55 0 55 0 94 c 2,21,-1
 0 207 l 2,22,23
 0 246 0 246 26.5 273.5 c 128,-1,24
 53 301 53 301 94 301 c 2,25,-1
 127 301 l 1,0,-1
EndSplineSet
EndChar

StartChar: K
Encoding: 75 75 46
Width: 1628
Flags: W
LayerCount: 2
Fore
SplineSet
1627 44 m 0,0,1
 1627 0 1627 0 1575 0 c 2,2,-1
 1346 0 l 2,3,4
 1307 0 1307 0 1262 27.5 c 128,-1,5
 1217 55 1217 55 1192 94 c 2,6,-1
 1016 373 l 1,7,8
 953 475 953 475 889 526.5 c 128,-1,9
 825 578 825 578 735 578 c 2,10,-1
 520 578 l 1,11,-1
 520 92 l 2,12,13
 520 53 520 53 492.5 26.5 c 128,-1,14
 465 0 465 0 426 0 c 2,15,-1
 238 0 l 2,16,17
 199 0 199 0 171 28.5 c 128,-1,18
 143 57 143 57 143 96 c 2,19,-1
 143 1339 l 2,20,21
 143 1378 143 1378 171 1407 c 128,-1,22
 199 1436 199 1436 238 1436 c 2,23,-1
 426 1436 l 2,24,25
 465 1436 465 1436 492.5 1407 c 128,-1,26
 520 1378 520 1378 520 1339 c 2,27,-1
 520 860 l 1,28,-1
 735 860 l 2,29,30
 823 860 823 860 889.5 908 c 128,-1,31
 956 956 956 956 1016 1063 c 2,32,-1
 1171 1339 l 2,33,34
 1224 1435 1224 1435 1315 1436 c 1,35,-1
 1546 1436 l 2,36,37
 1594 1436 1594 1436 1594 1394 c 0,38,39
 1594 1371 1594 1371 1577 1339 c 2,40,-1
 1360 946 l 2,41,42
 1313 860 1313 860 1254.5 804 c 128,-1,43
 1196 748 1196 748 1102 725 c 1,44,45
 1168 711 1168 711 1237.5 642 c 128,-1,46
 1307 573 1307 573 1360 492 c 1,47,-1
 1610 94 l 1,48,49
 1627 65 1627 65 1627 44 c 0,0,1
EndSplineSet
EndChar

StartChar: L
Encoding: 76 76 47
Width: 1505
Flags: W
LayerCount: 2
Fore
SplineSet
143 92 m 2,0,-1
 143 1337 l 2,1,2
 143 1378 143 1378 171 1406 c 128,-1,3
 199 1434 199 1434 238 1434 c 2,4,-1
 426 1434 l 2,5,6
 465 1434 465 1434 492.5 1406 c 128,-1,7
 520 1378 520 1378 520 1337 c 2,8,-1
 520 283 l 1,9,-1
 1391 283 l 2,10,11
 1430 283 1430 283 1457.5 255 c 128,-1,12
 1485 227 1485 227 1485 188 c 2,13,-1
 1485 94 l 2,14,15
 1485 55 1485 55 1457.5 27.5 c 128,-1,16
 1430 0 1430 0 1391 0 c 2,17,-1
 238 0 l 2,18,19
 199 0 199 0 171 26.5 c 128,-1,20
 143 53 143 53 143 92 c 2,0,-1
EndSplineSet
EndChar

StartChar: M
Encoding: 77 77 48
Width: 2118
Flags: W
LayerCount: 2
Fore
SplineSet
143 96 m 2,0,-1
 143 1337 l 2,1,2
 143 1378 143 1378 170 1406 c 128,-1,3
 197 1434 197 1434 236 1434 c 2,4,-1
 643 1434 l 2,5,6
 682 1434 682 1434 717 1406 c 128,-1,7
 752 1378 752 1378 764 1339 c 1,8,-1
 1059 485 l 1,9,-1
 1354 1339 l 1,10,11
 1366 1378 1366 1378 1401 1406 c 128,-1,12
 1436 1434 1436 1434 1475 1434 c 2,13,-1
 1882 1434 l 2,14,15
 1921 1434 1921 1434 1947.5 1406 c 128,-1,16
 1974 1378 1974 1378 1974 1337 c 2,17,-1
 1974 96 l 2,18,19
 1974 55 1974 55 1946.5 27.5 c 128,-1,20
 1919 0 1919 0 1880 0 c 2,21,-1
 1700 0 l 2,22,23
 1661 0 1661 0 1633.5 27.5 c 128,-1,24
 1606 55 1606 55 1606 96 c 2,25,-1
 1606 1073 l 1,26,-1
 1253 90 l 2,27,28
 1239 53 1239 53 1204 26.5 c 128,-1,29
 1169 0 1169 0 1130 0 c 2,30,-1
 987 0 l 2,31,32
 948 0 948 0 913.5 26.5 c 128,-1,33
 879 53 879 53 864 90 c 1,34,-1
 512 1073 l 1,35,-1
 512 96 l 2,36,37
 512 55 512 55 484.5 27.5 c 128,-1,38
 457 0 457 0 418 0 c 2,39,-1
 238 0 l 2,40,41
 199 0 199 0 171 27.5 c 128,-1,42
 143 55 143 55 143 96 c 2,0,-1
EndSplineSet
EndChar

StartChar: N
Encoding: 78 78 49
Width: 1776
Flags: W
LayerCount: 2
Fore
SplineSet
143 94 m 2,0,-1
 143 1339 l 2,1,2
 143 1378 143 1378 170 1406 c 128,-1,3
 197 1434 197 1434 236 1434 c 2,4,-1
 530 1434 l 2,5,6
 565 1434 565 1434 604 1406 c 128,-1,7
 643 1378 643 1378 668 1339 c 2,8,-1
 1272 410 l 1,9,-1
 1272 1341 l 2,10,11
 1272 1380 1272 1380 1299.5 1407 c 128,-1,12
 1327 1434 1327 1434 1366 1434 c 2,13,-1
 1538 1434 l 2,14,15
 1577 1434 1577 1434 1604.5 1407 c 128,-1,16
 1632 1380 1632 1380 1632 1339 c 2,17,-1
 1632 94 l 2,18,19
 1632 55 1632 55 1604.5 27.5 c 128,-1,20
 1577 0 1577 0 1538 0 c 2,21,-1
 1206 0 l 2,22,23
 1167 0 1167 0 1126 27.5 c 128,-1,24
 1085 55 1085 55 1061 94 c 2,25,-1
 508 952 l 1,26,-1
 508 94 l 2,27,28
 508 55 508 55 480.5 27.5 c 128,-1,29
 453 0 453 0 414 0 c 2,30,-1
 238 0 l 2,31,32
 199 0 199 0 171 27.5 c 128,-1,33
 143 55 143 55 143 94 c 2,0,-1
EndSplineSet
EndChar

StartChar: O
Encoding: 79 79 50
Width: 1733
Flags: W
LayerCount: 2
Fore
SplineSet
866.5 -31 m 128,-1,1
 471 -31 471 -31 266 148.5 c 128,-1,2
 61 328 61 328 61 717 c 128,-1,3
 61 1106 61 1106 266 1285 c 128,-1,4
 471 1464 471 1464 866.5 1464 c 128,-1,5
 1262 1464 1262 1464 1466.5 1285 c 128,-1,6
 1671 1106 1671 1106 1671 717 c 128,-1,7
 1671 328 1671 328 1466.5 148.5 c 128,-1,0
 1262 -31 1262 -31 866.5 -31 c 128,-1,1
866.5 1194 m 128,-1,9
 641 1194 641 1194 539.5 1074 c 128,-1,10
 438 954 438 954 438 716.5 c 128,-1,11
 438 479 438 479 539.5 359.5 c 128,-1,12
 641 240 641 240 866.5 240 c 128,-1,13
 1092 240 1092 240 1193 359.5 c 128,-1,14
 1294 479 1294 479 1294 716.5 c 128,-1,15
 1294 954 1294 954 1193 1074 c 128,-1,8
 1092 1194 1092 1194 866.5 1194 c 128,-1,9
EndSplineSet
EndChar

StartChar: P
Encoding: 80 80 51
Width: 1645
Flags: W
LayerCount: 2
Fore
SplineSet
143 94 m 2,0,-1
 143 1339 l 2,1,2
 143 1378 143 1378 170 1406 c 128,-1,3
 197 1434 197 1434 236 1434 c 2,4,-1
 999 1434 l 2,5,6
 1604 1434 1604 1434 1604 876.5 c 128,-1,7
 1604 319 1604 319 999 319 c 2,8,-1
 520 319 l 1,9,-1
 520 94 l 2,10,11
 520 55 520 55 492.5 27.5 c 128,-1,12
 465 0 465 0 426 0 c 2,13,-1
 238 0 l 2,14,15
 199 0 199 0 171 27.5 c 128,-1,16
 143 55 143 55 143 94 c 2,0,-1
520 602 m 1,17,-1
 885 602 l 2,18,19
 1053 602 1053 602 1140 658.5 c 128,-1,20
 1227 715 1227 715 1227 876.5 c 128,-1,21
 1227 1038 1227 1038 1140 1094.5 c 128,-1,22
 1053 1151 1053 1151 885 1151 c 2,23,-1
 520 1151 l 1,24,-1
 520 602 l 1,17,-1
EndSplineSet
EndChar

StartChar: Q
Encoding: 81 81 52
Width: 1729
Flags: W
LayerCount: 2
Fore
SplineSet
266 1286 m 128,-1,1
 471 1464 471 1464 868.5 1464 c 128,-1,2
 1266 1464 1266 1464 1468.5 1295 c 128,-1,3
 1671 1126 1671 1126 1671 748 c 0,4,5
 1671 548 1671 548 1593 422 c 1,6,7
 1538 331 1538 331 1475 260 c 1,8,-1
 1634 260 l 2,9,10
 1675 260 1675 260 1702 232.5 c 128,-1,11
 1729 205 1729 205 1729 166 c 2,12,-1
 1729 84 l 2,13,14
 1729 45 1729 45 1702 17.5 c 128,-1,15
 1675 -10 1675 -10 1634 -10 c 2,16,-1
 866 -10 l 2,17,18
 471 -10 471 -10 266 168 c 128,-1,19
 61 346 61 346 61 727 c 128,-1,0
 61 1108 61 1108 266 1286 c 128,-1,1
866 260 m 0,20,21
 1294 260 1294 260 1294 748 c 0,22,23
 1294 975 1294 975 1193 1084.5 c 128,-1,24
 1092 1194 1092 1194 867.5 1194 c 128,-1,25
 643 1194 643 1194 540.5 1075 c 128,-1,26
 438 956 438 956 438 727 c 128,-1,27
 438 498 438 498 540.5 379 c 128,-1,28
 643 260 643 260 866 260 c 0,20,21
EndSplineSet
EndChar

StartChar: R
Encoding: 82 82 53
Width: 1655
Flags: W
LayerCount: 2
Fore
SplineSet
1632 43 m 0,0,1
 1632 0 1632 0 1581 0 c 2,2,-1
 1341 0 l 2,3,4
 1303 0 1303 0 1257.5 27.5 c 128,-1,5
 1212 55 1212 55 1188 94 c 2,6,-1
 1018 360 l 2,7,8
 913 524 913 524 764 524 c 2,9,-1
 520 524 l 1,10,-1
 520 94 l 2,11,12
 520 55 520 55 492.5 27.5 c 128,-1,13
 465 0 465 0 426 0 c 2,14,-1
 238 0 l 2,15,16
 199 0 199 0 171 27.5 c 128,-1,17
 143 55 143 55 143 94 c 2,18,-1
 143 1339 l 2,19,20
 143 1378 143 1378 170 1406 c 128,-1,21
 197 1434 197 1434 236 1434 c 2,22,-1
 1061 1434 l 2,23,24
 1290 1434 1290 1434 1436.5 1311 c 128,-1,25
 1583 1188 1583 1188 1583 979 c 0,26,27
 1583 688 1583 688 1206 614 c 1,28,29
 1266 592 1266 592 1317 538.5 c 128,-1,30
 1368 485 1368 485 1434 383 c 1,31,-1
 1616 94 l 1,32,33
 1632 66 1632 66 1632 43 c 0,0,1
520 807 m 1,34,-1
 946 807 l 2,35,36
 1049 807 1049 807 1127.5 848 c 128,-1,37
 1206 889 1206 889 1206 979 c 128,-1,38
 1206 1069 1206 1069 1127.5 1110 c 128,-1,39
 1049 1151 1049 1151 946 1151 c 2,40,-1
 520 1151 l 1,41,-1
 520 807 l 1,34,-1
EndSplineSet
EndChar

StartChar: S
Encoding: 83 83 54
Width: 1595
Flags: W
LayerCount: 2
Fore
SplineSet
61 367 m 0,0,1
 61 426 61 426 96 451.5 c 128,-1,2
 131 477 131 477 164 477 c 2,3,-1
 283 477 l 2,4,5
 373 477 373 477 420 379 c 128,-1,6
 467 281 467 281 631 281 c 1,7,-1
 981 274 l 1,8,9
 1157 274 1157 274 1157 389 c 0,10,11
 1157 476 1157 476 942 526 c 0,12,13
 846 549 846 549 730 571.5 c 128,-1,14
 614 594 614 594 499.5 628 c 128,-1,15
 385 662 385 662 289 708 c 128,-1,16
 193 754 193 754 133.5 834.5 c 128,-1,17
 74 915 74 915 74 1024 c 0,18,19
 74 1225 74 1225 217 1333.5 c 128,-1,20
 360 1442 360 1442 709 1442 c 1,21,-1
 963 1436 l 1,22,23
 1168 1436 1168 1436 1332.5 1330.5 c 128,-1,24
 1497 1225 1497 1225 1497 1067 c 0,25,26
 1497 1008 1497 1008 1462 982 c 128,-1,27
 1427 956 1427 956 1395 956 c 2,28,-1
 1276 956 l 2,29,30
 1186 956 1186 956 1139 1054.5 c 128,-1,31
 1092 1153 1092 1153 928 1153 c 1,32,-1
 627 1159 l 1,33,34
 451 1159 451 1159 451 1044 c 0,35,36
 451 981 451 981 562.5 941 c 128,-1,37
 674 901 674 901 832.5 870.5 c 128,-1,38
 991 840 991 840 1151 797 c 128,-1,39
 1311 754 1311 754 1422.5 655.5 c 128,-1,40
 1534 557 1534 557 1534 410 c 0,41,42
 1534 209 1534 209 1390.5 100.5 c 128,-1,43
 1247 -8 1247 -8 899 -8 c 1,44,-1
 596 -2 l 1,45,46
 391 -2 391 -2 226 103.5 c 128,-1,47
 61 209 61 209 61 367 c 0,0,1
EndSplineSet
EndChar

StartChar: T
Encoding: 84 84 55
Width: 1499
Flags: W
LayerCount: 2
Fore
SplineSet
20 1245 m 2,0,-1
 20 1339 l 2,1,2
 20 1380 20 1380 47 1407 c 128,-1,3
 74 1434 74 1434 115 1434 c 2,4,-1
 1384 1434 l 2,5,6
 1425 1434 1425 1434 1452 1407 c 128,-1,7
 1479 1380 1479 1380 1479 1339 c 2,8,-1
 1479 1245 l 2,9,10
 1479 1204 1479 1204 1452 1177.5 c 128,-1,11
 1425 1151 1425 1151 1384 1151 c 2,12,-1
 938 1151 l 1,13,-1
 938 92 l 2,14,15
 938 53 938 53 910.5 26.5 c 128,-1,16
 883 0 883 0 844 0 c 2,17,-1
 655 0 l 2,18,19
 616 0 616 0 588.5 26.5 c 128,-1,20
 561 53 561 53 561 92 c 2,21,-1
 561 1151 l 1,22,-1
 115 1151 l 2,23,24
 74 1151 74 1151 47 1177.5 c 128,-1,25
 20 1204 20 1204 20 1245 c 2,0,-1
EndSplineSet
EndChar

StartChar: U
Encoding: 85 85 56
Width: 1688
Flags: W
LayerCount: 2
Fore
SplineSet
123 567 m 2,0,-1
 123 1339 l 2,1,2
 123 1378 123 1378 150.5 1406 c 128,-1,3
 178 1434 178 1434 219 1434 c 2,4,-1
 406 1434 l 2,5,6
 444 1434 444 1434 472 1406 c 128,-1,7
 500 1378 500 1378 500 1339 c 2,8,-1
 500 565 l 2,9,10
 500 418 500 418 564.5 346 c 128,-1,11
 629 274 629 274 764 274 c 2,12,-1
 924 274 l 2,13,14
 1059 274 1059 274 1123.5 346 c 128,-1,15
 1188 418 1188 418 1188 565 c 2,16,-1
 1188 1339 l 2,17,18
 1188 1378 1188 1378 1215.5 1406 c 128,-1,19
 1243 1434 1243 1434 1282 1434 c 2,20,-1
 1468 1434 l 2,21,22
 1509 1434 1509 1434 1537 1406 c 128,-1,23
 1565 1378 1565 1378 1565 1339 c 2,24,-1
 1565 567 l 2,25,26
 1565 293 1565 293 1404 142.5 c 128,-1,27
 1243 -8 1243 -8 934 -8 c 2,28,-1
 754 -8 l 2,29,30
 444 -8 444 -8 283.5 142.5 c 128,-1,31
 123 293 123 293 123 567 c 2,0,-1
EndSplineSet
EndChar

StartChar: V
Encoding: 86 86 57
Width: 1634
Flags: W
LayerCount: 2
Fore
SplineSet
27 1350 m 2,0,1
 21 1362 21 1362 21 1376.5 c 128,-1,2
 21 1391 21 1391 39.5 1412.5 c 128,-1,3
 58 1434 58 1434 92 1434 c 2,4,-1
 311 1434 l 2,5,6
 389 1434 389 1434 430 1339 c 1,7,-1
 817 477 l 1,8,-1
 1204 1339 l 1,9,10
 1245 1433 1245 1433 1323 1434 c 1,11,-1
 1542 1434 l 2,12,13
 1577 1434 1577 1434 1595 1412.5 c 128,-1,14
 1613 1391 1613 1391 1613 1376.5 c 128,-1,15
 1613 1362 1613 1362 1608 1350 c 2,16,-1
 1032 102 l 2,17,18
 985 0 985 0 889 0 c 2,19,-1
 745 0 l 2,20,21
 649 0 649 0 602 102 c 2,22,-1
 27 1350 l 2,0,1
EndSplineSet
EndChar

StartChar: W
Encoding: 87 87 58
Width: 2294
Flags: W
LayerCount: 2
Fore
SplineSet
25 1350 m 2,0,1
 20 1362 20 1362 20 1377.5 c 128,-1,2
 20 1393 20 1393 37.5 1413.5 c 128,-1,3
 55 1434 55 1434 90 1434 c 2,4,-1
 309 1434 l 2,5,6
 348 1434 348 1434 381 1407 c 128,-1,7
 414 1380 414 1380 428 1339 c 2,8,-1
 692 547 l 1,9,-1
 936 1339 l 2,10,11
 965 1434 965 1434 1055 1434 c 2,12,-1
 1239 1434 l 2,13,14
 1329 1434 1329 1434 1358 1339 c 2,15,-1
 1602 547 l 1,16,-1
 1866 1339 l 2,17,18
 1880 1380 1880 1380 1913 1407 c 128,-1,19
 1946 1434 1946 1434 1985 1434 c 2,20,-1
 2204 1434 l 2,21,22
 2238 1434 2238 1434 2255.5 1413.5 c 128,-1,23
 2273 1393 2273 1393 2273 1377.5 c 128,-1,24
 2273 1362 2273 1362 2269 1350 c 2,25,-1
 1823 102 l 2,26,27
 1786 0 1786 0 1679 0 c 2,28,-1
 1534 0 l 2,29,30
 1423 0 1423 0 1391 102 c 2,31,-1
 1147 872 l 1,32,-1
 903 102 l 2,33,34
 870 0 870 0 760 0 c 2,35,-1
 614 0 l 2,36,37
 508 0 508 0 471 102 c 2,38,-1
 25 1350 l 2,0,1
EndSplineSet
EndChar

StartChar: X
Encoding: 88 88 59
Width: 1536
Flags: W
LayerCount: 2
Fore
SplineSet
76 0 m 2,0,1
 26 0 26 0 20 45 c 1,2,3
 20 67 20 67 41 94 c 2,4,-1
 545 737 l 1,5,-1
 70 1339 l 2,6,7
 49 1365 49 1365 49 1388 c 0,8,9
 49 1434 49 1434 104 1434 c 2,10,-1
 319 1434 l 2,11,12
 419 1434 419 1434 494 1339 c 2,13,-1
 768 991 l 1,14,-1
 1042 1339 l 2,15,16
 1116 1433 1116 1433 1217 1434 c 1,17,-1
 1432 1434 l 2,18,19
 1487 1434 1487 1434 1487 1388 c 0,20,21
 1487 1366 1487 1366 1466 1339 c 2,22,-1
 991 737 l 1,23,-1
 1495 94 l 2,24,25
 1516 68 1516 68 1516 52 c 128,-1,26
 1516 36 1516 36 1512 29 c 1,27,28
 1501 0 1501 0 1460 0 c 2,29,-1
 1247 0 l 2,30,31
 1147 0 1147 0 1073 94 c 2,32,-1
 768 483 l 1,33,-1
 463 94 l 2,34,35
 389 0 389 0 289 0 c 2,36,-1
 76 0 l 2,0,1
EndSplineSet
EndChar

StartChar: Y
Encoding: 89 89 60
Width: 1520
Flags: W
LayerCount: 2
Fore
SplineSet
20 1386 m 0,0,1
 20 1434 20 1434 72 1434 c 2,2,-1
 262 1434 l 2,3,4
 375 1434 375 1434 436 1339 c 2,5,-1
 760 840 l 1,6,-1
 1083 1339 l 2,7,8
 1145 1434 1145 1434 1257 1434 c 2,9,-1
 1448 1434 l 2,10,11
 1499 1434 1499 1434 1499 1386 c 0,12,13
 1499 1364 1499 1364 1483 1339 c 2,14,-1
 948 512 l 1,15,-1
 948 92 l 2,16,17
 948 53 948 53 920.5 26.5 c 128,-1,18
 893 0 893 0 854 0 c 2,19,-1
 666 0 l 2,20,21
 627 0 627 0 599 26.5 c 128,-1,22
 571 53 571 53 571 92 c 2,23,-1
 571 512 l 1,24,-1
 37 1339 l 2,25,26
 20 1364 20 1364 20 1386 c 0,0,1
EndSplineSet
EndChar

StartChar: Z
Encoding: 90 90 61
Width: 1468
Flags: W
LayerCount: 2
Fore
SplineSet
51 1245 m 2,0,-1
 51 1339 l 2,1,2
 51 1380 51 1380 78.5 1407 c 128,-1,3
 106 1434 106 1434 145 1434 c 2,4,-1
 1313 1434 l 2,5,6
 1352 1434 1352 1434 1379.5 1407 c 128,-1,7
 1407 1380 1407 1380 1407 1339 c 2,8,-1
 1407 1227 l 2,9,10
 1407 1186 1407 1186 1389.5 1148 c 128,-1,11
 1372 1110 1372 1110 1357 1094 c 2,12,-1
 1313 1049 l 1,13,-1
 526 283 l 1,14,-1
 1323 283 l 2,15,16
 1364 283 1364 283 1390.5 256 c 128,-1,17
 1417 229 1417 229 1417 188 c 2,18,-1
 1417 94 l 2,19,20
 1417 53 1417 53 1390.5 26.5 c 128,-1,21
 1364 0 1364 0 1323 0 c 2,22,-1
 162 0 l 2,23,24
 123 0 123 0 95.5 26.5 c 128,-1,25
 68 53 68 53 68 94 c 2,26,-1
 68 205 l 2,27,28
 68 301 68 301 162 395 c 2,29,-1
 924 1151 l 1,30,-1
 145 1151 l 2,31,32
 106 1151 106 1151 78.5 1177.5 c 128,-1,33
 51 1204 51 1204 51 1245 c 2,0,-1
EndSplineSet
EndChar

StartChar: bracketleft
Encoding: 91 91 62
Width: 797
Flags: W
LayerCount: 2
Fore
SplineSet
143 -205 m 2,0,-1
 143 1454 l 2,1,2
 143 1481 143 1481 160.5 1498.5 c 128,-1,3
 178 1516 178 1516 205 1516 c 2,4,-1
 715 1516 l 2,5,6
 741 1516 741 1516 758.5 1498.5 c 128,-1,7
 776 1481 776 1481 776 1454 c 2,8,-1
 776 1346 l 2,9,10
 776 1319 776 1319 758.5 1301.5 c 128,-1,11
 741 1284 741 1284 715 1284 c 2,12,-1
 469 1284 l 1,13,-1
 469 -35 l 1,14,-1
 715 -35 l 2,15,16
 741 -35 741 -35 758.5 -52.5 c 128,-1,17
 776 -70 776 -70 776 -96 c 2,18,-1
 776 -205 l 2,19,20
 776 -231 776 -231 758.5 -248.5 c 128,-1,21
 741 -266 741 -266 715 -266 c 2,22,-1
 205 -266 l 2,23,24
 178 -266 178 -266 160.5 -248.5 c 128,-1,25
 143 -231 143 -231 143 -205 c 2,0,-1
EndSplineSet
EndChar

StartChar: backslash
Encoding: 92 92 63
Width: 1055
Flags: W
LayerCount: 2
Fore
SplineSet
0 1386 m 0,0,1
 0 1434 0 1434 49 1434 c 2,2,-1
 217 1434 l 2,3,4
 344 1434 344 1434 391 1339 c 1,5,-1
 1040 94 l 1,6,7
 1055 70 1055 70 1055 47 c 0,8,9
 1055 0 1055 0 1006 0 c 2,10,-1
 838 0 l 2,11,12
 711 0 711 0 664 94 c 1,13,-1
 14 1339 l 2,14,15
 0 1364 0 1364 0 1386 c 0,0,1
EndSplineSet
EndChar

StartChar: bracketright
Encoding: 93 93 64
Width: 797
Flags: W
LayerCount: 2
Fore
SplineSet
20 -96 m 2,0,1
 20 -70 20 -70 37.5 -52.5 c 128,-1,2
 55 -35 55 -35 82 -35 c 2,3,-1
 328 -35 l 1,4,-1
 328 1284 l 1,5,-1
 82 1284 l 2,6,7
 55 1284 55 1284 37.5 1301.5 c 128,-1,8
 20 1319 20 1319 20 1346 c 2,9,-1
 20 1454 l 2,10,11
 20 1481 20 1481 37.5 1498.5 c 128,-1,12
 55 1516 55 1516 82 1516 c 2,13,-1
 592 1516 l 2,14,15
 618 1516 618 1516 635.5 1498.5 c 128,-1,16
 653 1481 653 1481 653 1454 c 2,17,-1
 653 -205 l 2,18,19
 653 -231 653 -231 635.5 -248.5 c 128,-1,20
 618 -266 618 -266 592 -266 c 2,21,-1
 82 -266 l 2,22,23
 55 -266 55 -266 37.5 -248.5 c 128,-1,24
 20 -231 20 -231 20 -205 c 2,25,-1
 20 -96 l 2,0,1
EndSplineSet
EndChar

StartChar: asciicircum
Encoding: 94 94 65
Width: 1090
Flags: W
LayerCount: 2
Fore
SplineSet
0 826 m 0,0,1
 0 840 0 840 14 860 c 2,2,-1
 336 1346 l 2,3,4
 395 1434 395 1434 471 1434 c 2,5,-1
 618 1434 l 2,6,7
 694 1434 694 1434 754 1346 c 1,8,-1
 1075 860 l 1,9,10
 1090 840 1090 840 1090 825.5 c 128,-1,11
 1090 811 1090 811 1083 801 c 1,12,13
 1071 772 1071 772 1034 772 c 2,14,-1
 877 772 l 2,15,16
 799 772 799 772 743 856 c 2,17,-1
 545 1155 l 1,18,-1
 346 856 l 2,19,20
 291 772 291 772 213 772 c 2,21,-1
 55 772 l 2,22,23
 0 772 0 772 0 826 c 0,0,1
EndSplineSet
EndChar

StartChar: underscore
Encoding: 95 95 66
Width: 819
Flags: W
LayerCount: 2
Fore
SplineSet
0 -61 m 2,0,1
 0 -34 0 -34 17.5 -17 c 128,-1,2
 35 0 35 0 61 0 c 2,3,-1
 758 0 l 2,4,5
 785 0 785 0 802 -17.5 c 128,-1,6
 819 -35 819 -35 819 -61 c 2,7,-1
 819 -180 l 2,8,9
 819 -207 819 -207 801.5 -224.5 c 128,-1,10
 784 -242 784 -242 758 -242 c 2,11,-1
 61 -242 l 2,12,13
 34 -242 34 -242 17 -224.5 c 128,-1,14
 0 -207 0 -207 0 -180 c 2,15,-1
 0 -61 l 2,0,1
EndSplineSet
EndChar

StartChar: grave
Encoding: 96 96 67
Width: 563
Flags: W
LayerCount: 2
Fore
SplineSet
58 1391 m 0,0,1
 92 1434 92 1434 174 1434 c 2,2,-1
 256 1434 l 2,3,4
 305 1434 305 1434 348 1400 c 128,-1,5
 391 1366 391 1366 408 1319 c 1,6,-1
 512 995 l 2,7,8
 522 962 522 962 522 938 c 0,9,10
 522 860 522 860 420 860 c 2,11,-1
 381 860 l 2,12,13
 285 860 285 860 223 975 c 2,14,-1
 59 1278 l 2,15,16
 41 1313 41 1313 41 1341.5 c 128,-1,17
 41 1370 41 1370 58 1391 c 0,0,1
EndSplineSet
EndChar

StartChar: a
Encoding: 97 97 68
Width: 1335
Flags: W
LayerCount: 2
Fore
SplineSet
61 332 m 128,-1,1
 61 500 61 500 193.5 590 c 128,-1,2
 326 680 326 680 535 680 c 2,3,-1
 866 680 l 1,4,5
 866 797 866 797 817 843 c 128,-1,6
 768 889 768 889 645.5 889 c 128,-1,7
 523 889 523 889 473.5 828.5 c 128,-1,8
 424 768 424 768 352 768 c 2,9,-1
 203 768 l 2,10,11
 176 768 176 768 158.5 785.5 c 128,-1,12
 141 803 141 803 141 829 c 0,13,14
 141 1116 141 1116 686 1116 c 0,15,16
 924 1116 924 1116 1068 1009.5 c 128,-1,17
 1212 903 1212 903 1212 680 c 2,18,-1
 1212 61 l 2,19,20
 1212 34 1212 34 1195 17 c 128,-1,21
 1178 0 1178 0 1151 0 c 2,22,-1
 958 0 l 2,23,24
 931 0 931 0 914 17.5 c 128,-1,25
 897 35 897 35 897 61 c 2,26,-1
 897 92 l 1,27,28
 739 -21 739 -21 532.5 -20.5 c 128,-1,29
 326 -20 326 -20 193.5 72 c 128,-1,0
 61 164 61 164 61 332 c 128,-1,1
448.5 419 m 128,-1,31
 408 385 408 385 408 331 c 128,-1,32
 408 277 408 277 450 242 c 128,-1,33
 492 207 492 207 569 207 c 0,34,35
 723 207 723 207 866 297 c 1,36,-1
 866 453 l 1,37,-1
 559 453 l 2,38,30
 489 453 489 453 448.5 419 c 128,-1,31
EndSplineSet
EndChar

StartChar: b
Encoding: 98 98 69
Width: 1356
Flags: W
LayerCount: 2
Fore
SplineSet
123 1372 m 2,0,1
 123 1399 123 1399 140.5 1416.5 c 128,-1,2
 158 1434 158 1434 184 1434 c 2,3,-1
 408 1434 l 2,4,5
 434 1434 434 1434 451.5 1416.5 c 128,-1,6
 469 1399 469 1399 469 1372 c 2,7,-1
 469 1065 l 1,8,9
 631 1116 631 1116 758 1116 c 0,10,11
 1004 1116 1004 1116 1149 969.5 c 128,-1,12
 1294 823 1294 823 1294 547 c 0,13,14
 1294 -20 1294 -20 659 -20 c 0,15,16
 514 -20 514 -20 358.5 12.5 c 128,-1,17
 203 45 203 45 123 92 c 1,18,-1
 123 1372 l 2,0,1
469 834 m 1,19,-1
 469 244 l 1,20,21
 555 221 555 221 688 221 c 128,-1,22
 821 221 821 221 879.5 298 c 128,-1,23
 938 375 938 375 938 547 c 128,-1,24
 938 719 938 719 880.5 796.5 c 128,-1,25
 823 874 823 874 686 874 c 0,26,27
 598 874 598 874 469 834 c 1,19,-1
EndSplineSet
EndChar

StartChar: c
Encoding: 99 99 70
Width: 1272
Flags: W
LayerCount: 2
Fore
SplineSet
217 124 m 128,-1,1
 61 268 61 268 61 547.5 c 128,-1,2
 61 827 61 827 216 971.5 c 128,-1,3
 371 1116 371 1116 647.5 1116 c 128,-1,4
 924 1116 924 1116 1072.5 1028 c 128,-1,5
 1221 940 1221 940 1221 768 c 0,6,7
 1221 741 1221 741 1203.5 724 c 128,-1,8
 1186 707 1186 707 1159 707 c 2,9,-1
 1010 707 l 2,10,11
 942 707 942 707 895 780 c 1,12,13
 836 874 836 874 686.5 874 c 128,-1,14
 537 874 537 874 477.5 797.5 c 128,-1,15
 418 721 418 721 418 548 c 128,-1,16
 418 375 418 375 479.5 298 c 128,-1,17
 541 221 541 221 693.5 221 c 128,-1,18
 846 221 846 221 905 315 c 0,19,20
 952 389 952 389 1020 389 c 2,21,-1
 1169 389 l 2,22,23
 1196 389 1196 389 1213.5 371.5 c 128,-1,24
 1231 354 1231 354 1231 328 c 0,25,26
 1231 156 1231 156 1082.5 68 c 128,-1,27
 934 -20 934 -20 653.5 -20 c 128,-1,0
 373 -20 373 -20 217 124 c 128,-1,1
EndSplineSet
EndChar

StartChar: d
Encoding: 100 100 71
Width: 1356
Flags: W
LayerCount: 2
Fore
SplineSet
201.5 127 m 128,-1,1
 61 274 61 274 61 548.5 c 128,-1,2
 61 823 61 823 206.5 969.5 c 128,-1,3
 352 1116 352 1116 598 1116 c 0,4,5
 725 1116 725 1116 887 1065 c 1,6,-1
 887 1372 l 2,7,8
 887 1399 887 1399 904.5 1416.5 c 128,-1,9
 922 1434 922 1434 948 1434 c 2,10,-1
 1171 1434 l 2,11,12
 1198 1434 1198 1434 1215.5 1416.5 c 128,-1,13
 1233 1399 1233 1399 1233 1372 c 2,14,-1
 1233 61 l 2,15,16
 1233 35 1233 35 1215.5 17.5 c 128,-1,17
 1198 0 1198 0 1171 0 c 2,18,-1
 979 0 l 2,19,20
 952 0 952 0 935 17.5 c 128,-1,21
 918 35 918 35 918 61 c 2,22,-1
 918 92 l 1,23,24
 760 -20 760 -20 551 -20 c 128,-1,0
 342 -20 342 -20 201.5 127 c 128,-1,1
475 796.5 m 128,-1,26
 418 719 418 719 418 548 c 128,-1,27
 418 377 418 377 472 299 c 128,-1,28
 526 221 526 221 634.5 221 c 128,-1,29
 743 221 743 221 887 311 c 1,30,-1
 887 834 l 1,31,32
 758 874 758 874 670 874 c 0,33,25
 532 874 532 874 475 796.5 c 128,-1,26
EndSplineSet
EndChar

StartChar: e
Encoding: 101 101 72
Width: 1290
Flags: W
LayerCount: 2
Fore
SplineSet
61 546.5 m 128,-1,1
 61 821 61 821 216 968.5 c 128,-1,2
 371 1116 371 1116 646 1116 c 128,-1,3
 921 1116 921 1116 1075 972.5 c 128,-1,4
 1229 829 1229 829 1229 561 c 2,5,-1
 1229 504 l 2,6,7
 1229 477 1229 477 1211.5 459.5 c 128,-1,8
 1194 442 1194 442 1167 442 c 2,9,-1
 414 442 l 1,10,11
 424 319 424 319 484.5 263 c 128,-1,12
 545 207 545 207 678 207 c 128,-1,13
 811 207 811 207 860 267 c 128,-1,14
 909 327 909 327 981 328 c 1,15,-1
 1130 328 l 2,16,17
 1157 328 1157 328 1174.5 310.5 c 128,-1,18
 1192 293 1192 293 1192 266 c 0,19,20
 1192 -21 1192 -21 645 -20 c 0,21,22
 369 -20 369 -20 215 126 c 128,-1,0
 61 272 61 272 61 546.5 c 128,-1,1
412 653 m 1,23,-1
 877 653 l 1,24,25
 867 889 867 889 645.5 889 c 128,-1,26
 424 889 424 889 412 653 c 1,23,-1
EndSplineSet
EndChar

StartChar: f
Encoding: 102 102 73
Width: 983
Flags: W
LayerCount: 2
Fore
SplineSet
926 1200 m 1,0,-1
 788 1217 l 1,1,2
 589 1217 589 1217 529 1163.5 c 128,-1,3
 469 1110 469 1110 469 942 c 2,4,-1
 469 926 l 1,5,-1
 831 926 l 2,6,7
 858 926 858 926 875.5 908.5 c 128,-1,8
 893 891 893 891 893 864 c 2,9,-1
 893 745 l 2,10,11
 893 718 893 718 875.5 701 c 128,-1,12
 858 684 858 684 831 684 c 2,13,-1
 469 684 l 1,14,-1
 469 61 l 2,15,16
 469 34 469 34 451.5 17 c 128,-1,17
 434 0 434 0 408 0 c 2,18,-1
 184 0 l 2,19,20
 157 0 157 0 140 17 c 128,-1,21
 123 34 123 34 123 61 c 2,22,-1
 123 942 l 2,23,24
 123 1221 123 1221 250 1337.5 c 128,-1,25
 377 1454 377 1454 696 1454 c 0,26,27
 860 1454 860 1454 925 1442 c 128,-1,28
 990 1430 990 1430 1007 1412.5 c 128,-1,29
 1024 1395 1024 1395 1024 1372 c 2,30,-1
 1024 1262 l 2,31,32
 1024 1235 1024 1235 1006.5 1217.5 c 128,-1,33
 989 1200 989 1200 963 1200 c 2,34,-1
 926 1200 l 1,0,-1
EndSplineSet
EndChar

StartChar: g
Encoding: 103 103 74
Width: 1335
Flags: W
LayerCount: 2
Fore
SplineSet
200.5 221 m 128,-1,1
 61 358 61 358 61 601 c 128,-1,2
 61 844 61 844 220 980 c 128,-1,3
 379 1116 379 1116 676 1116 c 0,4,5
 821 1116 821 1116 977 1083.5 c 128,-1,6
 1133 1051 1133 1051 1212 1004 c 1,7,-1
 1212 78 l 2,8,9
 1212 -145 1212 -145 1065 -251.5 c 128,-1,10
 918 -358 918 -358 652.5 -358 c 128,-1,11
 387 -358 387 -358 243.5 -291.5 c 128,-1,12
 100 -225 100 -225 100 -72 c 0,13,14
 100 -45 100 -45 117.5 -27.5 c 128,-1,15
 135 -10 135 -10 162 -10 c 2,16,-1
 311 -10 l 2,17,18
 383 -10 383 -10 426 -63 c 0,19,20
 481 -131 481 -131 621.5 -131 c 128,-1,21
 762 -131 762 -131 814 -85 c 128,-1,22
 866 -39 866 -39 866 78 c 2,23,-1
 866 125 l 1,24,25
 706 84 706 84 567 84 c 0,26,0
 340 84 340 84 200.5 221 c 128,-1,1
655 874 m 1,27,28
 418 875 418 875 418 600.5 c 128,-1,29
 418 326 418 326 649 326 c 0,30,31
 745 326 745 326 866 356 c 1,32,-1
 866 852 l 1,33,34
 780 875 780 875 655 874 c 1,27,28
EndSplineSet
EndChar

StartChar: h
Encoding: 104 104 75
Width: 1397
Flags: W
LayerCount: 2
Fore
SplineSet
123 61 m 2,0,-1
 123 1372 l 2,1,2
 123 1399 123 1399 140.5 1416.5 c 128,-1,3
 158 1434 158 1434 184 1434 c 2,4,-1
 408 1434 l 2,5,6
 434 1434 434 1434 451.5 1416.5 c 128,-1,7
 469 1399 469 1399 469 1372 c 2,8,-1
 469 971 l 1,9,10
 641 1116 641 1116 835.5 1116 c 128,-1,11
 1030 1116 1030 1116 1152 997.5 c 128,-1,12
 1274 879 1274 879 1274 635 c 2,13,-1
 1274 61 l 2,14,15
 1274 35 1274 35 1256.5 17.5 c 128,-1,16
 1239 0 1239 0 1212 0 c 2,17,-1
 989 0 l 2,18,19
 963 0 963 0 945.5 17.5 c 128,-1,20
 928 35 928 35 928 61 c 2,21,-1
 928 635 l 2,22,23
 928 874 928 874 737 874 c 0,24,25
 612 874 612 874 469 731 c 1,26,-1
 469 61 l 2,27,28
 469 35 469 35 451.5 17.5 c 128,-1,29
 434 0 434 0 408 0 c 2,30,-1
 184 0 l 2,31,32
 158 0 158 0 140.5 17.5 c 128,-1,33
 123 35 123 35 123 61 c 2,0,-1
EndSplineSet
EndChar

StartChar: i
Encoding: 105 105 76
Width: 600
Flags: W
LayerCount: 2
Fore
SplineSet
123 1305 m 2,0,-1
 123 1339 l 2,1,2
 123 1392 123 1392 153.5 1423 c 128,-1,3
 184 1454 184 1454 238 1454 c 2,4,-1
 362 1454 l 2,5,6
 415 1454 415 1454 446 1423.5 c 128,-1,7
 477 1393 477 1393 477 1339 c 2,8,-1
 477 1305 l 2,9,10
 477 1252 477 1252 446.5 1221 c 128,-1,11
 416 1190 416 1190 362 1190 c 2,12,-1
 238 1190 l 2,13,14
 185 1190 185 1190 154 1221 c 128,-1,15
 123 1252 123 1252 123 1305 c 2,0,-1
127 61 m 2,16,-1
 127 1010 l 2,17,18
 127 1037 127 1037 144.5 1054 c 128,-1,19
 162 1071 162 1071 188 1071 c 2,20,-1
 412 1071 l 2,21,22
 439 1071 439 1071 456 1053.5 c 128,-1,23
 473 1036 473 1036 473 1010 c 2,24,-1
 473 61 l 2,25,26
 473 34 473 34 455.5 17 c 128,-1,27
 438 0 438 0 412 0 c 2,28,-1
 188 0 l 2,29,30
 161 0 161 0 144 17 c 128,-1,31
 127 34 127 34 127 61 c 2,16,-1
EndSplineSet
EndChar

StartChar: j
Encoding: 106 106 77
Width: 616
Flags: W
LayerCount: 2
Fore
SplineSet
-92 -106 m 1,0,-1
 10 -121 l 1,1,2
 65 -121 65 -121 104 -65.5 c 128,-1,3
 143 -10 143 -10 143 113 c 2,4,-1
 143 1010 l 2,5,6
 143 1037 143 1037 160.5 1054 c 128,-1,7
 178 1071 178 1071 205 1071 c 2,8,-1
 428 1071 l 2,9,10
 455 1071 455 1071 472 1053.5 c 128,-1,11
 489 1036 489 1036 489 1010 c 2,12,-1
 489 113 l 2,13,14
 489 -358 489 -358 102 -358 c 0,15,16
 -35 -358 -35 -358 -123 -338 c 0,17,18
 -184 -324 -184 -324 -184 -276 c 2,19,-1
 -184 -168 l 2,20,21
 -184 -141 -184 -141 -167 -123.5 c 128,-1,22
 -150 -106 -150 -106 -123 -106 c 2,23,-1
 -92 -106 l 1,0,-1
139 1305 m 2,24,-1
 139 1339 l 2,25,26
 139 1392 139 1392 170 1423 c 128,-1,27
 201 1454 201 1454 254 1454 c 2,28,-1
 379 1454 l 2,29,30
 432 1454 432 1454 463 1423.5 c 128,-1,31
 494 1393 494 1393 494 1339 c 2,32,-1
 494 1305 l 2,33,34
 494 1252 494 1252 463 1221 c 128,-1,35
 432 1190 432 1190 379 1190 c 2,36,-1
 254 1190 l 2,37,38
 201 1190 201 1190 170 1221 c 128,-1,39
 139 1252 139 1252 139 1305 c 2,24,-1
EndSplineSet
EndChar

StartChar: k
Encoding: 107 107 78
Width: 1249
Flags: W
LayerCount: 2
Fore
SplineSet
1228 44 m 1,0,1
 1228 0 1228 0 1176 0 c 2,2,-1
 987 0 l 2,3,4
 891 0 891 0 834 94 c 2,5,-1
 707 301 l 2,6,7
 625 434 625 434 469 434 c 1,8,-1
 469 61 l 2,9,10
 469 34 469 34 451.5 17 c 128,-1,11
 434 0 434 0 408 0 c 2,12,-1
 184 0 l 2,13,14
 157 0 157 0 140 17 c 128,-1,15
 123 34 123 34 123 61 c 2,16,-1
 123 1372 l 2,17,18
 123 1399 123 1399 140.5 1416.5 c 128,-1,19
 158 1434 158 1434 184 1434 c 2,20,-1
 408 1434 l 2,21,22
 435 1434 435 1434 452 1416.5 c 128,-1,23
 469 1399 469 1399 469 1372 c 2,24,-1
 469 662 l 1,25,26
 643 662 643 662 707 797 c 2,27,-1
 803 1001 l 2,28,29
 823 1044 823 1044 862 1070 c 128,-1,30
 901 1096 901 1096 946 1096 c 2,31,-1
 1135 1096 l 2,32,33
 1185 1096 1185 1096 1185 1057 c 0,34,35
 1185 1035 1185 1035 1169 1001 c 2,36,-1
 1040 729 l 2,37,38
 1007 661 1007 661 950 612 c 128,-1,39
 893 563 893 563 827 549 c 1,40,41
 950 512 950 512 1040 369 c 1,42,-1
 1210 94 l 2,43,44
 1227 65 1227 65 1228 44 c 1,0,1
EndSplineSet
EndChar

StartChar: l
Encoding: 108 108 79
Width: 592
Flags: W
LayerCount: 2
Fore
SplineSet
123 61 m 2,0,-1
 123 1372 l 2,1,2
 123 1399 123 1399 140.5 1416.5 c 128,-1,3
 158 1434 158 1434 184 1434 c 2,4,-1
 408 1434 l 2,5,6
 434 1434 434 1434 451.5 1416.5 c 128,-1,7
 469 1399 469 1399 469 1372 c 2,8,-1
 469 61 l 2,9,10
 469 35 469 35 451.5 17.5 c 128,-1,11
 434 0 434 0 408 0 c 2,12,-1
 184 0 l 2,13,14
 158 0 158 0 140.5 17.5 c 128,-1,15
 123 35 123 35 123 61 c 2,0,-1
EndSplineSet
EndChar

StartChar: m
Encoding: 109 109 80
Width: 2058
Flags: W
LayerCount: 2
Fore
SplineSet
123 61 m 2,0,-1
 123 1034 l 2,1,2
 123 1061 123 1061 140.5 1078.5 c 128,-1,3
 158 1096 158 1096 184 1096 c 2,4,-1
 408 1096 l 2,5,6
 435 1096 435 1096 452 1078.5 c 128,-1,7
 469 1061 469 1061 469 1034 c 2,8,-1
 469 971 l 1,9,10
 541 1041 541 1041 610.5 1078.5 c 128,-1,11
 680 1116 680 1116 778 1116 c 0,12,13
 1011 1116 1011 1116 1131 924 c 1,14,15
 1317 1117 1317 1117 1512.5 1116.5 c 128,-1,16
 1708 1116 1708 1116 1821.5 998.5 c 128,-1,17
 1935 881 1935 881 1935 635 c 2,18,-1
 1935 61 l 2,19,20
 1935 34 1935 34 1918 17 c 128,-1,21
 1901 0 1901 0 1874 0 c 2,22,-1
 1651 0 l 2,23,24
 1624 0 1624 0 1606.5 17.5 c 128,-1,25
 1589 35 1589 35 1589 61 c 2,26,-1
 1589 635 l 2,27,28
 1589 875 1589 875 1415 874 c 0,29,30
 1309 874 1309 874 1196 721 c 1,31,32
 1202 678 1202 678 1202 635 c 2,33,-1
 1202 61 l 2,34,35
 1202 34 1202 34 1184.5 17 c 128,-1,36
 1167 0 1167 0 1141 0 c 2,37,-1
 918 0 l 2,38,39
 891 0 891 0 873.5 17.5 c 128,-1,40
 856 35 856 35 856 61 c 2,41,-1
 856 635 l 2,42,43
 856 875 856 875 682 874 c 0,44,45
 571 874 571 874 469 731 c 1,46,-1
 469 61 l 2,47,48
 469 34 469 34 451.5 17 c 128,-1,49
 434 0 434 0 408 0 c 2,50,-1
 184 0 l 2,51,52
 157 0 157 0 140 17 c 128,-1,53
 123 34 123 34 123 61 c 2,0,-1
EndSplineSet
EndChar

StartChar: n
Encoding: 110 110 81
Width: 1397
Flags: W
LayerCount: 2
Fore
SplineSet
123 61 m 2,0,-1
 123 1034 l 2,1,2
 123 1061 123 1061 140.5 1078.5 c 128,-1,3
 158 1096 158 1096 184 1096 c 2,4,-1
 408 1096 l 2,5,6
 434 1096 434 1096 451.5 1078.5 c 128,-1,7
 469 1061 469 1061 469 1034 c 2,8,-1
 469 971 l 1,9,10
 641 1116 641 1116 835.5 1116 c 128,-1,11
 1030 1116 1030 1116 1152 997.5 c 128,-1,12
 1274 879 1274 879 1274 635 c 2,13,-1
 1274 61 l 2,14,15
 1274 35 1274 35 1256.5 17.5 c 128,-1,16
 1239 0 1239 0 1212 0 c 2,17,-1
 989 0 l 2,18,19
 963 0 963 0 945.5 17.5 c 128,-1,20
 928 35 928 35 928 61 c 2,21,-1
 928 635 l 2,22,23
 928 874 928 874 737 874 c 0,24,25
 612 874 612 874 469 731 c 1,26,-1
 469 61 l 2,27,28
 469 35 469 35 451.5 17.5 c 128,-1,29
 434 0 434 0 408 0 c 2,30,-1
 184 0 l 2,31,32
 158 0 158 0 140.5 17.5 c 128,-1,33
 123 35 123 35 123 61 c 2,0,-1
EndSplineSet
EndChar

StartChar: o
Encoding: 111 111 82
Width: 1331
Flags: W
LayerCount: 2
Fore
SplineSet
61 548.5 m 128,-1,1
 61 829 61 829 217 972.5 c 128,-1,2
 373 1116 373 1116 665.5 1116 c 128,-1,3
 958 1116 958 1116 1114 972.5 c 128,-1,4
 1270 829 1270 829 1270 548.5 c 128,-1,5
 1270 268 1270 268 1114 124 c 128,-1,6
 958 -20 958 -20 665.5 -20 c 128,-1,7
 373 -20 373 -20 217 124 c 128,-1,0
 61 268 61 268 61 548.5 c 128,-1,1
408 549 m 128,-1,9
 408 371 408 371 470 289 c 128,-1,10
 532 207 532 207 665.5 207 c 128,-1,11
 799 207 799 207 861.5 289 c 128,-1,12
 924 371 924 371 924 549 c 128,-1,13
 924 727 924 727 861.5 808 c 128,-1,14
 799 889 799 889 665.5 889 c 128,-1,15
 532 889 532 889 470 808 c 128,-1,8
 408 727 408 727 408 549 c 128,-1,9
EndSplineSet
EndChar

StartChar: p
Encoding: 112 112 83
Width: 1356
Flags: W
LayerCount: 2
Fore
SplineSet
123 -276 m 2,0,-1
 123 1034 l 2,1,2
 123 1061 123 1061 140.5 1078.5 c 128,-1,3
 158 1096 158 1096 184 1096 c 2,4,-1
 377 1096 l 2,5,6
 403 1096 403 1096 420.5 1078.5 c 128,-1,7
 438 1061 438 1061 438 1034 c 2,8,-1
 438 1004 l 1,9,10
 596 1116 596 1116 805 1116 c 128,-1,11
 1014 1116 1014 1116 1154 968.5 c 128,-1,12
 1294 821 1294 821 1294 546.5 c 128,-1,13
 1294 272 1294 272 1149 126 c 128,-1,14
 1004 -20 1004 -20 758 -20 c 0,15,16
 631 -20 631 -20 469 31 c 1,17,-1
 469 -276 l 2,18,19
 469 -303 469 -303 451.5 -320.5 c 128,-1,20
 434 -338 434 -338 408 -338 c 2,21,-1
 184 -338 l 2,22,23
 158 -338 158 -338 140.5 -320.5 c 128,-1,24
 123 -303 123 -303 123 -276 c 2,0,-1
469 262 m 1,25,26
 598 221 598 221 686 221 c 0,27,28
 823 221 823 221 880.5 299 c 128,-1,29
 938 377 938 377 938 548 c 128,-1,30
 938 719 938 719 883.5 796.5 c 128,-1,31
 829 874 829 874 720.5 874 c 128,-1,32
 612 874 612 874 469 784 c 1,33,-1
 469 262 l 1,25,26
EndSplineSet
EndChar

StartChar: q
Encoding: 113 113 84
Width: 1356
Flags: W
LayerCount: 2
Fore
SplineSet
61 549 m 0,0,1
 61 1116 61 1116 696 1116 c 0,2,3
 842 1116 842 1116 997.5 1083.5 c 128,-1,4
 1153 1051 1153 1051 1233 1004 c 1,5,-1
 1233 -276 l 2,6,7
 1233 -303 1233 -303 1215.5 -320.5 c 128,-1,8
 1198 -338 1198 -338 1171 -338 c 2,9,-1
 948 -338 l 2,10,11
 922 -338 922 -338 904.5 -320.5 c 128,-1,12
 887 -303 887 -303 887 -276 c 2,13,-1
 887 31 l 1,14,15
 725 -20 725 -20 598 -20 c 0,16,17
 352 -20 352 -20 206.5 126 c 128,-1,18
 61 272 61 272 61 549 c 0,0,1
670 221 m 0,19,20
 758 221 758 221 887 262 c 1,21,-1
 887 852 l 1,22,23
 801 874 801 874 668 874 c 128,-1,24
 535 874 535 874 476.5 797.5 c 128,-1,25
 418 721 418 721 418 549 c 128,-1,26
 418 377 418 377 475 299 c 128,-1,27
 532 221 532 221 670 221 c 0,19,20
EndSplineSet
EndChar

StartChar: r
Encoding: 114 114 85
Width: 995
Flags: W
LayerCount: 2
Fore
SplineSet
881 842 m 1,0,-1
 727 848 l 1,1,2
 592 848 592 848 469 700 c 1,3,-1
 469 61 l 2,4,5
 469 34 469 34 451.5 17 c 128,-1,6
 434 0 434 0 408 0 c 2,7,-1
 184 0 l 2,8,9
 157 0 157 0 140 17 c 128,-1,10
 123 34 123 34 123 61 c 2,11,-1
 123 1034 l 2,12,13
 123 1061 123 1061 140.5 1078.5 c 128,-1,14
 158 1096 158 1096 184 1096 c 2,15,-1
 408 1096 l 2,16,17
 435 1096 435 1096 452 1078.5 c 128,-1,18
 469 1061 469 1061 469 1034 c 2,19,-1
 469 971 l 1,20,21
 571 1045 571 1045 665.5 1080.5 c 128,-1,22
 760 1116 760 1116 913 1116 c 0,23,24
 940 1116 940 1116 957.5 1098.5 c 128,-1,25
 975 1081 975 1081 975 1055 c 2,26,-1
 975 903 l 2,27,28
 975 876 975 876 957.5 859 c 128,-1,29
 940 842 940 842 913 842 c 2,30,-1
 881 842 l 1,0,-1
EndSplineSet
EndChar

StartChar: s
Encoding: 115 115 86
Width: 1225
Flags: W
LayerCount: 2
Fore
SplineSet
61 793 m 0,0,1
 61 1116 61 1116 582 1116 c 0,2,3
 1130 1116 1130 1116 1130 829 c 0,4,5
 1130 803 1130 803 1113 785.5 c 128,-1,6
 1096 768 1096 768 1069 768 c 2,7,-1
 920 768 l 2,8,9
 848 768 848 768 799 828.5 c 128,-1,10
 750 889 750 889 606 889 c 0,11,12
 408 889 408 889 408 793 c 0,13,14
 408 748 408 748 485.5 718 c 128,-1,15
 563 688 563 688 674.5 665.5 c 128,-1,16
 786 643 786 643 897 608 c 128,-1,17
 1008 573 1008 573 1085.5 496.5 c 128,-1,18
 1163 420 1163 420 1163 303 c 0,19,20
 1163 -20 1163 -20 613 -20 c 128,-1,21
 63 -20 63 -20 63 266 c 0,22,23
 63 293 63 293 80.5 310.5 c 128,-1,24
 98 328 98 328 125 328 c 2,25,-1
 274 328 l 2,26,27
 346 328 346 328 395 267.5 c 128,-1,28
 444 207 444 207 588 207 c 0,29,30
 817 207 817 207 817 303 c 0,31,32
 817 348 817 348 739.5 378 c 128,-1,33
 662 408 662 408 550 431.5 c 128,-1,34
 438 455 438 455 327.5 489.5 c 128,-1,35
 217 524 217 524 139 601 c 128,-1,36
 61 678 61 678 61 793 c 0,0,1
EndSplineSet
EndChar

StartChar: t
Encoding: 116 116 87
Width: 922
Flags: W
LayerCount: 2
Fore
SplineSet
645 217 m 1,0,-1
 782 229 l 1,1,-1
 819 229 l 2,2,3
 846 229 846 229 863.5 212 c 128,-1,4
 881 195 881 195 881 168 c 2,5,-1
 881 61 l 2,6,7
 881 39 881 39 863.5 21.5 c 128,-1,8
 846 4 846 4 819 0 c 1,9,10
 717 -20 717 -20 553 -20 c 0,11,12
 123 -20 123 -20 123 430 c 2,13,-1
 123 1372 l 2,14,15
 123 1399 123 1399 140.5 1416.5 c 128,-1,16
 158 1434 158 1434 184 1434 c 2,17,-1
 408 1434 l 2,18,19
 434 1434 434 1434 451.5 1416.5 c 128,-1,20
 469 1399 469 1399 469 1372 c 2,21,-1
 469 1038 l 1,22,-1
 748 1038 l 2,23,24
 774 1038 774 1038 791.5 1021 c 128,-1,25
 809 1004 809 1004 809 977 c 2,26,-1
 809 858 l 2,27,28
 809 831 809 831 791.5 814 c 128,-1,29
 774 797 774 797 748 797 c 2,30,-1
 469 797 l 1,31,-1
 469 430 l 2,32,33
 469 328 469 328 517 272.5 c 128,-1,34
 565 217 565 217 645 217 c 1,0,-1
EndSplineSet
EndChar

StartChar: u
Encoding: 117 117 88
Width: 1397
Flags: W
LayerCount: 2
Fore
SplineSet
123 461 m 2,0,-1
 123 1034 l 2,1,2
 123 1061 123 1061 140.5 1078.5 c 128,-1,3
 158 1096 158 1096 184 1096 c 2,4,-1
 408 1096 l 2,5,6
 434 1096 434 1096 451.5 1078.5 c 128,-1,7
 469 1061 469 1061 469 1034 c 2,8,-1
 469 461 l 2,9,10
 469 221 469 221 659 221 c 0,11,12
 784 221 784 221 928 365 c 1,13,-1
 928 1034 l 2,14,15
 928 1061 928 1061 945.5 1078.5 c 128,-1,16
 963 1096 963 1096 989 1096 c 2,17,-1
 1212 1096 l 2,18,19
 1239 1096 1239 1096 1256.5 1078.5 c 128,-1,20
 1274 1061 1274 1061 1274 1034 c 2,21,-1
 1274 61 l 2,22,23
 1274 35 1274 35 1256.5 17.5 c 128,-1,24
 1239 0 1239 0 1212 0 c 2,25,-1
 989 0 l 2,26,27
 963 0 963 0 945.5 17.5 c 128,-1,28
 928 35 928 35 928 61 c 2,29,-1
 928 125 l 1,30,31
 756 -20 756 -20 561.5 -20 c 128,-1,32
 367 -20 367 -20 245 98.5 c 128,-1,33
 123 217 123 217 123 461 c 2,0,-1
EndSplineSet
EndChar

StartChar: v
Encoding: 118 118 89
Width: 1343
Flags: W
LayerCount: 2
Fore
SplineSet
72 1096 m 2,0,-1
 264 1096 l 2,1,2
 307 1096 307 1096 345 1071.5 c 128,-1,3
 383 1047 383 1047 399 1008 c 2,4,-1
 672 385 l 1,5,-1
 944 1008 l 2,6,7
 960 1047 960 1047 998 1071.5 c 128,-1,8
 1036 1096 1036 1096 1079 1096 c 2,9,-1
 1272 1096 l 2,10,11
 1307 1096 1307 1096 1318 1070 c 0,12,13
 1323 1060 1323 1060 1322.5 1044.5 c 128,-1,14
 1322 1029 1322 1029 1313 1008 c 2,15,-1
 881 88 l 2,16,17
 863 49 863 49 824.5 24.5 c 128,-1,18
 786 0 786 0 745 0 c 2,19,-1
 598 0 l 2,20,21
 557 0 557 0 519 24.5 c 128,-1,22
 481 49 481 49 463 88 c 2,23,-1
 31 1008 l 2,24,25
 21 1030 21 1030 21 1045 c 0,26,27
 21 1096 21 1096 72 1096 c 2,0,-1
EndSplineSet
EndChar

StartChar: w
Encoding: 119 119 90
Width: 1839
Flags: W
LayerCount: 2
Fore
SplineSet
29 1008 m 2,0,1
 21 1034 21 1034 20 1051 c 1,2,3
 20 1095 20 1095 70 1096 c 1,4,-1
 256 1096 l 2,5,6
 303 1096 303 1096 340 1072.5 c 128,-1,7
 377 1049 377 1049 391 1008 c 1,8,-1
 555 469 l 1,9,-1
 717 1008 l 2,10,11
 744 1096 744 1096 831 1096 c 2,12,-1
 1008 1096 l 2,13,14
 1096 1096 1096 1096 1122 1008 c 2,15,-1
 1284 469 l 1,16,-1
 1448 1008 l 1,17,18
 1462 1049 1462 1049 1499 1072.5 c 128,-1,19
 1536 1096 1536 1096 1583 1096 c 2,20,-1
 1769 1096 l 2,21,22
 1818 1096 1818 1096 1819 1051 c 0,23,24
 1819 1033 1819 1033 1810 1008 c 2,25,-1
 1507 88 l 2,26,27
 1493 47 1493 47 1457 23.5 c 128,-1,28
 1421 0 1421 0 1380 0 c 2,29,-1
 1239 0 l 2,30,31
 1198 0 1198 0 1161 24.5 c 128,-1,32
 1124 49 1124 49 1112 88 c 2,33,-1
 920 684 l 1,34,-1
 727 88 l 2,35,36
 715 49 715 49 678 24.5 c 128,-1,37
 641 0 641 0 600 0 c 2,38,-1
 459 0 l 2,39,40
 418 0 418 0 382 23.5 c 128,-1,41
 346 47 346 47 332 88 c 2,42,-1
 29 1008 l 2,0,1
EndSplineSet
EndChar

StartChar: x
Encoding: 120 120 91
Width: 1278
Flags: W
LayerCount: 2
Fore
SplineSet
35 31 m 1,0,1
 31 41 31 41 31 55.5 c 128,-1,2
 31 70 31 70 47 88 c 1,3,-1
 395 549 l 1,4,-1
 70 1008 l 1,5,6
 38 1050 38 1050 66 1082 c 0,7,8
 78 1096 78 1096 100 1096 c 2,9,-1
 317 1096 l 2,10,11
 414 1096 414 1096 473 1008 c 2,12,-1
 639 756 l 1,13,-1
 805 1008 l 2,14,15
 864 1096 864 1096 961 1096 c 2,16,-1
 1178 1096 l 2,17,18
 1200 1096 1200 1096 1212 1082 c 0,19,20
 1240 1050 1240 1050 1208 1008 c 1,21,-1
 883 549 l 1,22,-1
 1231 88 l 1,23,24
 1247 70 1247 70 1247 54.5 c 128,-1,25
 1247 39 1247 39 1243 31 c 1,26,27
 1235 0 1235 0 1200 0 c 2,28,-1
 987 0 l 2,29,30
 895 0 895 0 831 88 c 2,31,-1
 639 348 l 1,32,-1
 446 88 l 1,33,34
 383 0 383 0 291 0 c 2,35,-1
 78 0 l 2,36,37
 43 0 43 0 35 31 c 1,0,1
EndSplineSet
EndChar

StartChar: y
Encoding: 121 121 92
Width: 1294
Flags: W
LayerCount: 2
Fore
SplineSet
336 -104 m 1,0,-1
 467 -121 l 1,1,2
 608 -121 608 -121 664 86 c 1,3,4
 494 86 494 86 380 188.5 c 128,-1,5
 266 291 266 291 184 553 c 1,6,-1
 35 1036 l 2,7,8
 32 1044 32 1044 32 1054.5 c 128,-1,9
 32 1065 32 1065 44.5 1080 c 128,-1,10
 57 1095 57 1095 82 1096 c 1,11,-1
 291 1096 l 2,12,13
 320 1096 320 1096 346.5 1076.5 c 128,-1,14
 373 1057 373 1057 381 1028 c 2,15,-1
 512 604 l 2,16,17
 561 448 561 448 611.5 388 c 128,-1,18
 662 328 662 328 731 328 c 1,19,-1
 930 1028 l 2,20,21
 938 1057 938 1057 961.5 1076.5 c 128,-1,22
 985 1096 985 1096 1014 1096 c 2,23,-1
 1225 1096 l 2,24,25
 1250 1096 1250 1096 1262 1080 c 128,-1,26
 1274 1064 1274 1064 1274 1053.5 c 128,-1,27
 1274 1043 1274 1043 1272 1036 c 2,28,-1
 1010 102 l 2,29,30
 940 -146 940 -146 836.5 -252 c 128,-1,31
 733 -358 733 -358 570 -358 c 128,-1,32
 407 -358 407 -358 339.5 -346 c 128,-1,33
 272 -334 272 -334 255 -316.5 c 128,-1,34
 238 -299 238 -299 238 -276 c 2,35,-1
 238 -166 l 2,36,37
 238 -139 238 -139 255 -121.5 c 128,-1,38
 272 -104 272 -104 299 -104 c 2,39,-1
 336 -104 l 1,0,-1
EndSplineSet
EndChar

StartChar: z
Encoding: 122 122 93
Width: 1145
Flags: W
LayerCount: 2
Fore
SplineSet
51 915 m 2,0,-1
 51 1034 l 2,1,2
 51 1061 51 1061 68.5 1078.5 c 128,-1,3
 86 1096 86 1096 113 1096 c 2,4,-1
 1024 1096 l 2,5,6
 1051 1096 1051 1096 1068 1078.5 c 128,-1,7
 1085 1061 1085 1061 1085 1034 c 2,8,-1
 1085 938 l 2,9,10
 1085 864 1085 864 1014 793 c 2,11,-1
 469 242 l 1,12,-1
 1032 242 l 2,13,14
 1059 242 1059 242 1076.5 224.5 c 128,-1,15
 1094 207 1094 207 1094 180 c 2,16,-1
 1094 61 l 2,17,18
 1094 35 1094 35 1076.5 17.5 c 128,-1,19
 1059 0 1059 0 1032 0 c 2,20,-1
 113 0 l 2,21,22
 86 0 86 0 68.5 17.5 c 128,-1,23
 51 35 51 35 51 61 c 2,24,-1
 51 158 l 2,25,26
 51 231 51 231 123 303 c 1,27,-1
 649 854 l 1,28,-1
 113 854 l 2,29,30
 86 854 86 854 68.5 871.5 c 128,-1,31
 51 889 51 889 51 915 c 2,0,-1
EndSplineSet
EndChar

StartChar: braceleft
Encoding: 123 123 94
Width: 842
Flags: W
LayerCount: 2
Fore
SplineSet
20 565 m 2,0,-1
 20 684 l 2,1,2
 20 711 20 711 37.5 728 c 128,-1,3
 55 745 55 745 82 745 c 2,4,-1
 123 745 l 2,5,6
 170 745 170 745 204 781 c 128,-1,7
 238 817 238 817 238 870 c 2,8,-1
 238 1118 l 2,9,10
 238 1323 238 1323 354.5 1419.5 c 128,-1,11
 471 1516 471 1516 662 1516 c 2,12,-1
 760 1516 l 2,13,14
 786 1516 786 1516 803.5 1498.5 c 128,-1,15
 821 1481 821 1481 821 1454 c 2,16,-1
 821 1346 l 2,17,18
 821 1319 821 1319 803.5 1301.5 c 128,-1,19
 786 1284 786 1284 760 1284 c 2,20,-1
 719 1284 l 2,21,22
 653 1284 653 1284 606 1233 c 128,-1,23
 559 1182 559 1182 559 1096 c 2,24,-1
 559 901 l 2,25,26
 559 786 559 786 496.5 714.5 c 128,-1,27
 434 643 434 643 334 625 c 1,28,29
 434 606 434 606 496.5 534.5 c 128,-1,30
 559 463 559 463 559 348 c 2,31,-1
 559 154 l 2,32,33
 559 68 559 68 606 16.5 c 128,-1,34
 653 -35 653 -35 719 -35 c 2,35,-1
 760 -35 l 2,36,37
 786 -35 786 -35 803.5 -52.5 c 128,-1,38
 821 -70 821 -70 821 -96 c 2,39,-1
 821 -205 l 2,40,41
 821 -231 821 -231 803.5 -248.5 c 128,-1,42
 786 -266 786 -266 760 -266 c 2,43,-1
 662 -266 l 2,44,45
 471 -266 471 -266 354.5 -170 c 128,-1,46
 238 -74 238 -74 238 131 c 2,47,-1
 238 379 l 2,48,49
 238 432 238 432 204 468 c 128,-1,50
 170 504 170 504 123 504 c 2,51,-1
 82 504 l 2,52,53
 55 504 55 504 37.5 521.5 c 128,-1,54
 20 539 20 539 20 565 c 2,0,-1
EndSplineSet
EndChar

StartChar: bar
Encoding: 124 124 95
Width: 633
Flags: W
LayerCount: 2
Fore
SplineSet
143 -276 m 2,0,-1
 143 1372 l 2,1,2
 143 1399 143 1399 160.5 1416.5 c 128,-1,3
 178 1434 178 1434 205 1434 c 2,4,-1
 428 1434 l 2,5,6
 455 1434 455 1434 472 1416.5 c 128,-1,7
 489 1399 489 1399 489 1372 c 2,8,-1
 489 -276 l 2,9,10
 489 -303 489 -303 472 -320.5 c 128,-1,11
 455 -338 455 -338 428 -338 c 2,12,-1
 205 -338 l 2,13,14
 178 -338 178 -338 160.5 -320.5 c 128,-1,15
 143 -303 143 -303 143 -276 c 2,0,-1
EndSplineSet
EndChar

StartChar: braceright
Encoding: 125 125 96
Width: 842
Flags: W
LayerCount: 2
Fore
SplineSet
20 -96 m 2,0,1
 20 -70 20 -70 37.5 -52.5 c 128,-1,2
 55 -35 55 -35 82 -35 c 2,3,-1
 123 -35 l 2,4,5
 188 -35 188 -35 235.5 16.5 c 128,-1,6
 283 68 283 68 283 154 c 2,7,-1
 283 348 l 2,8,9
 283 463 283 463 345.5 534.5 c 128,-1,10
 408 606 408 606 508 625 c 1,11,12
 408 643 408 643 345.5 714.5 c 128,-1,13
 283 786 283 786 283 901 c 2,14,-1
 283 1096 l 2,15,16
 283 1182 283 1182 235.5 1233 c 128,-1,17
 188 1284 188 1284 123 1284 c 2,18,-1
 82 1284 l 2,19,20
 55 1284 55 1284 37.5 1301.5 c 128,-1,21
 20 1319 20 1319 20 1346 c 2,22,-1
 20 1454 l 2,23,24
 20 1481 20 1481 37.5 1498.5 c 128,-1,25
 55 1516 55 1516 82 1516 c 2,26,-1
 180 1516 l 2,27,28
 371 1516 371 1516 487.5 1419.5 c 128,-1,29
 604 1323 604 1323 604 1118 c 2,30,-1
 604 870 l 2,31,32
 604 817 604 817 638 781 c 128,-1,33
 672 745 672 745 719 745 c 2,34,-1
 760 745 l 2,35,36
 786 745 786 745 803.5 728 c 128,-1,37
 821 711 821 711 821 684 c 2,38,-1
 821 565 l 2,39,40
 821 539 821 539 803.5 521.5 c 128,-1,41
 786 504 786 504 760 504 c 2,42,-1
 719 504 l 2,43,44
 672 504 672 504 638 468 c 128,-1,45
 604 432 604 432 604 379 c 2,46,-1
 604 131 l 2,47,48
 604 -74 604 -74 487.5 -170 c 128,-1,49
 371 -266 371 -266 180 -266 c 2,50,-1
 82 -266 l 2,51,52
 55 -266 55 -266 37.5 -248.5 c 128,-1,53
 20 -231 20 -231 20 -205 c 2,54,-1
 20 -96 l 2,0,1
EndSplineSet
EndChar

StartChar: asciitilde
Encoding: 126 126 97
Width: 1217
Flags: W
LayerCount: 2
Fore
SplineSet
61 555 m 0,0,1
 61 690 61 690 141 765 c 128,-1,2
 221 840 221 840 351 840 c 128,-1,3
 481 840 481 840 599 788.5 c 128,-1,4
 717 737 717 737 791.5 737 c 128,-1,5
 866 737 866 737 911 775 c 128,-1,6
 956 813 956 813 1006 813 c 2,7,-1
 1104 813 l 2,8,9
 1126 813 1126 813 1140.5 797.5 c 128,-1,10
 1155 782 1155 782 1155 762 c 0,11,12
 1155 627 1155 627 1075 552 c 128,-1,13
 995 477 995 477 865 477 c 128,-1,14
 735 477 735 477 617.5 528.5 c 128,-1,15
 500 580 500 580 425 580 c 128,-1,16
 350 580 350 580 305 542 c 128,-1,17
 260 504 260 504 211 504 c 2,18,-1
 113 504 l 2,19,20
 90 504 90 504 75.5 518 c 128,-1,21
 61 532 61 532 61 555 c 0,0,1
EndSplineSet
EndChar

StartChar: exclamdown
Encoding: 161 161 99
Width: 653
Flags: W
LayerCount: 2
Fore
SplineSet
125 -244 m 2,0,-1
 154 578 l 2,1,2
 156 617 156 617 182.5 643.5 c 128,-1,3
 209 670 209 670 248 670 c 2,4,-1
 405 670 l 2,5,6
 444 670 444 670 471 643 c 128,-1,7
 498 616 498 616 500 578 c 2,8,-1
 528 -244 l 2,9,10
 530 -283 530 -283 501.5 -310.5 c 128,-1,11
 473 -338 473 -338 434 -338 c 2,12,-1
 219 -338 l 2,13,14
 180 -338 180 -338 151.5 -310.5 c 128,-1,15
 123 -283 123 -283 125 -244 c 2,0,-1
131 907 m 2,16,-1
 131 971 l 2,17,18
 131 1037 131 1037 166 1071.5 c 128,-1,19
 201 1106 201 1106 266 1106 c 2,20,-1
 389 1106 l 2,21,22
 455 1106 455 1106 489.5 1071 c 128,-1,23
 524 1036 524 1036 524 971 c 2,24,-1
 524 907 l 2,25,26
 524 844 524 844 489.5 808 c 128,-1,27
 455 772 455 772 389 772 c 2,28,-1
 266 772 l 2,29,30
 200 772 200 772 165.5 808 c 128,-1,31
 131 844 131 844 131 907 c 2,16,-1
EndSplineSet
EndChar

StartChar: cent
Encoding: 162 162 100
Width: 1272
Flags: W
LayerCount: 2
Fore
SplineSet
61 547 m 0,0,1
 61 776 61 776 166.5 916.5 c 128,-1,2
 272 1057 272 1057 471 1098 c 1,3,-1
 471 1188 l 2,4,5
 471 1214 471 1214 488.5 1231.5 c 128,-1,6
 506 1249 506 1249 532 1249 c 2,7,-1
 756 1249 l 2,8,9
 782 1249 782 1249 799.5 1231.5 c 128,-1,10
 817 1214 817 1214 817 1188 c 2,11,-1
 817 1106 l 1,12,13
 1012 1083 1012 1083 1116.5 997 c 128,-1,14
 1221 911 1221 911 1221 768 c 0,15,16
 1221 741 1221 741 1203.5 724 c 128,-1,17
 1186 707 1186 707 1159 707 c 2,18,-1
 1010 707 l 2,19,20
 942 707 942 707 895 780 c 1,21,22
 836 874 836 874 686.5 874 c 128,-1,23
 537 874 537 874 477.5 797.5 c 128,-1,24
 418 721 418 721 418 548 c 128,-1,25
 418 375 418 375 479.5 298 c 128,-1,26
 541 221 541 221 693.5 221 c 128,-1,27
 846 221 846 221 905 315 c 0,28,29
 952 389 952 389 1020 389 c 2,30,-1
 1169 389 l 2,31,32
 1196 389 1196 389 1213.5 371.5 c 128,-1,33
 1231 354 1231 354 1231 328 c 0,34,35
 1231 180 1231 180 1123.5 95 c 128,-1,36
 1016 10 1016 10 817 -12 c 1,37,-1
 817 -92 l 2,38,39
 817 -119 817 -119 799.5 -136.5 c 128,-1,40
 782 -154 782 -154 756 -154 c 2,41,-1
 532 -154 l 2,42,43
 506 -154 506 -154 488.5 -136.5 c 128,-1,44
 471 -119 471 -119 471 -92 c 2,45,-1
 471 -2 l 1,46,47
 61 86 61 86 61 547 c 0,0,1
EndSplineSet
EndChar

StartChar: sterling
Encoding: 163 163 101
Width: 1311
Flags: W
LayerCount: 2
Fore
SplineSet
1049 1200 m 1,0,-1
 911 1217 l 1,1,2
 713 1217 713 1217 652.5 1163.5 c 128,-1,3
 592 1110 592 1110 592 942 c 2,4,-1
 592 885 l 1,5,-1
 893 885 l 2,6,7
 920 885 920 885 937 867.5 c 128,-1,8
 954 850 954 850 954 823 c 2,9,-1
 954 705 l 2,10,11
 954 678 954 678 937 660.5 c 128,-1,12
 920 643 920 643 893 643 c 2,13,-1
 592 643 l 1,14,-1
 592 492 l 2,15,16
 592 432 592 432 576.5 375.5 c 128,-1,17
 561 319 561 319 547 293 c 2,18,-1
 532 266 l 1,19,-1
 1196 266 l 2,20,21
 1235 266 1235 266 1262.5 238.5 c 128,-1,22
 1290 211 1290 211 1290 172 c 2,23,-1
 1290 94 l 2,24,25
 1290 55 1290 55 1262.5 27.5 c 128,-1,26
 1235 0 1235 0 1196 0 c 2,27,-1
 82 0 l 1,28,29
 20 14 20 14 20 61 c 2,30,-1
 20 176 l 2,31,32
 20 203 20 203 37.5 220.5 c 128,-1,33
 55 238 55 238 82 238 c 2,34,-1
 113 238 l 2,35,36
 168 238 168 238 207 293 c 128,-1,37
 246 348 246 348 246 471 c 2,38,-1
 246 942 l 2,39,40
 246 1221 246 1221 373 1337.5 c 128,-1,41
 500 1454 500 1454 819 1454 c 0,42,43
 983 1454 983 1454 1085 1434 c 1,44,45
 1112 1430 1112 1430 1129.5 1412.5 c 128,-1,46
 1147 1395 1147 1395 1147 1372 c 2,47,-1
 1147 1262 l 2,48,49
 1147 1235 1147 1235 1129.5 1217.5 c 128,-1,50
 1112 1200 1112 1200 1085 1200 c 2,51,-1
 1049 1200 l 1,0,-1
EndSplineSet
EndChar

StartChar: currency
Encoding: 164 164 102
Width: 1683
Flags: W
LayerCount: 2
Fore
SplineSet
1662 44 m 0,0,1
 1662 0 1662 0 1610 0 c 2,2,-1
 1370 0 l 2,3,4
 1331 0 1331 0 1286 27.5 c 128,-1,5
 1241 55 1241 55 1217 94 c 2,6,-1
 1047 360 l 2,7,8
 943 524 943 524 793 524 c 2,9,-1
 549 524 l 1,10,-1
 549 94 l 2,11,12
 549 55 549 55 521.5 27.5 c 128,-1,13
 494 0 494 0 455 0 c 2,14,-1
 266 0 l 2,15,16
 227 0 227 0 199.5 27.5 c 128,-1,17
 172 55 172 55 172 94 c 2,18,-1
 172 528 l 1,19,-1
 82 528 l 2,20,21
 55 528 55 528 37.5 545.5 c 128,-1,22
 20 563 20 563 20 590 c 2,23,-1
 20 625 l 1,24,-1
 1235 625 l 1,25,26
 1294 602 1294 602 1349.5 537.5 c 128,-1,27
 1405 473 1405 473 1475 362 c 2,28,-1
 1645 94 l 1,29,30
 1662 65 1662 65 1662 44 c 0,0,1
20 672 m 1,31,-1
 20 707 l 2,32,33
 20 734 20 734 37.5 751 c 128,-1,34
 55 768 55 768 82 768 c 2,35,-1
 172 768 l 1,36,-1
 172 1339 l 2,37,38
 172 1378 172 1378 198.5 1406 c 128,-1,39
 225 1434 225 1434 264 1434 c 2,40,-1
 1090 1434 l 2,41,42
 1317 1434 1317 1434 1464.5 1320 c 128,-1,43
 1612 1206 1612 1206 1612 1020 c 0,44,45
 1612 870 1612 870 1508.5 785 c 128,-1,46
 1405 700 1405 700 1235 672 c 1,47,-1
 20 672 l 1,31,-1
549 807 m 1,48,-1
 975 807 l 2,49,50
 1077 807 1077 807 1156 848 c 128,-1,51
 1235 889 1235 889 1235 979 c 128,-1,52
 1235 1069 1235 1069 1156 1110 c 128,-1,53
 1077 1151 1077 1151 975 1151 c 2,54,-1
 549 1151 l 1,55,-1
 549 807 l 1,48,-1
EndSplineSet
EndChar

StartChar: yen
Encoding: 165 165 103
Width: 1520
Flags: W
LayerCount: 2
Fore
SplineSet
20 1386 m 0,0,1
 20 1434 20 1434 72 1434 c 2,2,-1
 262 1434 l 2,3,4
 375 1434 375 1434 436 1339 c 2,5,-1
 760 840 l 1,6,-1
 1083 1339 l 2,7,8
 1145 1434 1145 1434 1257 1434 c 2,9,-1
 1448 1434 l 2,10,11
 1499 1434 1499 1434 1499 1386 c 0,12,13
 1499 1364 1499 1364 1483 1339 c 2,14,-1
 1053 676 l 1,15,-1
 1180 676 l 2,16,17
 1206 676 1206 676 1223.5 658.5 c 128,-1,18
 1241 641 1241 641 1241 614 c 2,19,-1
 1241 567 l 1,20,-1
 983 567 l 1,21,-1
 948 512 l 1,22,-1
 1241 512 l 1,23,-1
 1241 465 l 2,24,25
 1241 438 1241 438 1223.5 420.5 c 128,-1,26
 1206 403 1206 403 1180 403 c 2,27,-1
 948 403 l 1,28,-1
 948 92 l 2,29,30
 948 53 948 53 920.5 26.5 c 128,-1,31
 893 0 893 0 854 0 c 2,32,-1
 666 0 l 2,33,34
 627 0 627 0 599 26.5 c 128,-1,35
 571 53 571 53 571 92 c 2,36,-1
 571 403 l 1,37,-1
 340 403 l 2,38,39
 313 403 313 403 296 420.5 c 128,-1,40
 279 438 279 438 279 465 c 2,41,-1
 279 512 l 1,42,-1
 571 512 l 1,43,-1
 535 567 l 1,44,-1
 279 567 l 1,45,-1
 279 614 l 2,46,47
 279 641 279 641 296 658.5 c 128,-1,48
 313 676 313 676 340 676 c 2,49,-1
 465 676 l 1,50,-1
 37 1339 l 2,51,52
 20 1364 20 1364 20 1386 c 0,0,1
EndSplineSet
EndChar

StartChar: brokenbar
Encoding: 166 166 104
Width: 592
Flags: W
LayerCount: 2
Fore
SplineSet
123 -276 m 2,0,-1
 123 420 l 2,1,2
 123 446 123 446 140.5 463.5 c 128,-1,3
 158 481 158 481 184 481 c 2,4,-1
 408 481 l 2,5,6
 434 481 434 481 451.5 463.5 c 128,-1,7
 469 446 469 446 469 420 c 2,8,-1
 469 -276 l 2,9,10
 469 -303 469 -303 451.5 -320.5 c 128,-1,11
 434 -338 434 -338 408 -338 c 2,12,-1
 184 -338 l 2,13,14
 158 -338 158 -338 140.5 -320.5 c 128,-1,15
 123 -303 123 -303 123 -276 c 2,0,-1
123 676 m 2,16,-1
 123 1372 l 2,17,18
 123 1399 123 1399 140.5 1416.5 c 128,-1,19
 158 1434 158 1434 184 1434 c 2,20,-1
 408 1434 l 2,21,22
 434 1434 434 1434 451.5 1416.5 c 128,-1,23
 469 1399 469 1399 469 1372 c 2,24,-1
 469 676 l 2,25,26
 469 649 469 649 451.5 631.5 c 128,-1,27
 434 614 434 614 408 614 c 2,28,-1
 184 614 l 2,29,30
 158 614 158 614 140.5 631.5 c 128,-1,31
 123 649 123 649 123 676 c 2,16,-1
EndSplineSet
EndChar

StartChar: section
Encoding: 167 167 105
Width: 1286
Flags: W
LayerCount: 2
Fore
SplineSet
82 588 m 0,0,1
 82 756 82 756 203 852 c 1,2,3
 103 946 103 946 102 1079 c 1,4,5
 102 1454 102 1454 642 1454 c 128,-1,6
 1182 1454 1182 1454 1182 1167 c 0,7,8
 1182 1140 1182 1140 1164.5 1123 c 128,-1,9
 1147 1106 1147 1106 1120 1106 c 2,10,-1
 971 1106 l 2,11,12
 899 1106 899 1106 850 1166.5 c 128,-1,13
 801 1227 801 1227 674 1227 c 128,-1,14
 547 1227 547 1227 498 1195 c 128,-1,15
 449 1163 449 1163 449 1100 c 128,-1,16
 449 1037 449 1037 505 999 c 128,-1,17
 561 961 561 961 645 940.5 c 128,-1,18
 729 920 729 920 826.5 887 c 128,-1,19
 924 854 924 854 1008 814 c 128,-1,20
 1092 774 1092 774 1148 695 c 128,-1,21
 1204 616 1204 616 1204 508 c 0,22,23
 1204 340 1204 340 1083 242 c 1,24,25
 1183 148 1183 148 1184 16 c 1,26,27
 1184 -359 1184 -359 644 -358.5 c 128,-1,28
 104 -358 104 -358 104 -72 c 0,29,30
 104 -45 104 -45 121.5 -27.5 c 128,-1,31
 139 -10 139 -10 166 -10 c 2,32,-1
 315 -10 l 2,33,34
 387 -10 387 -10 436 -70.5 c 128,-1,35
 485 -131 485 -131 612 -131 c 128,-1,36
 739 -131 739 -131 788.5 -99.5 c 128,-1,37
 838 -68 838 -68 838 -4.5 c 128,-1,38
 838 59 838 59 781.5 97 c 128,-1,39
 725 135 725 135 641 155.5 c 128,-1,40
 557 176 557 176 459.5 209 c 128,-1,41
 362 242 362 242 278.5 282 c 128,-1,42
 195 322 195 322 138.5 400.5 c 128,-1,43
 82 479 82 479 82 588 c 0,0,1
428 588 m 0,44,45
 428 531 428 531 508 492 c 1,46,47
 583 457 583 457 693 423 c 2,48,-1
 801 389 l 1,49,50
 858 420 858 420 858 508 c 0,51,52
 858 549 858 549 826.5 571.5 c 128,-1,53
 795 594 795 594 772 606 c 0,54,55
 717 634 717 634 641 656 c 1,56,-1
 483 707 l 1,57,58
 428 672 428 672 428 588 c 0,44,45
EndSplineSet
EndChar

StartChar: dieresis
Encoding: 168 168 106
Width: 827
Flags: W
LayerCount: 2
Fore
SplineSet
0 1300 m 2,0,-1
 0 1339 l 2,1,2
 0 1392 0 1392 30.5 1423 c 128,-1,3
 61 1454 61 1454 115 1454 c 2,4,-1
 211 1454 l 2,5,6
 264 1454 264 1454 295 1423.5 c 128,-1,7
 326 1393 326 1393 326 1339 c 2,8,-1
 326 1300 l 2,9,10
 326 1247 326 1247 295 1216.5 c 128,-1,11
 264 1186 264 1186 211 1186 c 2,12,-1
 115 1186 l 2,13,14
 62 1186 62 1186 31 1216.5 c 128,-1,15
 0 1247 0 1247 0 1300 c 2,0,-1
502 1300 m 2,16,-1
 502 1339 l 2,17,18
 502 1392 502 1392 532.5 1423 c 128,-1,19
 563 1454 563 1454 616 1454 c 2,20,-1
 713 1454 l 2,21,22
 766 1454 766 1454 796.5 1423.5 c 128,-1,23
 827 1393 827 1393 827 1339 c 2,24,-1
 827 1300 l 2,25,26
 827 1247 827 1247 796.5 1216.5 c 128,-1,27
 766 1186 766 1186 713 1186 c 2,28,-1
 616 1186 l 2,29,30
 563 1186 563 1186 532.5 1216.5 c 128,-1,31
 502 1247 502 1247 502 1300 c 2,16,-1
EndSplineSet
EndChar

StartChar: copyright
Encoding: 169 169 107
Width: 1741
Flags: W
LayerCount: 2
Fore
SplineSet
279 68 m 1,0,1
 61 281 61 281 61 655.5 c 128,-1,2
 61 1030 61 1030 279.5 1242 c 128,-1,3
 498 1454 498 1454 870.5 1454 c 128,-1,4
 1243 1454 1243 1454 1461 1242 c 128,-1,5
 1679 1030 1679 1030 1679 655.5 c 128,-1,6
 1679 281 1679 281 1461 69 c 128,-1,7
 1243 -143 1243 -143 870.5 -143 c 128,-1,8
 498 -143 498 -143 279 68 c 1,0,1
870.5 1239 m 128,-1,10
 604 1239 604 1239 457.5 1081.5 c 128,-1,11
 311 924 311 924 311 655.5 c 128,-1,12
 311 387 311 387 457.5 229.5 c 128,-1,13
 604 72 604 72 870.5 72 c 128,-1,14
 1137 72 1137 72 1283.5 229.5 c 128,-1,15
 1430 387 1430 387 1430 655.5 c 128,-1,16
 1430 924 1430 924 1283.5 1081.5 c 128,-1,9
 1137 1239 1137 1239 870.5 1239 c 128,-1,10
1239 512 m 0,17,18
 1239 287 1239 287 872 287 c 0,19,20
 682 287 682 287 581.5 380 c 128,-1,21
 481 473 481 473 481 654.5 c 128,-1,22
 481 836 481 836 581.5 930 c 128,-1,23
 682 1024 682 1024 861 1024 c 128,-1,24
 1040 1024 1040 1024 1136.5 966.5 c 128,-1,25
 1233 909 1233 909 1233 797 c 0,26,27
 1233 780 1233 780 1220.5 769 c 128,-1,28
 1208 758 1208 758 1192 758 c 2,29,-1
 1096 758 l 2,30,31
 1053 758 1053 758 1022 805 c 1,32,33
 985 866 985 866 886.5 866 c 128,-1,34
 788 866 788 866 750.5 816 c 128,-1,35
 713 766 713 766 713 653.5 c 128,-1,36
 713 541 713 541 752 491.5 c 128,-1,37
 791 442 791 442 890 442 c 128,-1,38
 989 442 989 442 1023 497.5 c 128,-1,39
 1057 553 1057 553 1102 553 c 2,40,-1
 1200 553 l 2,41,42
 1217 553 1217 553 1228 540.5 c 128,-1,43
 1239 528 1239 528 1239 512 c 0,17,18
EndSplineSet
EndChar

StartChar: ordfeminine
Encoding: 170 170 108
Width: 731
Flags: W
LayerCount: 2
Fore
SplineSet
41 991 m 0,0,1
 41 1184 41 1184 307 1184 c 2,2,-1
 502 1184 l 1,3,-1
 502 1200 l 2,4,5
 502 1241 502 1241 477.5 1266.5 c 128,-1,6
 453 1292 453 1292 410 1292 c 2,7,-1
 350 1292 l 2,8,9
 284 1292 284 1292 246 1257 c 1,10,11
 206 1217 206 1217 174 1217 c 2,12,-1
 113 1217 l 2,13,14
 99 1217 99 1217 83.5 1228 c 128,-1,15
 68 1239 68 1239 68 1266 c 0,16,17
 68 1336 68 1336 156 1387 c 128,-1,18
 244 1438 244 1438 342 1438 c 2,19,-1
 403 1438 l 2,20,21
 540 1438 540 1438 615 1371.5 c 128,-1,22
 690 1305 690 1305 690 1202 c 2,23,-1
 690 842 l 2,24,25
 690 826 690 826 678 813.5 c 128,-1,26
 666 801 666 801 647 801 c 2,27,-1
 543 801 l 2,28,29
 527 801 527 801 514.5 812 c 128,-1,30
 502 823 502 823 502 842 c 2,31,-1
 502 870 l 1,32,33
 426 798 426 798 317 799 c 1,34,-1
 287 799 l 2,35,36
 185 799 185 799 113 843 c 128,-1,37
 41 887 41 887 41 991 c 0,0,1
238 991.5 m 128,-1,39
 238 934 238 934 301 934 c 2,40,-1
 348 934 l 2,41,42
 446 934 446 934 502 993 c 1,43,-1
 502 1049 l 1,44,-1
 301 1049 l 2,45,38
 238 1049 238 1049 238 991.5 c 128,-1,39
EndSplineSet
EndChar

StartChar: guillemotleft
Encoding: 171 171 109
Width: 1020
Flags: W
LayerCount: 2
Fore
SplineSet
41 537 m 2,0,-1
 41 586 l 2,1,2
 41 627 41 627 80 678 c 2,3,-1
 285 940 l 2,4,5
 319 985 319 985 367 985 c 2,6,-1
 489 985 l 2,7,8
 520 985 520 985 526 961.5 c 128,-1,9
 532 938 532 938 510 903 c 2,10,-1
 301 561 l 1,11,-1
 510 219 l 2,12,13
 532 184 532 184 526 160.5 c 128,-1,14
 520 137 520 137 489 137 c 2,15,-1
 367 137 l 2,16,17
 319 137 319 137 285 182 c 2,18,-1
 80 444 l 1,19,20
 41 496 41 496 41 537 c 2,0,-1
940 985 m 2,21,22
 979 985 979 985 979 950 c 0,23,24
 979 932 979 932 961 903 c 2,25,-1
 752 561 l 1,26,-1
 961 219 l 1,27,28
 979 193 979 193 979 179.5 c 128,-1,29
 979 166 979 166 977 162 c 1,30,31
 971 137 971 137 940 137 c 2,32,-1
 817 137 l 2,33,34
 770 137 770 137 735 182 c 2,35,-1
 530 444 l 1,36,37
 492 496 492 496 492 537 c 2,38,-1
 492 586 l 2,39,40
 492 627 492 627 530 678 c 1,41,-1
 735 940 l 2,42,43
 770 985 770 985 817 985 c 2,44,-1
 940 985 l 2,21,22
EndSplineSet
EndChar

StartChar: logicalnot
Encoding: 172 172 110
Width: 1157
Flags: W
LayerCount: 2
Fore
SplineSet
41 795 m 2,0,-1
 41 848 l 2,1,2
 41 887 41 887 68.5 914.5 c 128,-1,3
 96 942 96 942 135 942 c 2,4,-1
 1022 942 l 2,5,6
 1061 942 1061 942 1088.5 915.5 c 128,-1,7
 1116 889 1116 889 1116 850 c 2,8,-1
 1116 502 l 2,9,10
 1116 461 1116 461 1088.5 433.5 c 128,-1,11
 1061 406 1061 406 1022 406 c 2,12,-1
 936 406 l 2,13,14
 897 406 897 406 869.5 433.5 c 128,-1,15
 842 461 842 461 842 502 c 2,16,-1
 842 700 l 1,17,-1
 135 700 l 2,18,19
 96 700 96 700 68.5 728 c 128,-1,20
 41 756 41 756 41 795 c 2,0,-1
EndSplineSet
EndChar

StartChar: uni00AD
Encoding: 173 173 111
Width: 958
Flags: W
LayerCount: 2
Fore
SplineSet
41 569 m 2,0,-1
 41 688 l 2,1,2
 41 715 41 715 58.5 732.5 c 128,-1,3
 76 750 76 750 102 750 c 2,4,-1
 856 750 l 2,5,6
 883 750 883 750 900.5 732.5 c 128,-1,7
 918 715 918 715 918 688 c 2,8,-1
 918 569 l 2,9,10
 918 542 918 542 900.5 525 c 128,-1,11
 883 508 883 508 856 508 c 2,12,-1
 102 508 l 2,13,14
 75 508 75 508 58 525 c 128,-1,15
 41 542 41 542 41 569 c 2,0,-1
EndSplineSet
EndChar

StartChar: registered
Encoding: 174 174 112
Width: 1741
Flags: W
LayerCount: 2
Fore
SplineSet
279 68 m 1,0,1
 61 281 61 281 61 655.5 c 128,-1,2
 61 1030 61 1030 279.5 1242 c 128,-1,3
 498 1454 498 1454 870.5 1454 c 128,-1,4
 1243 1454 1243 1454 1461 1242 c 128,-1,5
 1679 1030 1679 1030 1679 655.5 c 128,-1,6
 1679 281 1679 281 1461 69 c 128,-1,7
 1243 -143 1243 -143 870.5 -143 c 128,-1,8
 498 -143 498 -143 279 68 c 1,0,1
870.5 1239 m 128,-1,10
 604 1239 604 1239 457.5 1081.5 c 128,-1,11
 311 924 311 924 311 655.5 c 128,-1,12
 311 387 311 387 457.5 229.5 c 128,-1,13
 604 72 604 72 870.5 72 c 128,-1,14
 1137 72 1137 72 1283.5 229.5 c 128,-1,15
 1430 387 1430 387 1430 655.5 c 128,-1,16
 1430 924 1430 924 1283.5 1081.5 c 128,-1,9
 1137 1239 1137 1239 870.5 1239 c 128,-1,10
514 336 m 2,17,-1
 514 979 l 2,18,19
 514 999 514 999 528.5 1012.5 c 128,-1,20
 543 1026 543 1026 563 1026 c 2,21,-1
 995 1026 l 2,22,23
 1114 1026 1114 1026 1191 962.5 c 128,-1,24
 1268 899 1268 899 1268 793 c 0,25,26
 1268 641 1268 641 1071 604 c 1,27,28
 1124 584 1124 584 1190 485 c 1,29,-1
 1286 336 l 1,30,31
 1296 317 1296 317 1296 305 c 0,32,33
 1296 287 1296 287 1268 287 c 2,34,-1
 1143 287 l 2,35,36
 1092 287 1092 287 1061 336 c 2,37,-1
 973 473 l 2,38,39
 918 557 918 557 840 557 c 2,40,-1
 711 557 l 1,41,-1
 711 336 l 2,42,43
 711 315 711 315 696.5 301 c 128,-1,44
 682 287 682 287 662 287 c 2,45,-1
 563 287 l 2,46,47
 543 287 543 287 528.5 301 c 128,-1,48
 514 315 514 315 514 336 c 2,17,-1
711 702 m 1,49,-1
 934 702 l 2,50,51
 989 702 989 702 1030 723.5 c 128,-1,52
 1071 745 1071 745 1071 792.5 c 128,-1,53
 1071 840 1071 840 1030 860.5 c 128,-1,54
 989 881 989 881 934 881 c 2,55,-1
 711 881 l 1,56,-1
 711 702 l 1,49,-1
EndSplineSet
EndChar

StartChar: degree
Encoding: 176 176 113
Width: 819
Flags: W
LayerCount: 2
Fore
SplineSet
61 1122.5 m 128,-1,1
 61 1276 61 1276 160.5 1365 c 128,-1,2
 260 1454 260 1454 409.5 1454 c 128,-1,3
 559 1454 559 1454 658.5 1365 c 128,-1,4
 758 1276 758 1276 758 1122.5 c 128,-1,5
 758 969 758 969 658.5 880 c 128,-1,6
 559 791 559 791 409.5 791 c 128,-1,7
 260 791 260 791 160.5 880 c 128,-1,0
 61 969 61 969 61 1122.5 c 128,-1,1
274 1122 m 128,-1,9
 274 1044 274 1044 311 1000 c 128,-1,10
 348 956 348 956 409.5 956 c 128,-1,11
 471 956 471 956 508 1000 c 128,-1,12
 545 1044 545 1044 545 1122 c 128,-1,13
 545 1200 545 1200 508 1244 c 128,-1,14
 471 1288 471 1288 409.5 1288 c 128,-1,15
 348 1288 348 1288 311 1244 c 128,-1,8
 274 1200 274 1200 274 1122 c 128,-1,9
EndSplineSet
EndChar

StartChar: plusminus
Encoding: 177 177 114
Width: 958
Flags: W
LayerCount: 2
Fore
SplineSet
41 657 m 2,0,-1
 41 776 l 2,1,2
 41 803 41 803 58.5 820.5 c 128,-1,3
 76 838 76 838 102 838 c 2,4,-1
 352 838 l 1,5,-1
 352 1087 l 2,6,7
 352 1114 352 1114 369.5 1131.5 c 128,-1,8
 387 1149 387 1149 414 1149 c 2,9,-1
 532 1149 l 2,10,11
 559 1149 559 1149 576.5 1131.5 c 128,-1,12
 594 1114 594 1114 594 1087 c 2,13,-1
 594 838 l 1,14,-1
 856 838 l 2,15,16
 883 838 883 838 900.5 820.5 c 128,-1,17
 918 803 918 803 918 776 c 2,18,-1
 918 657 l 2,19,20
 918 630 918 630 900.5 613 c 128,-1,21
 883 596 883 596 856 596 c 2,22,-1
 594 596 l 1,23,-1
 594 414 l 1,24,-1
 856 414 l 2,25,26
 883 414 883 414 900.5 396.5 c 128,-1,27
 918 379 918 379 918 352 c 2,28,-1
 918 233 l 2,29,30
 918 206 918 206 900.5 189 c 128,-1,31
 883 172 883 172 856 172 c 2,32,-1
 102 172 l 2,33,34
 75 172 75 172 58 189.5 c 128,-1,35
 41 207 41 207 41 233 c 2,36,-1
 41 352 l 2,37,38
 41 379 41 379 58.5 396.5 c 128,-1,39
 76 414 76 414 102 414 c 2,40,-1
 352 414 l 1,41,-1
 352 596 l 1,42,-1
 102 596 l 2,43,44
 75 596 75 596 58 613 c 128,-1,45
 41 630 41 630 41 657 c 2,0,-1
EndSplineSet
EndChar

StartChar: uni00B2
Encoding: 178 178 115
Width: 705
Flags: W
LayerCount: 2
Fore
SplineSet
41 842 m 2,0,-1
 41 905 l 2,1,2
 41 971 41 971 72.5 1018 c 128,-1,3
 104 1065 104 1065 153.5 1088.5 c 128,-1,4
 203 1112 203 1112 258 1130.5 c 128,-1,5
 313 1149 313 1149 362 1159 c 0,6,7
 475 1182 475 1182 475 1227 c 0,8,9
 475 1292 475 1292 365 1292 c 2,10,-1
 332 1292 l 2,11,12
 246 1292 246 1292 222.5 1244 c 128,-1,13
 199 1196 199 1196 160 1196 c 2,14,-1
 86 1196 l 2,15,16
 72 1196 72 1196 56.5 1207.5 c 128,-1,17
 41 1219 41 1219 41 1245 c 0,18,19
 41 1333 41 1333 127 1385.5 c 128,-1,20
 213 1438 213 1438 317 1438 c 2,21,-1
 377 1438 l 2,22,23
 664 1438 664 1438 664 1227 c 0,24,25
 664 1147 664 1147 599.5 1099 c 128,-1,26
 535 1051 535 1051 456 1036.5 c 128,-1,27
 377 1022 377 1022 312.5 1000.5 c 128,-1,28
 248 979 248 979 248 946 c 1,29,-1
 614 946 l 2,30,31
 633 946 633 946 645 934 c 128,-1,32
 657 922 657 922 657 903 c 2,33,-1
 657 842 l 2,34,35
 657 825 657 825 645 813 c 128,-1,36
 633 801 633 801 614 801 c 2,37,-1
 84 801 l 2,38,39
 66 801 66 801 53.5 813 c 128,-1,40
 41 825 41 825 41 842 c 2,0,-1
EndSplineSet
EndChar

StartChar: uni00B3
Encoding: 179 179 116
Width: 717
Flags: W
LayerCount: 2
Fore
SplineSet
41 979 m 0,0,1
 41 1006 41 1006 56.5 1017 c 128,-1,2
 72 1028 72 1028 86 1028 c 2,3,-1
 147 1028 l 2,4,5
 176 1028 176 1028 196.5 1003.5 c 128,-1,6
 217 979 217 979 219 977 c 0,7,8
 250 942 250 942 324 942 c 2,9,-1
 395 942 l 2,10,11
 489 942 489 942 489 989 c 0,12,13
 489 1026 489 1026 464.5 1036.5 c 128,-1,14
 440 1047 440 1047 383 1047 c 2,15,-1
 303 1047 l 2,16,17
 287 1047 287 1047 274.5 1059 c 128,-1,18
 262 1071 262 1071 262 1090 c 2,19,-1
 262 1143 l 2,20,21
 262 1159 262 1159 274.5 1172.5 c 128,-1,22
 287 1186 287 1186 303 1186 c 2,23,-1
 387 1186 l 2,24,25
 479 1186 479 1186 479 1239 c 128,-1,26
 479 1292 479 1292 387 1292 c 2,27,-1
 328 1292 l 2,28,29
 254 1292 254 1292 223 1257 c 1,30,31
 211 1245 211 1245 203 1235 c 128,-1,32
 195 1225 195 1225 186 1218 c 0,33,34
 170 1206 170 1206 152 1206 c 2,35,-1
 90 1206 l 2,36,37
 76 1206 76 1206 60.5 1217.5 c 128,-1,38
 45 1229 45 1229 45 1255 c 0,39,40
 45 1331 45 1331 133 1384.5 c 128,-1,41
 221 1438 221 1438 319 1438 c 2,42,-1
 381 1438 l 2,43,44
 668 1438 668 1438 668 1243 c 0,45,46
 668 1163 668 1163 594 1116 c 1,47,48
 676 1075 676 1075 676 989 c 0,49,50
 676 797 676 797 389 797 c 2,51,-1
 315 797 l 2,52,53
 217 797 217 797 129 850 c 128,-1,54
 41 903 41 903 41 979 c 0,0,1
EndSplineSet
EndChar

StartChar: acute
Encoding: 180 180 117
Width: 373
Flags: W
LayerCount: 2
Fore
SplineSet
8 1661 m 2,0,-1
 57 1849 l 1,1,2
 96 1964 96 1964 188 1964 c 2,3,-1
 279 1964 l 2,4,5
 344 1964 344 1964 365 1921 c 1,6,7
 373 1907 373 1907 373 1883.5 c 128,-1,8
 373 1860 373 1860 352 1829 c 1,9,-1
 244 1640 l 1,10,11
 188 1546 188 1546 121 1546 c 2,12,-1
 74 1546 l 2,13,14
 0 1546 0 1546 0 1612 c 0,15,16
 0 1632 0 1632 8 1661 c 2,0,-1
EndSplineSet
EndChar

StartChar: uni00B5
Encoding: 181 181 118
Width: 1397
Flags: W
LayerCount: 2
Fore
SplineSet
123 -276 m 2,0,-1
 123 1034 l 2,1,2
 123 1061 123 1061 140.5 1078.5 c 128,-1,3
 158 1096 158 1096 184 1096 c 2,4,-1
 408 1096 l 2,5,6
 434 1096 434 1096 451.5 1078.5 c 128,-1,7
 469 1061 469 1061 469 1034 c 2,8,-1
 469 492 l 2,9,10
 469 362 469 362 528.5 291.5 c 128,-1,11
 588 221 588 221 670 221 c 0,12,13
 817 221 817 221 928 406 c 1,14,-1
 928 1034 l 2,15,16
 928 1061 928 1061 945.5 1078.5 c 128,-1,17
 963 1096 963 1096 989 1096 c 2,18,-1
 1212 1096 l 2,19,20
 1239 1096 1239 1096 1256.5 1078.5 c 128,-1,21
 1274 1061 1274 1061 1274 1034 c 2,22,-1
 1274 61 l 2,23,24
 1274 35 1274 35 1256.5 17.5 c 128,-1,25
 1239 0 1239 0 1212 0 c 2,26,-1
 989 0 l 2,27,28
 963 0 963 0 945.5 17.5 c 128,-1,29
 928 35 928 35 928 61 c 2,30,-1
 928 125 l 1,31,32
 860 45 860 45 806 12.5 c 128,-1,33
 752 -20 752 -20 676 -20 c 0,34,35
 543 -20 543 -20 469 51 c 1,36,-1
 469 -276 l 2,37,38
 469 -303 469 -303 451.5 -320.5 c 128,-1,39
 434 -338 434 -338 408 -338 c 2,40,-1
 184 -338 l 2,41,42
 158 -338 158 -338 140.5 -320.5 c 128,-1,43
 123 -303 123 -303 123 -276 c 2,0,-1
EndSplineSet
EndChar

StartChar: paragraph
Encoding: 182 182 119
Width: 1438
Flags: W
LayerCount: 2
Fore
SplineSet
492 1434 m 2,0,-1
 1335 1434 l 2,1,2
 1362 1434 1362 1434 1379.5 1416.5 c 128,-1,3
 1397 1399 1397 1399 1397 1372 c 2,4,-1
 1397 1268 l 2,5,6
 1397 1241 1397 1241 1379.5 1223.5 c 128,-1,7
 1362 1206 1362 1206 1335 1206 c 2,8,-1
 1245 1206 l 1,9,-1
 1245 -244 l 2,10,11
 1245 -283 1245 -283 1216.5 -310.5 c 128,-1,12
 1188 -338 1188 -338 1149 -338 c 2,13,-1
 920 -338 l 1,14,-1
 920 1206 l 1,15,-1
 817 1206 l 1,16,-1
 817 -338 l 1,17,-1
 586 -338 l 2,18,19
 547 -338 547 -338 519.5 -310.5 c 128,-1,20
 492 -283 492 -283 492 -244 c 2,21,-1
 492 692 l 1,22,23
 307 692 307 692 184 791.5 c 128,-1,24
 61 891 61 891 61 1065 c 128,-1,25
 61 1239 61 1239 184 1336.5 c 128,-1,26
 307 1434 307 1434 492 1434 c 2,0,-1
EndSplineSet
EndChar

StartChar: periodcentered
Encoding: 183 183 120
Width: 803
Flags: W
LayerCount: 2
Fore
SplineSet
205 659 m 2,0,1
 205 795 205 795 340 795 c 2,2,-1
 463 795 l 2,3,4
 528 795 528 795 563 760 c 128,-1,5
 598 725 598 725 598 659 c 2,6,-1
 598 596 l 2,7,8
 598 532 598 532 563 496.5 c 128,-1,9
 528 461 528 461 463 461 c 2,10,-1
 340 461 l 2,11,12
 274 461 274 461 239.5 496.5 c 128,-1,13
 205 532 205 532 205 596 c 2,14,-1
 205 659 l 2,0,1
EndSplineSet
EndChar

StartChar: cedilla
Encoding: 184 184 121
Width: 784
Flags: W
LayerCount: 2
Fore
SplineSet
41 1006 m 2,0,1
 41 1043 41 1043 70 1075 c 2,2,-1
 381 1407 l 1,3,4
 408 1434 408 1434 451 1434 c 2,5,-1
 610 1434 l 2,6,7
 626 1434 626 1434 638.5 1421.5 c 128,-1,8
 651 1409 651 1409 651 1393 c 2,9,-1
 651 1057 l 1,10,-1
 700 1057 l 2,11,12
 718 1057 718 1057 730.5 1044.5 c 128,-1,13
 743 1032 743 1032 743 1016 c 2,14,-1
 743 952 l 2,15,16
 743 936 743 936 731 923.5 c 128,-1,17
 719 911 719 911 700 911 c 2,18,-1
 651 911 l 1,19,-1
 651 842 l 2,20,21
 651 826 651 826 639 813.5 c 128,-1,22
 627 801 627 801 610 801 c 2,23,-1
 506 801 l 2,24,25
 490 801 490 801 477.5 812 c 128,-1,26
 465 823 465 823 465 842 c 2,27,-1
 465 911 l 1,28,-1
 84 911 l 2,29,30
 68 911 68 911 54.5 923.5 c 128,-1,31
 41 936 41 936 41 952 c 2,32,-1
 41 1006 l 2,0,1
262 1057 m 1,33,-1
 465 1057 l 1,34,-1
 465 1272 l 1,35,-1
 262 1057 l 1,33,-1
EndSplineSet
EndChar

StartChar: uni00B9
Encoding: 185 185 122
Width: 408
Flags: W
LayerCount: 2
Fore
SplineSet
47 1274 m 1,0,1
 43 1282 43 1282 43 1292.5 c 128,-1,2
 43 1303 43 1303 57 1315 c 2,3,-1
 174 1413 l 1,4,5
 195 1434 195 1434 238 1434 c 2,6,-1
 324 1434 l 2,7,8
 342 1434 342 1434 354.5 1421.5 c 128,-1,9
 367 1409 367 1409 367 1393 c 2,10,-1
 367 842 l 2,11,12
 367 825 367 825 354.5 813 c 128,-1,13
 342 801 342 801 324 801 c 2,14,-1
 221 801 l 2,15,16
 205 801 205 801 192.5 812 c 128,-1,17
 180 823 180 823 180 842 c 2,18,-1
 180 1247 l 1,19,-1
 129 1210 l 1,20,21
 106 1196 106 1196 90 1217 c 2,22,-1
 47 1274 l 1,0,1
EndSplineSet
EndChar

StartChar: ordmasculine
Encoding: 186 186 123
Width: 748
Flags: W
LayerCount: 2
Fore
SplineSet
358 797 m 2,0,1
 41 797 41 797 41 1117.5 c 128,-1,2
 41 1438 41 1438 358 1438 c 2,3,-1
 389 1438 l 2,4,5
 707 1438 707 1438 707 1117.5 c 128,-1,6
 707 797 707 797 389 797 c 2,7,-1
 358 797 l 2,0,1
270 1249 m 256,8,9
 227 1206 227 1206 227 1116 c 128,-1,10
 227 1026 227 1026 270 984 c 128,-1,11
 313 942 313 942 374.5 942 c 128,-1,12
 436 942 436 942 478 984 c 128,-1,13
 520 1026 520 1026 520 1116 c 128,-1,14
 520 1206 520 1206 478 1249 c 128,-1,15
 436 1292 436 1292 374.5 1292 c 128,-1,16
 313 1292 313 1292 270 1249 c 256,8,9
EndSplineSet
EndChar

StartChar: guillemotright
Encoding: 187 187 124
Width: 1020
Flags: W
LayerCount: 2
Fore
SplineSet
43 162 m 0,0,1
 43 166 43 166 43 178 c 128,-1,2
 43 190 43 190 59 219 c 1,3,-1
 268 561 l 1,4,-1
 59 903 l 1,5,6
 41 930 41 930 42 943 c 128,-1,7
 43 956 43 956 43 963 c 1,8,9
 49 985 49 985 80 985 c 2,10,-1
 203 985 l 2,11,12
 250 985 250 985 285 940 c 2,13,-1
 489 678 l 2,14,15
 528 627 528 627 528 586 c 2,16,-1
 528 537 l 2,17,18
 528 496 528 496 489 444 c 1,19,-1
 285 182 l 2,20,21
 250 137 250 137 203 137 c 2,22,-1
 80 137 l 2,23,24
 49 137 49 137 43 162 c 0,0,1
492 950 m 0,25,26
 492 985 492 985 530 985 c 2,27,-1
 653 985 l 2,28,29
 700 985 700 985 735 940 c 2,30,-1
 940 678 l 2,31,32
 979 627 979 627 979 586 c 2,33,-1
 979 537 l 2,34,35
 979 496 979 496 940 444 c 1,36,-1
 735 182 l 2,37,38
 700 137 700 137 653 137 c 2,39,-1
 530 137 l 2,40,41
 500 137 500 137 494 162 c 0,42,43
 494 166 494 166 493 178 c 128,-1,44
 492 190 492 190 510 219 c 2,45,-1
 719 561 l 1,46,-1
 510 903 l 1,47,48
 492 930 492 930 492 950 c 0,25,26
EndSplineSet
EndChar

StartChar: onequarter
Encoding: 188 188 125
Width: 1376
Flags: W
LayerCount: 2
Fore
SplineSet
76 66 m 2,0,-1
 905 1368 l 2,1,2
 946 1434 946 1434 1020 1434 c 2,3,-1
 1159 1434 l 2,4,5
 1207 1434 1207 1434 1208 1407 c 0,6,7
 1208 1392 1208 1392 1192 1368 c 2,8,-1
 362 66 l 2,9,10
 321 0 321 0 248 0 c 2,11,-1
 109 0 l 2,12,13
 63 0 63 0 62 28 c 0,14,15
 62 43 62 43 76 66 c 2,0,-1
78 1274 m 2,16,17
 73 1282 73 1282 73 1292 c 128,-1,18
 73 1302 73 1302 88 1315 c 2,19,-1
 205 1413 l 1,20,21
 225 1433 225 1433 268 1434 c 1,22,-1
 354 1434 l 2,23,24
 372 1434 372 1434 384.5 1421.5 c 128,-1,25
 397 1409 397 1409 397 1393 c 2,26,-1
 397 842 l 2,27,28
 397 826 397 826 385 813.5 c 128,-1,29
 373 801 373 801 354 801 c 2,30,-1
 252 801 l 2,31,32
 236 801 236 801 223.5 812 c 128,-1,33
 211 823 211 823 211 842 c 2,34,-1
 211 1247 l 1,35,-1
 160 1210 l 1,36,37
 137 1196 137 1196 121 1217 c 2,38,-1
 78 1274 l 2,16,17
612 205 m 2,39,40
 612 242 612 242 641 274 c 2,41,-1
 952 606 l 1,42,43
 979 633 979 633 1022 633 c 2,44,-1
 1182 633 l 2,45,46
 1198 633 1198 633 1210.5 620.5 c 128,-1,47
 1223 608 1223 608 1223 592 c 2,48,-1
 1223 256 l 1,49,-1
 1272 256 l 2,50,51
 1290 256 1290 256 1302.5 243.5 c 128,-1,52
 1315 231 1315 231 1315 215 c 2,53,-1
 1315 152 l 2,54,55
 1315 136 1315 136 1302.5 123.5 c 128,-1,56
 1290 111 1290 111 1272 111 c 2,57,-1
 1223 111 l 1,58,-1
 1223 41 l 2,59,60
 1223 25 1223 25 1210.5 12.5 c 128,-1,61
 1198 0 1198 0 1182 0 c 2,62,-1
 1077 0 l 2,63,64
 1061 0 1061 0 1048.5 11.5 c 128,-1,65
 1036 23 1036 23 1036 41 c 2,66,-1
 1036 111 l 1,67,-1
 655 111 l 2,68,69
 639 111 639 111 625.5 123 c 128,-1,70
 612 135 612 135 612 152 c 2,71,-1
 612 205 l 2,39,40
834 256 m 1,72,-1
 1036 256 l 1,73,-1
 1036 471 l 1,74,-1
 834 256 l 1,72,-1
EndSplineSet
EndChar

StartChar: onehalf
Encoding: 189 189 126
Width: 1393
Flags: W
LayerCount: 2
Fore
SplineSet
76 66 m 2,0,-1
 905 1368 l 2,1,2
 946 1434 946 1434 1020 1434 c 2,3,-1
 1159 1434 l 2,4,5
 1206 1434 1206 1434 1208 1407 c 1,6,7
 1208 1393 1208 1393 1192 1368 c 2,8,-1
 362 66 l 1,9,10
 322 0 322 0 248 0 c 2,11,-1
 109 0 l 2,12,13
 63 0 63 0 61 29 c 0,14,15
 61 43 61 43 76 66 c 2,0,-1
78 1274 m 1,16,17
 74 1282 74 1282 74 1292.5 c 128,-1,18
 74 1303 74 1303 88 1315 c 2,19,-1
 205 1413 l 1,20,21
 225 1434 225 1434 268 1434 c 2,22,-1
 354 1434 l 2,23,24
 373 1434 373 1434 385 1421.5 c 128,-1,25
 397 1409 397 1409 397 1393 c 2,26,-1
 397 842 l 2,27,28
 397 825 397 825 385 813 c 128,-1,29
 373 801 373 801 354 801 c 2,30,-1
 252 801 l 2,31,32
 236 801 236 801 223.5 812 c 128,-1,33
 211 823 211 823 211 842 c 2,34,-1
 211 1247 l 1,35,-1
 160 1210 l 1,36,37
 137 1196 137 1196 121 1217 c 2,38,-1
 78 1274 l 1,16,17
709 41 m 2,39,-1
 709 104 l 2,40,41
 709 170 709 170 740.5 217 c 128,-1,42
 772 264 772 264 821 287.5 c 128,-1,43
 870 311 870 311 925.5 329.5 c 128,-1,44
 981 348 981 348 1030 358 c 0,45,46
 1143 383 1143 383 1143 426 c 0,47,48
 1143 492 1143 492 1032 492 c 2,49,-1
 999 492 l 2,50,51
 913 492 913 492 887 436 c 1,52,53
 866 395 866 395 827 395 c 2,54,-1
 754 395 l 2,55,56
 739 395 739 395 724 406.5 c 128,-1,57
 709 418 709 418 709 444 c 0,58,59
 709 532 709 532 795 584.5 c 128,-1,60
 881 637 881 637 985 637 c 2,61,-1
 1044 637 l 2,62,63
 1331 637 1331 637 1331 426 c 0,64,65
 1331 346 1331 346 1266.5 298 c 128,-1,66
 1202 250 1202 250 1123 235.5 c 128,-1,67
 1044 221 1044 221 979.5 199.5 c 128,-1,68
 915 178 915 178 915 145 c 1,69,-1
 1282 145 l 2,70,71
 1300 145 1300 145 1312.5 133 c 128,-1,72
 1325 121 1325 121 1325 102 c 2,73,-1
 1325 41 l 2,74,75
 1325 25 1325 25 1312.5 12.5 c 128,-1,76
 1300 0 1300 0 1282 0 c 2,77,-1
 752 0 l 2,78,79
 733 0 733 0 721 12.5 c 128,-1,80
 709 25 709 25 709 41 c 2,39,-1
EndSplineSet
EndChar

StartChar: threequarters
Encoding: 190 190 127
Width: 1556
Flags: W
LayerCount: 2
Fore
SplineSet
61 979 m 0,0,1
 61 1006 61 1006 76.5 1017 c 128,-1,2
 92 1028 92 1028 106 1028 c 2,3,-1
 168 1028 l 2,4,5
 196 1028 196 1028 217 1003.5 c 128,-1,6
 238 979 238 979 240 977 c 0,7,8
 271 942 271 942 344 942 c 2,9,-1
 416 942 l 2,10,11
 510 942 510 942 510 989 c 0,12,13
 510 1026 510 1026 485.5 1036.5 c 128,-1,14
 461 1047 461 1047 403 1047 c 2,15,-1
 324 1047 l 2,16,17
 308 1047 308 1047 295.5 1059 c 128,-1,18
 283 1071 283 1071 283 1090 c 2,19,-1
 283 1143 l 2,20,21
 283 1159 283 1159 295 1172.5 c 128,-1,22
 307 1186 307 1186 324 1186 c 2,23,-1
 408 1186 l 2,24,25
 500 1186 500 1186 500 1239 c 128,-1,26
 500 1292 500 1292 408 1292 c 2,27,-1
 348 1292 l 2,28,29
 274 1292 274 1292 244 1257 c 1,30,31
 227 1240 227 1240 221 1232.5 c 128,-1,32
 215 1225 215 1225 207 1218 c 0,33,34
 192 1206 192 1206 172 1206 c 2,35,-1
 111 1206 l 2,36,37
 97 1206 97 1206 81.5 1217.5 c 128,-1,38
 66 1229 66 1229 66 1255 c 0,39,40
 66 1331 66 1331 154 1384.5 c 128,-1,41
 242 1438 242 1438 340 1438 c 2,42,-1
 401 1438 l 2,43,44
 688 1438 688 1438 688 1243 c 0,45,46
 688 1163 688 1163 614 1116 c 1,47,48
 696 1075 696 1075 696 989 c 0,49,50
 696 796 696 796 410 797 c 1,51,-1
 336 797 l 2,52,53
 238 797 238 797 149.5 850 c 128,-1,54
 61 903 61 903 61 979 c 0,0,1
256 66 m 2,55,-1
 1085 1368 l 2,56,57
 1126 1434 1126 1434 1200 1434 c 2,58,-1
 1339 1434 l 2,59,60
 1387 1434 1387 1434 1388 1407 c 0,61,62
 1388 1392 1388 1392 1372 1368 c 2,63,-1
 543 66 l 2,64,65
 502 0 502 0 428 0 c 2,66,-1
 289 0 l 2,67,68
 243 0 243 0 242 28 c 0,69,70
 242 43 242 43 256 66 c 2,55,-1
793 205 m 2,71,72
 793 242 793 242 821 274 c 1,73,-1
 1133 606 l 1,74,75
 1160 633 1160 633 1202 633 c 2,76,-1
 1362 633 l 2,77,78
 1378 633 1378 633 1390.5 620.5 c 128,-1,79
 1403 608 1403 608 1403 592 c 2,80,-1
 1403 256 l 1,81,-1
 1452 256 l 2,82,83
 1470 256 1470 256 1482.5 243.5 c 128,-1,84
 1495 231 1495 231 1495 215 c 2,85,-1
 1495 152 l 2,86,87
 1495 136 1495 136 1482.5 123.5 c 128,-1,88
 1470 111 1470 111 1452 111 c 2,89,-1
 1403 111 l 1,90,-1
 1403 41 l 2,91,92
 1403 25 1403 25 1390.5 12.5 c 128,-1,93
 1378 0 1378 0 1362 0 c 2,94,-1
 1257 0 l 2,95,96
 1241 0 1241 0 1229 11.5 c 128,-1,97
 1217 23 1217 23 1217 41 c 2,98,-1
 1217 111 l 1,99,-1
 836 111 l 2,100,101
 820 111 820 111 806.5 123 c 128,-1,102
 793 135 793 135 793 152 c 2,103,-1
 793 205 l 2,71,72
1014 256 m 1,104,-1
 1217 256 l 1,105,-1
 1217 471 l 1,106,-1
 1014 256 l 1,104,-1
EndSplineSet
EndChar

StartChar: questiondown
Encoding: 191 191 128
Width: 1341
Flags: W
LayerCount: 2
Fore
SplineSet
82 100 m 0,0,1
 82 200 82 200 130 274 c 128,-1,2
 178 348 178 348 247.5 387 c 128,-1,3
 317 426 317 426 387 456.5 c 128,-1,4
 457 487 457 487 505 524 c 128,-1,5
 553 561 553 561 553 598 c 128,-1,6
 553 635 553 635 570.5 652.5 c 128,-1,7
 588 670 588 670 614 670 c 2,8,-1
 840 670 l 2,9,10
 867 670 867 670 884 652.5 c 128,-1,11
 901 635 901 635 901 608 c 0,12,13
 901 522 901 522 868.5 456.5 c 128,-1,14
 836 391 836 391 786.5 353 c 128,-1,15
 737 315 737 315 680 282.5 c 128,-1,16
 623 250 623 250 574 228 c 0,17,18
 459 175 459 175 459 94.5 c 128,-1,19
 459 14 459 14 513 -24.5 c 128,-1,20
 567 -63 567 -63 686 -63 c 2,21,-1
 737 -63 l 2,22,23
 903 -63 903 -63 965 59 c 1,24,25
 1010 153 1010 153 1100 154 c 1,26,-1
 1219 154 l 2,27,28
 1266 154 1266 154 1293.5 119 c 128,-1,29
 1321 84 1321 84 1321 43 c 0,30,31
 1321 -127 1321 -127 1149 -236.5 c 128,-1,32
 977 -346 977 -346 772 -346 c 2,33,-1
 657 -346 l 2,34,35
 82 -346 82 -346 82 100 c 0,0,1
528 971 m 2,36,37
 528 1106 528 1106 664 1106 c 2,38,-1
 786 1106 l 2,39,40
 852 1106 852 1106 887 1071 c 128,-1,41
 922 1036 922 1036 922 971 c 2,42,-1
 922 907 l 2,43,44
 922 844 922 844 887 808 c 128,-1,45
 852 772 852 772 786 772 c 2,46,-1
 664 772 l 2,47,48
 598 772 598 772 563 808 c 128,-1,49
 528 844 528 844 528 907 c 2,50,-1
 528 971 l 2,36,37
EndSplineSet
EndChar

StartChar: Agrave
Encoding: 192 192 129
Width: 1708
Flags: W
LayerCount: 2
Fore
SplineSet
25 92 m 2,0,-1
 276 1044 l 1,1,2
 380 1433 380 1433 940 1434 c 1,3,-1
 1479 1434 l 2,4,5
 1516 1434 1516 1434 1540.5 1407 c 128,-1,6
 1565 1380 1565 1380 1565 1341 c 2,7,-1
 1565 92 l 2,8,9
 1565 53 1565 53 1538 26.5 c 128,-1,10
 1511 0 1511 0 1470 0 c 2,11,-1
 1282 0 l 2,12,13
 1243 0 1243 0 1215.5 28 c 128,-1,14
 1188 56 1188 56 1188 94 c 2,15,-1
 1188 346 l 1,16,-1
 477 346 l 1,17,-1
 410 94 l 2,18,19
 385 0 385 0 291 0 c 2,20,-1
 94 0 l 2,21,22
 55 0 55 0 38 21.5 c 128,-1,23
 21 43 21 43 21.5 60.5 c 128,-1,24
 22 78 22 78 25 92 c 2,0,-1
551 629 m 1,25,-1
 1188 629 l 1,26,-1
 1188 1151 l 1,27,-1
 903 1151 l 2,28,29
 692 1151 692 1151 639 950 c 1,30,-1
 551 629 l 1,25,-1
817 1964 m 2,31,-1
 907 1964 l 2,32,33
 999 1964 999 1964 1038 1849 c 1,34,-1
 1087 1661 l 2,35,36
 1095 1632 1095 1632 1096 1611 c 1,37,38
 1096 1546 1096 1546 1022 1546 c 2,39,-1
 975 1546 l 2,40,41
 907 1546 907 1546 852 1640 c 2,42,-1
 743 1829 l 1,43,44
 723 1861 723 1861 723 1884 c 0,45,46
 723 1964 723 1964 817 1964 c 2,31,-1
EndSplineSet
EndChar

StartChar: Aacute
Encoding: 193 193 130
Width: 1708
Flags: W
LayerCount: 2
Fore
SplineSet
25 92 m 2,0,-1
 276 1044 l 1,1,2
 380 1433 380 1433 940 1434 c 1,3,-1
 1479 1434 l 2,4,5
 1516 1434 1516 1434 1540.5 1407 c 128,-1,6
 1565 1380 1565 1380 1565 1341 c 2,7,-1
 1565 92 l 2,8,9
 1565 53 1565 53 1538 26.5 c 128,-1,10
 1511 0 1511 0 1470 0 c 2,11,-1
 1282 0 l 2,12,13
 1243 0 1243 0 1215.5 28 c 128,-1,14
 1188 56 1188 56 1188 94 c 2,15,-1
 1188 346 l 1,16,-1
 477 346 l 1,17,-1
 410 94 l 2,18,19
 385 0 385 0 291 0 c 2,20,-1
 94 0 l 2,21,22
 55 0 55 0 38 21.5 c 128,-1,23
 21 43 21 43 21.5 60.5 c 128,-1,24
 22 78 22 78 25 92 c 2,0,-1
551 629 m 1,25,-1
 1188 629 l 1,26,-1
 1188 1151 l 1,27,-1
 903 1151 l 2,28,29
 692 1151 692 1151 639 950 c 1,30,-1
 551 629 l 1,25,-1
889 1661 m 2,31,-1
 938 1849 l 1,32,33
 977 1964 977 1964 1069 1964 c 2,34,-1
 1159 1964 l 2,35,36
 1225 1964 1225 1964 1245 1922 c 0,37,38
 1253 1906 1253 1906 1253 1883 c 128,-1,39
 1253 1860 1253 1860 1233 1829 c 1,40,-1
 1124 1640 l 2,41,42
 1069 1546 1069 1546 1001 1546 c 2,43,-1
 954 1546 l 2,44,45
 880 1546 880 1546 881 1611 c 0,46,47
 881 1632 881 1632 889 1661 c 2,31,-1
EndSplineSet
EndChar

StartChar: Acircumflex
Encoding: 194 194 131
Width: 1708
Flags: W
LayerCount: 2
Fore
SplineSet
25 92 m 2,0,-1
 276 1044 l 2,1,2
 378 1433 378 1433 940 1434 c 1,3,-1
 1479 1434 l 2,4,5
 1516 1434 1516 1434 1540.5 1406 c 128,-1,6
 1565 1378 1565 1378 1565 1341 c 2,7,-1
 1565 92 l 2,8,9
 1565 53 1565 53 1537 26.5 c 128,-1,10
 1509 0 1509 0 1470 0 c 2,11,-1
 1282 0 l 2,12,13
 1241 0 1241 0 1214.5 26.5 c 128,-1,14
 1188 53 1188 53 1188 94 c 2,15,-1
 1188 346 l 1,16,-1
 477 346 l 1,17,-1
 410 94 l 2,18,19
 400 53 400 53 365 26.5 c 128,-1,20
 330 0 330 0 291 0 c 2,21,-1
 94 0 l 2,22,23
 55 0 55 0 38 22.5 c 128,-1,24
 21 45 21 45 21.5 62 c 128,-1,25
 22 79 22 79 25 92 c 2,0,-1
551 629 m 1,26,-1
 1188 629 l 1,27,-1
 1188 1151 l 1,28,-1
 903 1151 l 2,29,30
 807 1151 807 1151 735.5 1096.5 c 128,-1,31
 664 1042 664 1042 639 950 c 2,32,-1
 551 629 l 1,26,-1
639 1571 m 0,33,34
 633 1582 633 1582 633 1597 c 128,-1,35
 633 1612 633 1612 651 1628 c 2,36,-1
 807 1772 l 1,37,38
 899 1860 899 1860 954 1860 c 2,39,-1
 1077 1860 l 2,40,41
 1132 1860 1132 1860 1225 1772 c 1,42,-1
 1382 1628 l 2,43,44
 1411 1601 1411 1601 1395 1570.5 c 128,-1,45
 1379 1540 1379 1540 1341 1540 c 2,46,-1
 1196 1540 l 2,47,48
 1139 1540 1139 1540 1051 1624 c 1,49,-1
 1016 1655 l 1,50,-1
 983 1624 l 2,51,52
 895 1540 895 1540 838 1540 c 2,53,-1
 692 1540 l 2,54,55
 655 1540 655 1540 639 1571 c 0,33,34
EndSplineSet
EndChar

StartChar: Atilde
Encoding: 195 195 132
Width: 1708
Flags: W
LayerCount: 2
Fore
SplineSet
25 92 m 2,0,-1
 276 1044 l 2,1,2
 378 1433 378 1433 940 1434 c 1,3,-1
 1479 1434 l 2,4,5
 1516 1434 1516 1434 1540.5 1406 c 128,-1,6
 1565 1378 1565 1378 1565 1341 c 2,7,-1
 1565 92 l 2,8,9
 1565 53 1565 53 1537 26.5 c 128,-1,10
 1509 0 1509 0 1470 0 c 2,11,-1
 1282 0 l 2,12,13
 1241 0 1241 0 1214.5 26.5 c 128,-1,14
 1188 53 1188 53 1188 94 c 2,15,-1
 1188 346 l 1,16,-1
 477 346 l 1,17,-1
 410 94 l 2,18,19
 400 53 400 53 365 26.5 c 128,-1,20
 330 0 330 0 291 0 c 2,21,-1
 94 0 l 2,22,23
 55 0 55 0 38 22.5 c 128,-1,24
 21 45 21 45 21.5 62 c 128,-1,25
 22 79 22 79 25 92 c 2,0,-1
551 629 m 1,26,-1
 1188 629 l 1,27,-1
 1188 1151 l 1,28,-1
 903 1151 l 2,29,30
 807 1151 807 1151 735.5 1096.5 c 128,-1,31
 664 1042 664 1042 639 950 c 2,32,-1
 551 629 l 1,26,-1
676 1587 m 0,33,34
 676 1718 676 1718 740.5 1785.5 c 128,-1,35
 805 1853 805 1853 877.5 1853 c 128,-1,36
 950 1853 950 1853 1026 1812.5 c 128,-1,37
 1102 1772 1102 1772 1138 1772 c 128,-1,38
 1174 1772 1174 1772 1196.5 1807.5 c 128,-1,39
 1219 1843 1219 1843 1247 1843 c 2,40,-1
 1329 1843 l 2,41,42
 1360 1843 1360 1843 1360 1812 c 0,43,44
 1360 1681 1360 1681 1296.5 1613.5 c 128,-1,45
 1233 1546 1233 1546 1159.5 1546 c 128,-1,46
 1086 1546 1086 1546 1012 1587 c 128,-1,47
 938 1628 938 1628 901 1628 c 128,-1,48
 864 1628 864 1628 840.5 1592 c 128,-1,49
 817 1556 817 1556 788 1556 c 2,50,-1
 707 1556 l 2,51,52
 676 1556 676 1556 676 1587 c 0,33,34
EndSplineSet
EndChar

StartChar: Adieresis
Encoding: 196 196 133
Width: 1708
Flags: W
LayerCount: 2
Fore
SplineSet
31 92 m 2,0,-1
 283 1044 l 2,1,2
 387 1433 387 1433 946 1434 c 1,3,-1
 1485 1434 l 2,4,5
 1522 1434 1522 1434 1546.5 1407 c 128,-1,6
 1571 1380 1571 1380 1571 1341 c 2,7,-1
 1571 92 l 2,8,9
 1571 53 1571 53 1544.5 26.5 c 128,-1,10
 1518 0 1518 0 1477 0 c 2,11,-1
 1288 0 l 2,12,13
 1249 0 1249 0 1221.5 28 c 128,-1,14
 1194 56 1194 56 1194 94 c 2,15,-1
 1194 346 l 1,16,-1
 483 346 l 1,17,-1
 416 94 l 2,18,19
 391 0 391 0 297 0 c 2,20,-1
 100 0 l 2,21,22
 61 0 61 0 44 21.5 c 128,-1,23
 27 43 27 43 27.5 60.5 c 128,-1,24
 28 78 28 78 31 92 c 2,0,-1
557 629 m 1,25,-1
 1194 629 l 1,26,-1
 1194 1151 l 1,27,-1
 909 1151 l 2,28,29
 698 1151 698 1151 645 950 c 1,30,-1
 557 629 l 1,25,-1
594 1692 m 2,31,-1
 594 1731 l 2,32,33
 594 1846 594 1846 709 1845 c 1,34,-1
 805 1845 l 2,35,36
 920 1845 920 1845 920 1731 c 2,37,-1
 920 1692 l 2,38,39
 920 1577 920 1577 805 1577 c 2,40,-1
 709 1577 l 2,41,42
 594 1577 594 1577 594 1692 c 2,31,-1
1096 1692 m 2,43,-1
 1096 1731 l 2,44,45
 1096 1846 1096 1846 1210 1845 c 1,46,-1
 1307 1845 l 2,47,48
 1422 1845 1422 1845 1421 1731 c 1,49,-1
 1421 1692 l 2,50,51
 1421 1577 1421 1577 1307 1577 c 2,52,-1
 1210 1577 l 2,53,54
 1096 1577 1096 1577 1096 1692 c 2,43,-1
EndSplineSet
EndChar

StartChar: Aring
Encoding: 197 197 134
Width: 1708
Flags: W
LayerCount: 2
Fore
SplineSet
25 92 m 2,0,-1
 276 1044 l 2,1,2
 378 1433 378 1433 940 1434 c 1,3,-1
 1479 1434 l 2,4,5
 1516 1434 1516 1434 1540.5 1406 c 128,-1,6
 1565 1378 1565 1378 1565 1341 c 2,7,-1
 1565 92 l 2,8,9
 1565 53 1565 53 1537 26.5 c 128,-1,10
 1509 0 1509 0 1470 0 c 2,11,-1
 1282 0 l 2,12,13
 1241 0 1241 0 1214.5 26.5 c 128,-1,14
 1188 53 1188 53 1188 94 c 2,15,-1
 1188 346 l 1,16,-1
 477 346 l 1,17,-1
 410 94 l 2,18,19
 400 53 400 53 365 26.5 c 128,-1,20
 330 0 330 0 291 0 c 2,21,-1
 94 0 l 2,22,23
 55 0 55 0 38 22.5 c 128,-1,24
 21 45 21 45 21.5 62 c 128,-1,25
 22 79 22 79 25 92 c 2,0,-1
551 629 m 1,26,-1
 1188 629 l 1,27,-1
 1188 1151 l 1,28,-1
 903 1151 l 2,29,30
 807 1151 807 1151 735.5 1096.5 c 128,-1,31
 664 1042 664 1042 639 950 c 2,32,-1
 551 629 l 1,26,-1
1178 1970 m 1,33,34
 1260 1900 1260 1900 1260 1775.5 c 128,-1,35
 1260 1651 1260 1651 1181 1579 c 128,-1,36
 1102 1507 1102 1507 980 1507 c 128,-1,37
 858 1507 858 1507 779 1579 c 128,-1,38
 700 1651 700 1651 700 1776 c 128,-1,39
 700 1901 700 1901 782 1970 c 1,40,41
 858 2040 858 2040 980 2040 c 128,-1,42
 1102 2040 1102 2040 1178 1970 c 1,33,34
872 1773.5 m 128,-1,44
 872 1640 872 1640 979.5 1640 c 128,-1,45
 1087 1640 1087 1640 1087 1773.5 c 128,-1,46
 1087 1907 1087 1907 979.5 1907 c 128,-1,43
 872 1907 872 1907 872 1773.5 c 128,-1,44
EndSplineSet
EndChar

StartChar: AE
Encoding: 198 198 135
Width: 2529
Flags: W
LayerCount: 2
Fore
SplineSet
25 92 m 2,0,-1
 276 1044 l 2,1,2
 378 1433 378 1433 940 1434 c 1,3,-1
 2394 1434 l 2,4,5
 2433 1434 2433 1434 2460.5 1406 c 128,-1,6
 2488 1378 2488 1378 2488 1339 c 2,7,-1
 2488 1245 l 2,8,9
 2488 1206 2488 1206 2460.5 1178.5 c 128,-1,10
 2433 1151 2433 1151 2394 1151 c 2,11,-1
 1524 1151 l 1,12,-1
 1524 860 l 1,13,-1
 2273 860 l 2,14,15
 2312 860 2312 860 2339.5 832.5 c 128,-1,16
 2367 805 2367 805 2367 766 c 2,17,-1
 2367 672 l 2,18,19
 2367 633 2367 633 2339.5 605.5 c 128,-1,20
 2312 578 2312 578 2273 578 c 2,21,-1
 1524 578 l 1,22,-1
 1524 283 l 1,23,-1
 2392 283 l 2,24,25
 2431 283 2431 283 2457.5 256 c 128,-1,26
 2484 229 2484 229 2484 190 c 2,27,-1
 2484 94 l 2,28,29
 2484 55 2484 55 2456.5 27.5 c 128,-1,30
 2429 0 2429 0 2390 0 c 2,31,-1
 1241 0 l 2,32,33
 1202 0 1202 0 1174.5 27.5 c 128,-1,34
 1147 55 1147 55 1147 96 c 2,35,-1
 1147 346 l 1,36,-1
 477 346 l 1,37,-1
 410 94 l 2,38,39
 400 53 400 53 365 26.5 c 128,-1,40
 330 0 330 0 291 0 c 2,41,-1
 94 0 l 2,42,43
 55 0 55 0 38 22.5 c 128,-1,44
 21 45 21 45 21.5 62 c 128,-1,45
 22 79 22 79 25 92 c 2,0,-1
551 629 m 1,46,-1
 1147 629 l 1,47,-1
 1147 1151 l 1,48,-1
 903 1151 l 2,49,50
 807 1151 807 1151 735.5 1096.5 c 128,-1,51
 664 1042 664 1042 639 950 c 2,52,-1
 551 629 l 1,46,-1
EndSplineSet
EndChar

StartChar: Ccedilla
Encoding: 199 199 136
Width: 1673
Flags: W
LayerCount: 2
Fore
SplineSet
223 196 m 128,-1,1
 61 373 61 373 61 730 c 0,2,3
 61 1442 61 1442 803 1442 c 2,4,-1
 1026 1442 l 2,5,6
 1253 1442 1253 1442 1427.5 1324 c 128,-1,7
 1602 1206 1602 1206 1602 1001 c 0,8,9
 1602 942 1602 942 1567 916.5 c 128,-1,10
 1532 891 1532 891 1499 891 c 2,11,-1
 1380 891 l 2,12,13
 1288 891 1288 891 1237 1001 c 0,14,15
 1163 1159 1163 1159 991 1159 c 2,16,-1
 813 1159 l 2,17,18
 594 1159 594 1159 516 1065 c 128,-1,19
 438 971 438 971 438 717 c 128,-1,20
 438 463 438 463 516 368.5 c 128,-1,21
 594 274 594 274 813 274 c 2,22,-1
 1012 274 l 2,23,24
 1184 274 1184 274 1257 432 c 0,25,26
 1308 543 1308 543 1401 543 c 2,27,-1
 1520 543 l 2,28,29
 1567 543 1567 543 1594.5 508 c 128,-1,30
 1622 473 1622 473 1622 432 c 0,31,32
 1622 227 1622 227 1448 109.5 c 128,-1,33
 1274 -8 1274 -8 1047 -8 c 2,34,-1
 922 -8 l 1,35,-1
 922 -80 l 1,36,37
 1145 -98 1145 -98 1145 -270 c 0,38,39
 1145 -487 1145 -487 819 -487 c 2,40,-1
 735 -487 l 2,41,42
 694 -487 694 -487 694 -446 c 2,43,-1
 694 -362 l 2,44,45
 694 -321 694 -321 735 -322 c 1,46,-1
 819 -322 l 2,47,48
 952 -322 952 -322 952 -269.5 c 128,-1,49
 952 -217 952 -217 817 -217 c 2,50,-1
 758 -217 l 2,51,52
 717 -217 717 -217 717 -176 c 2,53,-1
 717 -4 l 1,54,0
 385 19 385 19 223 196 c 128,-1,1
EndSplineSet
EndChar

StartChar: Egrave
Encoding: 200 200 137
Width: 1526
Flags: W
LayerCount: 2
Fore
SplineSet
143 96 m 2,0,-1
 143 1341 l 2,1,2
 143 1378 143 1378 171 1406 c 128,-1,3
 199 1434 199 1434 238 1434 c 2,4,-1
 1391 1434 l 2,5,6
 1430 1434 1430 1434 1457.5 1406 c 128,-1,7
 1485 1378 1485 1378 1485 1339 c 2,8,-1
 1485 1245 l 2,9,10
 1485 1206 1485 1206 1457.5 1178.5 c 128,-1,11
 1430 1151 1430 1151 1391 1151 c 2,12,-1
 520 1151 l 1,13,-1
 520 860 l 1,14,-1
 1270 860 l 2,15,16
 1307 860 1307 860 1335.5 831.5 c 128,-1,17
 1364 803 1364 803 1364 766 c 2,18,-1
 1364 672 l 2,19,20
 1364 635 1364 635 1335.5 606.5 c 128,-1,21
 1307 578 1307 578 1270 578 c 2,22,-1
 520 578 l 1,23,-1
 520 283 l 1,24,-1
 1389 283 l 2,25,26
 1427 283 1427 283 1454 256 c 128,-1,27
 1481 229 1481 229 1481 190 c 2,28,-1
 1481 94 l 2,29,30
 1481 55 1481 55 1453 27.5 c 128,-1,31
 1425 0 1425 0 1386 0 c 2,32,-1
 238 0 l 2,33,34
 199 0 199 0 171 27.5 c 128,-1,35
 143 55 143 55 143 96 c 2,0,-1
573 1921 m 1,36,37
 594 1964 594 1964 659 1964 c 2,38,-1
 750 1964 l 2,39,40
 842 1964 842 1964 881 1849 c 1,41,-1
 930 1661 l 2,42,43
 938 1632 938 1632 938 1612 c 0,44,45
 938 1546 938 1546 864 1546 c 2,46,-1
 817 1546 l 2,47,48
 750 1546 750 1546 694 1640 c 1,49,-1
 586 1829 l 1,50,51
 565 1862 565 1862 565 1884.5 c 128,-1,52
 565 1907 565 1907 573 1921 c 1,36,37
EndSplineSet
EndChar

StartChar: Eacute
Encoding: 201 201 138
Width: 1526
Flags: W
LayerCount: 2
Fore
SplineSet
143 96 m 2,0,-1
 143 1341 l 2,1,2
 143 1378 143 1378 171 1406 c 128,-1,3
 199 1434 199 1434 238 1434 c 2,4,-1
 1391 1434 l 2,5,6
 1430 1434 1430 1434 1457.5 1406 c 128,-1,7
 1485 1378 1485 1378 1485 1339 c 2,8,-1
 1485 1245 l 2,9,10
 1485 1206 1485 1206 1457.5 1178.5 c 128,-1,11
 1430 1151 1430 1151 1391 1151 c 2,12,-1
 520 1151 l 1,13,-1
 520 860 l 1,14,-1
 1270 860 l 2,15,16
 1307 860 1307 860 1335.5 831.5 c 128,-1,17
 1364 803 1364 803 1364 766 c 2,18,-1
 1364 672 l 2,19,20
 1364 635 1364 635 1335.5 606.5 c 128,-1,21
 1307 578 1307 578 1270 578 c 2,22,-1
 520 578 l 1,23,-1
 520 283 l 1,24,-1
 1389 283 l 2,25,26
 1427 283 1427 283 1454 256 c 128,-1,27
 1481 229 1481 229 1481 190 c 2,28,-1
 1481 94 l 2,29,30
 1481 55 1481 55 1453 27.5 c 128,-1,31
 1425 0 1425 0 1386 0 c 2,32,-1
 238 0 l 2,33,34
 199 0 199 0 171 27.5 c 128,-1,35
 143 55 143 55 143 96 c 2,0,-1
731 1661 m 2,36,-1
 780 1849 l 1,37,38
 819 1964 819 1964 911 1964 c 2,39,-1
 1001 1964 l 2,40,41
 1067 1964 1067 1964 1087 1921 c 1,42,43
 1096 1907 1096 1907 1096 1883.5 c 128,-1,44
 1096 1860 1096 1860 1075 1829 c 1,45,-1
 967 1640 l 1,46,47
 911 1546 911 1546 844 1546 c 2,48,-1
 797 1546 l 2,49,50
 723 1546 723 1546 723 1612 c 0,51,52
 723 1632 723 1632 731 1661 c 2,36,-1
EndSplineSet
EndChar

StartChar: Ecircumflex
Encoding: 202 202 139
Width: 1526
Flags: W
LayerCount: 2
Fore
SplineSet
143 96 m 2,0,-1
 143 1341 l 2,1,2
 143 1380 143 1380 171 1407 c 128,-1,3
 199 1434 199 1434 238 1434 c 2,4,-1
 1391 1434 l 2,5,6
 1430 1434 1430 1434 1457.5 1406 c 128,-1,7
 1485 1378 1485 1378 1485 1339 c 2,8,-1
 1485 1245 l 2,9,10
 1485 1206 1485 1206 1457.5 1178.5 c 128,-1,11
 1430 1151 1430 1151 1391 1151 c 2,12,-1
 520 1151 l 1,13,-1
 520 860 l 1,14,-1
 1270 860 l 2,15,16
 1309 860 1309 860 1336.5 832.5 c 128,-1,17
 1364 805 1364 805 1364 766 c 2,18,-1
 1364 672 l 2,19,20
 1364 633 1364 633 1336.5 605.5 c 128,-1,21
 1309 578 1309 578 1270 578 c 2,22,-1
 520 578 l 1,23,-1
 520 283 l 1,24,-1
 1389 283 l 2,25,26
 1427 283 1427 283 1454 256 c 128,-1,27
 1481 229 1481 229 1481 190 c 2,28,-1
 1481 94 l 2,29,30
 1481 55 1481 55 1453 27.5 c 128,-1,31
 1425 0 1425 0 1386 0 c 2,32,-1
 238 0 l 2,33,34
 199 0 199 0 171 27.5 c 128,-1,35
 143 55 143 55 143 96 c 2,0,-1
426 1575 m 0,36,37
 420 1585 420 1585 420 1600.5 c 128,-1,38
 420 1616 420 1616 438 1632 c 2,39,-1
 594 1776 l 1,40,41
 686 1864 686 1864 741 1864 c 2,42,-1
 864 1864 l 2,43,44
 920 1864 920 1864 1012 1776 c 1,45,-1
 1169 1632 l 1,46,47
 1188 1616 1188 1616 1188 1600.5 c 128,-1,48
 1188 1585 1188 1585 1182 1575 c 0,49,50
 1165 1544 1165 1544 1128 1544 c 2,51,-1
 983 1544 l 2,52,53
 926 1544 926 1544 838 1628 c 1,54,-1
 803 1659 l 1,55,-1
 770 1628 l 2,56,57
 682 1544 682 1544 625 1544 c 2,58,-1
 479 1544 l 2,59,60
 442 1544 442 1544 426 1575 c 0,36,37
EndSplineSet
EndChar

StartChar: Edieresis
Encoding: 203 203 140
Width: 1526
Flags: W
LayerCount: 2
Fore
SplineSet
143 96 m 2,0,-1
 143 1341 l 2,1,2
 143 1380 143 1380 171 1407 c 128,-1,3
 199 1434 199 1434 238 1434 c 2,4,-1
 1391 1434 l 2,5,6
 1430 1434 1430 1434 1457.5 1406 c 128,-1,7
 1485 1378 1485 1378 1485 1339 c 2,8,-1
 1485 1245 l 2,9,10
 1485 1206 1485 1206 1457.5 1178.5 c 128,-1,11
 1430 1151 1430 1151 1391 1151 c 2,12,-1
 520 1151 l 1,13,-1
 520 860 l 1,14,-1
 1270 860 l 2,15,16
 1309 860 1309 860 1336.5 832.5 c 128,-1,17
 1364 805 1364 805 1364 766 c 2,18,-1
 1364 672 l 2,19,20
 1364 633 1364 633 1336.5 605.5 c 128,-1,21
 1309 578 1309 578 1270 578 c 2,22,-1
 520 578 l 1,23,-1
 520 283 l 1,24,-1
 1389 283 l 2,25,26
 1427 283 1427 283 1454 256 c 128,-1,27
 1481 229 1481 229 1481 190 c 2,28,-1
 1481 94 l 2,29,30
 1481 55 1481 55 1453 27.5 c 128,-1,31
 1425 0 1425 0 1386 0 c 2,32,-1
 238 0 l 2,33,34
 199 0 199 0 171 27.5 c 128,-1,35
 143 55 143 55 143 96 c 2,0,-1
410 1679 m 2,36,-1
 410 1718 l 2,37,38
 410 1772 410 1772 440.5 1802.5 c 128,-1,39
 471 1833 471 1833 524 1833 c 2,40,-1
 621 1833 l 2,41,42
 674 1833 674 1833 704.5 1802.5 c 128,-1,43
 735 1772 735 1772 735 1718 c 2,44,-1
 735 1679 l 2,45,46
 735 1626 735 1626 704.5 1595.5 c 128,-1,47
 674 1565 674 1565 621 1565 c 2,48,-1
 524 1565 l 2,49,50
 471 1565 471 1565 440.5 1595.5 c 128,-1,51
 410 1626 410 1626 410 1679 c 2,36,-1
911 1679 m 2,52,-1
 911 1718 l 2,53,54
 911 1772 911 1772 942 1802.5 c 128,-1,55
 973 1833 973 1833 1026 1833 c 2,56,-1
 1122 1833 l 2,57,58
 1176 1833 1176 1833 1206.5 1802.5 c 128,-1,59
 1237 1772 1237 1772 1237 1718 c 2,60,-1
 1237 1679 l 2,61,62
 1237 1626 1237 1626 1206.5 1595.5 c 128,-1,63
 1176 1565 1176 1565 1122 1565 c 2,64,-1
 1026 1565 l 2,65,66
 973 1565 973 1565 942 1595.5 c 128,-1,67
 911 1626 911 1626 911 1679 c 2,52,-1
EndSplineSet
EndChar

StartChar: Igrave
Encoding: 204 204 141
Width: 664
Flags: W
LayerCount: 2
Fore
SplineSet
61 1921 m 1,0,1
 82 1964 82 1964 147 1964 c 2,2,-1
 238 1964 l 2,3,4
 330 1964 330 1964 369 1849 c 1,5,-1
 418 1661 l 2,6,7
 426 1632 426 1632 426 1612 c 0,8,9
 426 1546 426 1546 352 1546 c 2,10,-1
 305 1546 l 2,11,12
 238 1546 238 1546 182 1640 c 1,13,-1
 74 1829 l 1,14,15
 53 1862 53 1862 53 1884.5 c 128,-1,16
 53 1907 53 1907 61 1921 c 1,0,1
143 92 m 2,17,-1
 143 1339 l 2,18,19
 143 1378 143 1378 171 1406 c 128,-1,20
 199 1434 199 1434 238 1434 c 2,21,-1
 424 1434 l 2,22,23
 465 1434 465 1434 492.5 1406 c 128,-1,24
 520 1378 520 1378 520 1339 c 2,25,-1
 520 94 l 2,26,27
 520 57 520 57 491.5 28.5 c 128,-1,28
 463 0 463 0 424 0 c 2,29,-1
 238 0 l 2,30,31
 199 0 199 0 171 27.5 c 128,-1,32
 143 55 143 55 143 92 c 2,17,-1
EndSplineSet
EndChar

StartChar: Iacute
Encoding: 205 205 142
Width: 666
Flags: W
LayerCount: 2
Fore
SplineSet
143 92 m 2,0,-1
 143 1339 l 2,1,2
 143 1378 143 1378 171 1406 c 128,-1,3
 199 1434 199 1434 238 1434 c 2,4,-1
 424 1434 l 2,5,6
 465 1434 465 1434 492.5 1406 c 128,-1,7
 520 1378 520 1378 520 1339 c 2,8,-1
 520 94 l 2,9,10
 520 57 520 57 491.5 28.5 c 128,-1,11
 463 0 463 0 424 0 c 2,12,-1
 238 0 l 2,13,14
 199 0 199 0 171 27.5 c 128,-1,15
 143 55 143 55 143 92 c 2,0,-1
260 1661 m 2,16,-1
 309 1849 l 1,17,18
 348 1964 348 1964 440 1964 c 2,19,-1
 530 1964 l 2,20,21
 596 1964 596 1964 616 1921 c 1,22,23
 625 1907 625 1907 625 1883.5 c 128,-1,24
 625 1860 625 1860 604 1829 c 1,25,-1
 496 1640 l 1,26,27
 440 1546 440 1546 373 1546 c 2,28,-1
 326 1546 l 2,29,30
 252 1546 252 1546 252 1612 c 0,31,32
 252 1632 252 1632 260 1661 c 2,16,-1
EndSplineSet
EndChar

StartChar: Icircumflex
Encoding: 206 206 143
Width: 686
Flags: W
LayerCount: 2
Fore
SplineSet
-35 1554 m 0,0,1
 -41 1565 -41 1565 -41 1580 c 128,-1,2
 -41 1595 -41 1595 -23 1612 c 2,3,-1
 133 1755 l 1,4,5
 225 1843 225 1843 281 1843 c 2,6,-1
 403 1843 l 2,7,8
 458 1843 458 1843 551 1755 c 1,9,-1
 709 1612 l 2,10,11
 727 1595 727 1595 727 1580 c 128,-1,12
 727 1565 727 1565 721 1554 c 0,13,14
 705 1523 705 1523 668 1524 c 1,15,-1
 522 1524 l 2,16,17
 465 1524 465 1524 377 1608 c 1,18,-1
 342 1638 l 1,19,-1
 309 1608 l 1,20,21
 221 1524 221 1524 164 1524 c 2,22,-1
 18 1524 l 1,23,24
 -19 1523 -19 1523 -35 1554 c 0,0,1
154 92 m 2,25,-1
 154 1339 l 2,26,27
 154 1378 154 1378 181.5 1406 c 128,-1,28
 209 1434 209 1434 248 1434 c 2,29,-1
 434 1434 l 2,30,31
 475 1434 475 1434 502.5 1406 c 128,-1,32
 530 1378 530 1378 530 1339 c 2,33,-1
 530 94 l 2,34,35
 530 55 530 55 501.5 27.5 c 128,-1,36
 473 0 473 0 434 0 c 2,37,-1
 248 0 l 2,38,39
 209 0 209 0 181.5 26.5 c 128,-1,40
 154 53 154 53 154 92 c 2,25,-1
EndSplineSet
EndChar

StartChar: Idieresis
Encoding: 207 207 144
Width: 705
Flags: W
LayerCount: 2
Fore
SplineSet
-61 1659 m 2,0,-1
 -61 1698 l 2,1,2
 -61 1751 -61 1751 -30.5 1781.5 c 128,-1,3
 0 1812 0 1812 53 1812 c 2,4,-1
 150 1812 l 2,5,6
 203 1812 203 1812 233.5 1781.5 c 128,-1,7
 264 1751 264 1751 264 1698 c 2,8,-1
 264 1659 l 2,9,10
 264 1606 264 1606 233.5 1575 c 128,-1,11
 203 1544 203 1544 150 1544 c 2,12,-1
 53 1544 l 2,13,14
 0 1544 0 1544 -30.5 1575 c 128,-1,15
 -61 1606 -61 1606 -61 1659 c 2,0,-1
164 92 m 2,16,-1
 164 1339 l 2,17,18
 164 1378 164 1378 191.5 1406 c 128,-1,19
 219 1434 219 1434 258 1434 c 2,20,-1
 444 1434 l 2,21,22
 485 1434 485 1434 513 1406 c 128,-1,23
 541 1378 541 1378 541 1339 c 2,24,-1
 541 94 l 2,25,26
 541 55 541 55 512 27.5 c 128,-1,27
 483 0 483 0 444 0 c 2,28,-1
 258 0 l 2,29,30
 219 0 219 0 191.5 26.5 c 128,-1,31
 164 53 164 53 164 92 c 2,16,-1
440 1659 m 2,32,-1
 440 1698 l 2,33,34
 440 1751 440 1751 471 1781.5 c 128,-1,35
 502 1812 502 1812 555 1812 c 2,36,-1
 651 1812 l 2,37,38
 705 1812 705 1812 735.5 1781.5 c 128,-1,39
 766 1751 766 1751 766 1698 c 2,40,-1
 766 1659 l 2,41,42
 766 1606 766 1606 735.5 1575 c 128,-1,43
 705 1544 705 1544 651 1544 c 2,44,-1
 555 1544 l 2,45,46
 502 1544 502 1544 471 1575 c 128,-1,47
 440 1606 440 1606 440 1659 c 2,32,-1
EndSplineSet
EndChar

StartChar: Eth
Encoding: 208 208 145
Width: 1729
Flags: W
LayerCount: 2
Fore
SplineSet
0 655 m 2,0,-1
 0 758 l 2,1,2
 0 784 0 784 17.5 801.5 c 128,-1,3
 35 819 35 819 61 819 c 2,4,-1
 184 819 l 1,5,-1
 184 1337 l 2,6,7
 184 1378 184 1378 212 1406 c 128,-1,8
 240 1434 240 1434 279 1434 c 2,9,-1
 838 1434 l 2,10,11
 1272 1434 1272 1434 1469.5 1260.5 c 128,-1,12
 1667 1087 1667 1087 1667 716.5 c 128,-1,13
 1667 346 1667 346 1469.5 173 c 128,-1,14
 1272 0 1272 0 838 0 c 2,15,-1
 279 0 l 2,16,17
 240 0 240 0 212 26.5 c 128,-1,18
 184 53 184 53 184 92 c 2,19,-1
 184 594 l 1,20,-1
 61 594 l 2,21,22
 35 594 35 594 17.5 611.5 c 128,-1,23
 0 629 0 629 0 655 c 2,0,-1
561 283 m 1,24,-1
 827 283 l 2,25,26
 1096 283 1096 283 1193 381 c 128,-1,27
 1290 479 1290 479 1290 716.5 c 128,-1,28
 1290 954 1290 954 1193 1052.5 c 128,-1,29
 1096 1151 1096 1151 827 1151 c 2,30,-1
 561 1151 l 1,31,-1
 561 819 l 1,32,-1
 737 819 l 2,33,34
 764 819 764 819 781.5 801.5 c 128,-1,35
 799 784 799 784 799 758 c 2,36,-1
 799 655 l 2,37,38
 799 629 799 629 781.5 611.5 c 128,-1,39
 764 594 764 594 737 594 c 2,40,-1
 561 594 l 1,41,-1
 561 283 l 1,24,-1
EndSplineSet
EndChar

StartChar: Ntilde
Encoding: 209 209 146
Width: 1776
Flags: W
LayerCount: 2
Fore
SplineSet
143 94 m 2,0,-1
 143 1339 l 2,1,2
 143 1378 143 1378 170 1406 c 128,-1,3
 197 1434 197 1434 236 1434 c 2,4,-1
 530 1434 l 2,5,6
 565 1434 565 1434 604 1406 c 128,-1,7
 643 1378 643 1378 668 1339 c 2,8,-1
 1272 410 l 1,9,-1
 1272 1341 l 2,10,11
 1272 1380 1272 1380 1299.5 1407 c 128,-1,12
 1327 1434 1327 1434 1366 1434 c 2,13,-1
 1538 1434 l 2,14,15
 1577 1434 1577 1434 1604.5 1407 c 128,-1,16
 1632 1380 1632 1380 1632 1339 c 2,17,-1
 1632 94 l 2,18,19
 1632 55 1632 55 1604.5 27.5 c 128,-1,20
 1577 0 1577 0 1538 0 c 2,21,-1
 1206 0 l 2,22,23
 1167 0 1167 0 1126 27.5 c 128,-1,24
 1085 55 1085 55 1061 94 c 2,25,-1
 508 952 l 1,26,-1
 508 94 l 2,27,28
 508 55 508 55 480.5 27.5 c 128,-1,29
 453 0 453 0 414 0 c 2,30,-1
 238 0 l 2,31,32
 199 0 199 0 171 27.5 c 128,-1,33
 143 55 143 55 143 94 c 2,0,-1
586 1526 m 0,34,35
 586 1657 586 1657 650.5 1724.5 c 128,-1,36
 715 1792 715 1792 787.5 1792 c 128,-1,37
 860 1792 860 1792 936 1751 c 128,-1,38
 1012 1710 1012 1710 1047.5 1710 c 128,-1,39
 1083 1710 1083 1710 1105.5 1746 c 128,-1,40
 1128 1782 1128 1782 1157 1782 c 2,41,-1
 1239 1782 l 2,42,43
 1270 1782 1270 1782 1270 1751 c 0,44,45
 1270 1620 1270 1620 1206.5 1552.5 c 128,-1,46
 1143 1485 1143 1485 1069 1485 c 128,-1,47
 995 1485 995 1485 921.5 1526 c 128,-1,48
 848 1567 848 1567 811 1567 c 128,-1,49
 774 1567 774 1567 750.5 1531 c 128,-1,50
 727 1495 727 1495 698 1495 c 2,51,-1
 616 1495 l 2,52,53
 586 1495 586 1495 586 1526 c 0,34,35
EndSplineSet
EndChar

StartChar: Ograve
Encoding: 210 210 147
Width: 1733
Flags: W
LayerCount: 2
Fore
SplineSet
866 -31 m 256,0,1
 61 -31 61 -31 61 716.5 c 128,-1,2
 61 1464 61 1464 866 1464 c 128,-1,3
 1671 1464 1671 1464 1671 716.5 c 128,-1,4
 1671 -31 1671 -31 866 -31 c 256,0,1
866 1194 m 256,5,6
 438 1194 438 1194 438 717 c 128,-1,7
 438 240 438 240 866 240 c 128,-1,8
 1294 240 1294 240 1294 717 c 128,-1,9
 1294 1194 1294 1194 866 1194 c 256,5,6
614 1921 m 1,10,11
 635 1964 635 1964 700 1964 c 2,12,-1
 791 1964 l 2,13,14
 883 1964 883 1964 922 1849 c 1,15,-1
 971 1661 l 2,16,17
 979 1632 979 1632 979 1612 c 0,18,19
 979 1546 979 1546 905 1546 c 2,20,-1
 858 1546 l 2,21,22
 791 1546 791 1546 735 1640 c 1,23,-1
 627 1829 l 1,24,25
 606 1862 606 1862 606 1884.5 c 128,-1,26
 606 1907 606 1907 614 1921 c 1,10,11
EndSplineSet
EndChar

StartChar: Oacute
Encoding: 211 211 148
Width: 1733
Flags: W
LayerCount: 2
Fore
SplineSet
866 -31 m 256,0,1
 61 -31 61 -31 61 716.5 c 128,-1,2
 61 1464 61 1464 866 1464 c 128,-1,3
 1671 1464 1671 1464 1671 716.5 c 128,-1,4
 1671 -31 1671 -31 866 -31 c 256,0,1
866 1194 m 256,5,6
 438 1194 438 1194 438 717 c 128,-1,7
 438 240 438 240 866 240 c 128,-1,8
 1294 240 1294 240 1294 717 c 128,-1,9
 1294 1194 1294 1194 866 1194 c 256,5,6
793 1661 m 1,10,-1
 842 1849 l 1,11,12
 881 1964 881 1964 973 1964 c 2,13,-1
 1063 1964 l 2,14,15
 1128 1964 1128 1964 1149 1921 c 1,16,17
 1157 1907 1157 1907 1157 1883.5 c 128,-1,18
 1157 1860 1157 1860 1137 1829 c 1,19,-1
 1028 1640 l 2,20,21
 973 1546 973 1546 905 1546 c 2,22,-1
 858 1546 l 2,23,24
 784 1546 784 1546 784 1612 c 0,25,26
 784 1632 784 1632 793 1661 c 1,10,-1
EndSplineSet
EndChar

StartChar: Ocircumflex
Encoding: 212 212 149
Width: 1733
Flags: W
LayerCount: 2
Fore
SplineSet
866.5 -31 m 128,-1,1
 471 -31 471 -31 266 148.5 c 128,-1,2
 61 328 61 328 61 717 c 128,-1,3
 61 1106 61 1106 266 1285 c 128,-1,4
 471 1464 471 1464 866.5 1464 c 128,-1,5
 1262 1464 1262 1464 1466.5 1285 c 128,-1,6
 1671 1106 1671 1106 1671 717 c 128,-1,7
 1671 328 1671 328 1466.5 148.5 c 128,-1,0
 1262 -31 1262 -31 866.5 -31 c 128,-1,1
866.5 1194 m 128,-1,9
 641 1194 641 1194 539.5 1074 c 128,-1,10
 438 954 438 954 438 716.5 c 128,-1,11
 438 479 438 479 539.5 359.5 c 128,-1,12
 641 240 641 240 866.5 240 c 128,-1,13
 1092 240 1092 240 1193 359.5 c 128,-1,14
 1294 479 1294 479 1294 716.5 c 128,-1,15
 1294 954 1294 954 1193 1074 c 128,-1,8
 1092 1194 1092 1194 866.5 1194 c 128,-1,9
557 1612 m 2,16,17
 520 1612 520 1612 509 1632.5 c 128,-1,18
 498 1653 498 1653 498 1667 c 128,-1,19
 498 1681 498 1681 516 1700 c 1,20,-1
 672 1843 l 1,21,22
 764 1931 764 1931 819 1931 c 2,23,-1
 942 1931 l 2,24,25
 997 1931 997 1931 1090 1843 c 1,26,-1
 1247 1700 l 1,27,28
 1266 1681 1266 1681 1266 1667 c 128,-1,29
 1266 1653 1266 1653 1254.5 1632.5 c 128,-1,30
 1243 1612 1243 1612 1206 1612 c 2,31,-1
 1061 1612 l 2,32,33
 1004 1612 1004 1612 915 1696 c 1,34,-1
 881 1726 l 1,35,-1
 848 1696 l 1,36,37
 760 1612 760 1612 702 1612 c 2,38,-1
 557 1612 l 2,16,17
EndSplineSet
EndChar

StartChar: Otilde
Encoding: 213 213 150
Width: 1733
Flags: W
LayerCount: 2
Fore
SplineSet
866.5 -31 m 128,-1,1
 471 -31 471 -31 266 148.5 c 128,-1,2
 61 328 61 328 61 717 c 128,-1,3
 61 1106 61 1106 266 1285 c 128,-1,4
 471 1464 471 1464 866.5 1464 c 128,-1,5
 1262 1464 1262 1464 1466.5 1285 c 128,-1,6
 1671 1106 1671 1106 1671 717 c 128,-1,7
 1671 328 1671 328 1466.5 148.5 c 128,-1,0
 1262 -31 1262 -31 866.5 -31 c 128,-1,1
866.5 1194 m 128,-1,9
 641 1194 641 1194 539.5 1074 c 128,-1,10
 438 954 438 954 438 716.5 c 128,-1,11
 438 479 438 479 539.5 359.5 c 128,-1,12
 641 240 641 240 866.5 240 c 128,-1,13
 1092 240 1092 240 1193 359.5 c 128,-1,14
 1294 479 1294 479 1294 716.5 c 128,-1,15
 1294 954 1294 954 1193 1074 c 128,-1,8
 1092 1194 1092 1194 866.5 1194 c 128,-1,9
524 1587 m 0,16,17
 524 1718 524 1718 588.5 1785.5 c 128,-1,18
 653 1853 653 1853 726 1853 c 128,-1,19
 799 1853 799 1853 874.5 1812.5 c 128,-1,20
 950 1772 950 1772 986 1772 c 128,-1,21
 1022 1772 1022 1772 1044.5 1807.5 c 128,-1,22
 1067 1843 1067 1843 1096 1843 c 2,23,-1
 1178 1843 l 2,24,25
 1208 1843 1208 1843 1208 1812 c 0,26,27
 1208 1681 1208 1681 1144.5 1613.5 c 128,-1,28
 1081 1546 1081 1546 1007.5 1546 c 128,-1,29
 934 1546 934 1546 860 1587 c 128,-1,30
 786 1628 786 1628 749.5 1628 c 128,-1,31
 713 1628 713 1628 689.5 1592 c 128,-1,32
 666 1556 666 1556 637 1556 c 2,33,-1
 555 1556 l 2,34,35
 524 1556 524 1556 524 1587 c 0,16,17
EndSplineSet
EndChar

StartChar: Odieresis
Encoding: 214 214 151
Width: 1733
Flags: W
LayerCount: 2
Fore
SplineSet
866 -31 m 256,0,1
 61 -31 61 -31 61 716.5 c 128,-1,2
 61 1464 61 1464 866 1464 c 128,-1,3
 1671 1464 1671 1464 1671 716.5 c 128,-1,4
 1671 -31 1671 -31 866 -31 c 256,0,1
866 1194 m 256,5,6
 438 1194 438 1194 438 717 c 128,-1,7
 438 240 438 240 866 240 c 128,-1,8
 1294 240 1294 240 1294 717 c 128,-1,9
 1294 1194 1294 1194 866 1194 c 256,5,6
459 1698 m 2,10,-1
 459 1737 l 2,11,12
 459 1851 459 1851 573 1851 c 2,13,-1
 670 1851 l 2,14,15
 784 1851 784 1851 784 1737 c 2,16,-1
 784 1698 l 2,17,18
 784 1583 784 1583 670 1583 c 2,19,-1
 573 1583 l 2,20,21
 459 1583 459 1583 459 1698 c 2,10,-1
961 1698 m 2,22,-1
 961 1737 l 2,23,24
 961 1851 961 1851 1075 1851 c 2,25,-1
 1171 1851 l 2,26,27
 1286 1851 1286 1851 1286 1737 c 2,28,-1
 1286 1698 l 2,29,30
 1286 1583 1286 1583 1171 1583 c 2,31,-1
 1075 1583 l 2,32,33
 961 1583 961 1583 961 1698 c 2,22,-1
EndSplineSet
EndChar

StartChar: multiply
Encoding: 215 215 152
Width: 958
Flags: W
LayerCount: 2
Fore
SplineSet
106 409.5 m 128,-1,1
 106 434 106 434 125 453 c 2,2,-1
 303 629 l 1,3,-1
 125 807 l 2,4,5
 107 825 107 825 106.5 849.5 c 128,-1,6
 106 874 106 874 125 893 c 2,7,-1
 209 977 l 2,8,9
 227 995 227 995 253 995 c 128,-1,10
 279 995 279 995 297 977 c 2,11,-1
 473 801 l 1,12,-1
 659 985 l 2,13,14
 677 1003 677 1003 702 1003.5 c 128,-1,15
 727 1004 727 1004 745 985 c 2,16,-1
 829 901 l 2,17,18
 847 883 847 883 847.5 858.5 c 128,-1,19
 848 834 848 834 829 815 c 2,20,-1
 643 629 l 1,21,-1
 829 444 l 2,22,23
 847 426 847 426 847.5 401.5 c 128,-1,24
 848 377 848 377 829 358 c 2,25,-1
 745 272 l 2,26,27
 727 254 727 254 702.5 254 c 128,-1,28
 678 254 678 254 659 272 c 2,29,-1
 473 459 l 1,30,-1
 297 283 l 2,31,32
 279 265 279 265 253 264.5 c 128,-1,33
 227 264 227 264 209 283 c 2,34,-1
 125 367 l 2,35,0
 106 385 106 385 106 409.5 c 128,-1,1
EndSplineSet
EndChar

StartChar: Oslash
Encoding: 216 216 153
Width: 1733
Flags: W
LayerCount: 2
Fore
SplineSet
1604 1434 m 2,0,1
 1663 1434 1663 1434 1663 1386 c 0,2,3
 1663 1364 1663 1364 1638 1339 c 2,4,-1
 1526 1221 l 1,5,6
 1671 1016 1671 1016 1671 717 c 0,7,8
 1671 328 1671 328 1466.5 148.5 c 128,-1,9
 1262 -31 1262 -31 866 -31 c 0,10,11
 616 -31 616 -31 424 68 c 1,12,13
 420 63 420 63 410 55 c 2,14,-1
 393 43 l 1,15,16
 380 30 380 30 358 18 c 2,17,-1
 340 8 l 1,18,19
 320 0 320 0 297 0 c 2,20,-1
 129 0 l 2,21,22
 82 0 82 0 74 33 c 0,23,24
 72 39 72 39 72 54.5 c 128,-1,25
 72 70 72 70 94 94 c 2,26,-1
 205 213 l 1,27,28
 61 416 61 416 61 717 c 0,29,30
 61 1106 61 1106 266 1285 c 128,-1,31
 471 1464 471 1464 866 1464 c 0,32,33
 1124 1464 1124 1464 1309 1364 c 1,34,35
 1379 1434 1379 1434 1436 1434 c 2,36,-1
 1604 1434 l 2,0,1
438 717 m 0,37,38
 438 580 438 580 467 492 c 1,39,-1
 1085 1153 l 1,40,41
 993 1194 993 1194 866 1194 c 0,42,43
 641 1194 641 1194 539.5 1074 c 128,-1,44
 438 954 438 954 438 717 c 0,37,38
645 281 m 1,45,46
 737 240 737 240 866 240 c 0,47,48
 1092 240 1092 240 1193 359.5 c 128,-1,49
 1294 479 1294 479 1294 717 c 0,50,51
 1294 844 1294 844 1264 940 c 1,52,-1
 645 281 l 1,45,46
EndSplineSet
EndChar

StartChar: Ugrave
Encoding: 217 217 154
Width: 1688
Flags: W
LayerCount: 2
Fore
SplineSet
123 567 m 2,0,-1
 123 1339 l 2,1,2
 123 1378 123 1378 150.5 1406 c 128,-1,3
 178 1434 178 1434 219 1434 c 2,4,-1
 406 1434 l 2,5,6
 444 1434 444 1434 472 1406 c 128,-1,7
 500 1378 500 1378 500 1339 c 2,8,-1
 500 565 l 2,9,10
 500 274 500 274 764 274 c 2,11,-1
 924 274 l 2,12,13
 1188 274 1188 274 1188 565 c 2,14,-1
 1188 1339 l 2,15,16
 1188 1378 1188 1378 1215.5 1406 c 128,-1,17
 1243 1434 1243 1434 1282 1434 c 2,18,-1
 1468 1434 l 2,19,20
 1509 1434 1509 1434 1537 1406 c 128,-1,21
 1565 1378 1565 1378 1565 1339 c 2,22,-1
 1565 567 l 2,23,24
 1565 295 1565 295 1407 143 c 1,25,26
 1243 -8 1243 -8 934 -8 c 2,27,-1
 754 -8 l 2,28,29
 446 -8 446 -8 283 143 c 1,30,31
 123 295 123 295 123 567 c 2,0,-1
594 1880 m 1,32,33
 614 1923 614 1923 680 1923 c 2,34,-1
 770 1923 l 2,35,36
 862 1923 862 1923 901 1808 c 1,37,-1
 950 1620 l 2,38,39
 958 1591 958 1591 958 1571 c 0,40,41
 958 1505 958 1505 885 1505 c 2,42,-1
 838 1505 l 2,43,44
 770 1505 770 1505 715 1599 c 2,45,-1
 606 1788 l 2,46,47
 586 1821 586 1821 586 1843.5 c 128,-1,48
 586 1866 586 1866 594 1880 c 1,32,33
EndSplineSet
EndChar

StartChar: Uacute
Encoding: 218 218 155
Width: 1688
Flags: W
LayerCount: 2
Fore
SplineSet
123 567 m 2,0,-1
 123 1339 l 2,1,2
 123 1378 123 1378 150.5 1406 c 128,-1,3
 178 1434 178 1434 219 1434 c 2,4,-1
 406 1434 l 2,5,6
 444 1434 444 1434 472 1406 c 128,-1,7
 500 1378 500 1378 500 1339 c 2,8,-1
 500 565 l 2,9,10
 500 274 500 274 764 274 c 2,11,-1
 924 274 l 2,12,13
 1188 274 1188 274 1188 565 c 2,14,-1
 1188 1339 l 2,15,16
 1188 1378 1188 1378 1215.5 1406 c 128,-1,17
 1243 1434 1243 1434 1282 1434 c 2,18,-1
 1468 1434 l 2,19,20
 1509 1434 1509 1434 1537 1406 c 128,-1,21
 1565 1378 1565 1378 1565 1339 c 2,22,-1
 1565 567 l 2,23,24
 1565 295 1565 295 1407 143 c 1,25,26
 1243 -8 1243 -8 934 -8 c 2,27,-1
 754 -8 l 2,28,29
 446 -8 446 -8 283 143 c 1,30,31
 123 295 123 295 123 567 c 2,0,-1
752 1620 m 1,32,-1
 801 1808 l 1,33,34
 840 1923 840 1923 932 1923 c 2,35,-1
 1022 1923 l 2,36,37
 1087 1923 1087 1923 1108 1880 c 1,38,39
 1116 1866 1116 1866 1116 1842.5 c 128,-1,40
 1116 1819 1116 1819 1096 1788 c 1,41,-1
 987 1599 l 2,42,43
 932 1505 932 1505 864 1505 c 2,44,-1
 817 1505 l 2,45,46
 743 1505 743 1505 743 1571 c 0,47,48
 743 1591 743 1591 752 1620 c 1,32,-1
EndSplineSet
EndChar

StartChar: Ucircumflex
Encoding: 219 219 156
Width: 1688
Flags: W
LayerCount: 2
Fore
SplineSet
123 567 m 2,0,-1
 123 1339 l 2,1,2
 123 1378 123 1378 150.5 1406 c 128,-1,3
 178 1434 178 1434 219 1434 c 2,4,-1
 406 1434 l 2,5,6
 444 1434 444 1434 472 1406 c 128,-1,7
 500 1378 500 1378 500 1339 c 2,8,-1
 500 565 l 2,9,10
 500 418 500 418 564.5 346 c 128,-1,11
 629 274 629 274 764 274 c 2,12,-1
 924 274 l 2,13,14
 1059 274 1059 274 1123.5 346 c 128,-1,15
 1188 418 1188 418 1188 565 c 2,16,-1
 1188 1339 l 2,17,18
 1188 1378 1188 1378 1215.5 1406 c 128,-1,19
 1243 1434 1243 1434 1282 1434 c 2,20,-1
 1468 1434 l 2,21,22
 1509 1434 1509 1434 1537 1406 c 128,-1,23
 1565 1378 1565 1378 1565 1339 c 2,24,-1
 1565 567 l 2,25,26
 1565 293 1565 293 1404 142.5 c 128,-1,27
 1243 -8 1243 -8 934 -8 c 2,28,-1
 754 -8 l 2,29,30
 444 -8 444 -8 283.5 142.5 c 128,-1,31
 123 293 123 293 123 567 c 2,0,-1
465 1530 m 0,32,33
 459 1540 459 1540 459 1555.5 c 128,-1,34
 459 1571 459 1571 477 1587 c 2,35,-1
 633 1731 l 1,36,37
 725 1819 725 1819 780 1819 c 2,38,-1
 903 1819 l 2,39,40
 958 1819 958 1819 1051 1731 c 1,41,-1
 1208 1587 l 1,42,43
 1227 1571 1227 1571 1227 1555.5 c 128,-1,44
 1227 1540 1227 1540 1221 1530 c 0,45,46
 1204 1499 1204 1499 1167 1499 c 2,47,-1
 1022 1499 l 2,48,49
 965 1499 965 1499 877 1583 c 1,50,-1
 842 1614 l 1,51,-1
 809 1583 l 2,52,53
 721 1499 721 1499 664 1499 c 2,54,-1
 518 1499 l 2,55,56
 481 1499 481 1499 465 1530 c 0,32,33
EndSplineSet
EndChar

StartChar: Udieresis
Encoding: 220 220 157
Width: 1688
Flags: W
LayerCount: 2
Fore
SplineSet
123 567 m 2,0,-1
 123 1339 l 2,1,2
 123 1378 123 1378 150.5 1406 c 128,-1,3
 178 1434 178 1434 219 1434 c 2,4,-1
 406 1434 l 2,5,6
 444 1434 444 1434 472 1406 c 128,-1,7
 500 1378 500 1378 500 1339 c 2,8,-1
 500 565 l 2,9,10
 500 274 500 274 764 274 c 2,11,-1
 924 274 l 2,12,13
 1188 274 1188 274 1188 565 c 2,14,-1
 1188 1339 l 2,15,16
 1188 1378 1188 1378 1215.5 1406 c 128,-1,17
 1243 1434 1243 1434 1282 1434 c 2,18,-1
 1468 1434 l 2,19,20
 1509 1434 1509 1434 1537 1406 c 128,-1,21
 1565 1378 1565 1378 1565 1339 c 2,22,-1
 1565 567 l 2,23,24
 1565 295 1565 295 1407 143 c 1,25,26
 1243 -8 1243 -8 934 -8 c 2,27,-1
 754 -8 l 2,28,29
 446 -8 446 -8 283 143 c 1,30,31
 123 295 123 295 123 567 c 2,0,-1
436 1655 m 2,32,-1
 436 1694 l 2,33,34
 436 1808 436 1808 551 1808 c 2,35,-1
 647 1808 l 2,36,37
 762 1808 762 1808 762 1694 c 2,38,-1
 762 1655 l 2,39,40
 762 1540 762 1540 647 1540 c 2,41,-1
 551 1540 l 2,42,43
 436 1540 436 1540 436 1655 c 2,32,-1
938 1655 m 2,44,-1
 938 1694 l 2,45,46
 938 1808 938 1808 1053 1808 c 2,47,-1
 1149 1808 l 2,48,49
 1264 1808 1264 1808 1264 1694 c 2,50,-1
 1264 1655 l 2,51,52
 1264 1540 1264 1540 1149 1540 c 2,53,-1
 1053 1540 l 2,54,55
 938 1540 938 1540 938 1655 c 2,44,-1
EndSplineSet
EndChar

StartChar: Yacute
Encoding: 221 221 158
Width: 1522
Flags: W
LayerCount: 2
Fore
SplineSet
1448 1434 m 2,0,1
 1499 1434 1499 1434 1499 1386 c 0,2,3
 1499 1366 1499 1366 1483 1339 c 1,4,-1
 948 512 l 1,5,-1
 948 92 l 2,6,7
 948 53 948 53 921.5 26.5 c 128,-1,8
 895 0 895 0 854 0 c 2,9,-1
 666 0 l 2,10,11
 627 0 627 0 599 27.5 c 128,-1,12
 571 55 571 55 571 92 c 2,13,-1
 571 512 l 1,14,-1
 37 1339 l 1,15,16
 23 1364 23 1364 20 1386 c 1,17,18
 23 1397 23 1397 25 1405 c 0,19,20
 35 1434 35 1434 72 1434 c 2,21,-1
 262 1434 l 2,22,23
 375 1434 375 1434 436 1339 c 2,24,-1
 760 840 l 1,25,-1
 1083 1339 l 2,26,27
 1145 1434 1145 1434 1257 1434 c 2,28,-1
 1448 1434 l 2,0,1
705 1661 m 1,29,-1
 754 1849 l 1,30,31
 793 1964 793 1964 885 1964 c 2,32,-1
 975 1964 l 2,33,34
 1040 1964 1040 1964 1061 1921 c 1,35,36
 1069 1907 1069 1907 1069 1883.5 c 128,-1,37
 1069 1860 1069 1860 1049 1829 c 1,38,-1
 940 1640 l 2,39,40
 885 1546 885 1546 817 1546 c 2,41,-1
 770 1546 l 2,42,43
 696 1546 696 1546 696 1612 c 0,44,45
 696 1632 696 1632 705 1661 c 1,29,-1
EndSplineSet
EndChar

StartChar: Thorn
Encoding: 222 222 159
Width: 1552
Flags: W
LayerCount: 2
Fore
SplineSet
143 31 m 2,0,-1
 143 1403 l 2,1,2
 143 1442 143 1442 171 1469.5 c 128,-1,3
 199 1497 199 1497 240 1497 c 2,4,-1
 424 1497 l 2,5,6
 465 1497 465 1497 492.5 1469.5 c 128,-1,7
 520 1442 520 1442 520 1403 c 2,8,-1
 520 1305 l 1,9,-1
 717 1305 l 2,10,11
 1491 1305 1491 1305 1491 717 c 128,-1,12
 1491 129 1491 129 717 129 c 2,13,-1
 520 129 l 1,14,-1
 520 31 l 2,15,16
 520 -8 520 -8 491.5 -35.5 c 128,-1,17
 463 -63 463 -63 424 -63 c 2,18,-1
 240 -63 l 2,19,20
 201 -63 201 -63 172 -35.5 c 128,-1,21
 143 -8 143 -8 143 31 c 2,0,-1
510 399 m 1,22,-1
 715 399 l 2,23,24
 912 399 912 399 1013 472 c 128,-1,25
 1114 545 1114 545 1114 717 c 128,-1,26
 1114 889 1114 889 1012.5 961.5 c 128,-1,27
 911 1034 911 1034 715 1034 c 2,28,-1
 510 1034 l 1,29,-1
 510 399 l 1,22,-1
EndSplineSet
EndChar

StartChar: germandbls
Encoding: 223 223 160
Width: 1604
Flags: W
LayerCount: 2
Fore
SplineSet
143 94 m 2,0,-1
 143 985 l 2,1,2
 143 1434 143 1434 672 1434 c 2,3,-1
 774 1434 l 2,4,5
 1018 1434 1018 1434 1176.5 1337.5 c 128,-1,6
 1335 1241 1335 1241 1335 1047 c 0,7,8
 1335 967 1335 967 1259.5 893 c 128,-1,9
 1184 819 1184 819 1184 770 c 0,10,11
 1184 741 1184 741 1220.5 706.5 c 128,-1,12
 1257 672 1257 672 1309.5 632 c 128,-1,13
 1362 592 1362 592 1415 546 c 128,-1,14
 1468 500 1468 500 1505 436.5 c 128,-1,15
 1542 373 1542 373 1542 303 c 0,16,17
 1542 137 1542 137 1409 58.5 c 128,-1,18
 1276 -20 1276 -20 1039.5 -20 c 128,-1,19
 803 -20 803 -20 674 46.5 c 128,-1,20
 545 113 545 113 545 266 c 0,21,22
 545 293 545 293 562.5 310.5 c 128,-1,23
 580 328 580 328 606 328 c 2,24,-1
 756 328 l 2,25,26
 827 328 827 328 876.5 267.5 c 128,-1,27
 926 207 926 207 1018 207 c 0,28,29
 1196 207 1196 207 1196 303 c 0,30,31
 1196 379 1196 379 1059 463 c 1,32,-1
 944 535 l 1,33,34
 887 569 887 569 847 619.5 c 128,-1,35
 807 670 807 670 807 731.5 c 128,-1,36
 807 793 807 793 845 838 c 128,-1,37
 883 883 883 883 920.5 919.5 c 128,-1,38
 958 956 958 956 958 1012.5 c 128,-1,39
 958 1069 958 1069 907 1116 c 128,-1,40
 856 1163 856 1163 778 1163 c 2,41,-1
 670 1163 l 2,42,43
 590 1163 590 1163 539.5 1113 c 128,-1,44
 489 1063 489 1063 489 979 c 2,45,-1
 489 94 l 2,46,47
 489 55 489 55 461.5 27.5 c 128,-1,48
 434 0 434 0 395 0 c 2,49,-1
 238 0 l 2,50,51
 199 0 199 0 171 27.5 c 128,-1,52
 143 55 143 55 143 94 c 2,0,-1
EndSplineSet
EndChar

StartChar: agrave
Encoding: 224 224 161
Width: 1335
Flags: W
LayerCount: 2
Fore
SplineSet
61 332 m 128,-1,1
 61 500 61 500 192.5 590 c 128,-1,2
 324 680 324 680 535 680 c 2,3,-1
 866 680 l 1,4,5
 866 799 866 799 815 844 c 1,6,7
 770 889 770 889 646.5 889 c 128,-1,8
 523 889 523 889 473.5 828.5 c 128,-1,9
 424 768 424 768 352 768 c 2,10,-1
 203 768 l 2,11,12
 142 768 142 768 141 829 c 1,13,14
 141 1116 141 1116 686 1116 c 0,15,16
 924 1116 924 1116 1061 1016 c 1,17,18
 1213 901 1213 901 1212 680 c 1,19,-1
 1212 61 l 2,20,21
 1212 0 1212 0 1151 0 c 2,22,-1
 958 0 l 2,23,24
 897 0 897 0 897 61 c 2,25,-1
 897 92 l 1,26,27
 741 -21 741 -21 534.5 -20.5 c 128,-1,28
 328 -20 328 -20 194.5 72 c 128,-1,0
 61 164 61 164 61 332 c 128,-1,1
408 332 m 0,29,30
 408 207 408 207 564.5 207 c 128,-1,31
 721 207 721 207 866 297 c 1,32,-1
 866 453 l 1,33,-1
 559 453 l 2,34,35
 491 453 491 453 446 418 c 1,36,37
 408 385 408 385 408 332 c 0,29,30
496 1616 m 2,38,-1
 586 1616 l 2,39,40
 678 1616 678 1616 717 1501 c 1,41,-1
 766 1313 l 2,42,43
 774 1284 774 1284 774 1263 c 0,44,45
 774 1198 774 1198 700 1198 c 2,46,-1
 653 1198 l 2,47,48
 585 1198 585 1198 530 1292 c 1,49,-1
 422 1481 l 1,50,51
 402 1513 402 1513 402 1536 c 0,52,53
 402 1616 402 1616 496 1616 c 2,38,-1
EndSplineSet
EndChar

StartChar: aacute
Encoding: 225 225 162
Width: 1335
Flags: W
LayerCount: 2
Fore
SplineSet
61 332 m 128,-1,1
 61 500 61 500 192.5 590 c 128,-1,2
 324 680 324 680 535 680 c 2,3,-1
 866 680 l 1,4,5
 866 799 866 799 815 844 c 1,6,7
 770 889 770 889 646.5 889 c 128,-1,8
 523 889 523 889 473.5 828.5 c 128,-1,9
 424 768 424 768 352 768 c 2,10,-1
 203 768 l 2,11,12
 142 768 142 768 141 829 c 1,13,14
 141 1116 141 1116 686 1116 c 0,15,16
 924 1116 924 1116 1061 1016 c 1,17,18
 1213 901 1213 901 1212 680 c 1,19,-1
 1212 61 l 2,20,21
 1212 0 1212 0 1151 0 c 2,22,-1
 958 0 l 2,23,24
 897 0 897 0 897 61 c 2,25,-1
 897 92 l 1,26,27
 741 -21 741 -21 534.5 -20.5 c 128,-1,28
 328 -20 328 -20 194.5 72 c 128,-1,0
 61 164 61 164 61 332 c 128,-1,1
408 332 m 0,29,30
 408 207 408 207 564.5 207 c 128,-1,31
 721 207 721 207 866 297 c 1,32,-1
 866 453 l 1,33,-1
 559 453 l 2,34,35
 491 453 491 453 446 418 c 1,36,37
 408 385 408 385 408 332 c 0,29,30
608 1313 m 2,38,-1
 657 1501 l 1,39,40
 696 1616 696 1616 788 1616 c 2,41,-1
 879 1616 l 2,42,43
 945 1616 945 1616 965 1574 c 0,44,45
 973 1558 973 1558 972.5 1535 c 128,-1,46
 972 1512 972 1512 952 1481 c 1,47,-1
 844 1292 l 1,48,49
 789 1198 789 1198 721 1198 c 2,50,-1
 674 1198 l 2,51,52
 600 1198 600 1198 600 1263 c 0,53,54
 600 1284 600 1284 608 1313 c 2,38,-1
EndSplineSet
EndChar

StartChar: acircumflex
Encoding: 226 226 163
Width: 1335
Flags: W
LayerCount: 2
Fore
SplineSet
61 332 m 128,-1,1
 61 500 61 500 193.5 590 c 128,-1,2
 326 680 326 680 535 680 c 2,3,-1
 866 680 l 1,4,5
 866 797 866 797 817 843 c 128,-1,6
 768 889 768 889 645.5 889 c 128,-1,7
 523 889 523 889 473.5 828.5 c 128,-1,8
 424 768 424 768 352 768 c 2,9,-1
 203 768 l 2,10,11
 176 768 176 768 158.5 785.5 c 128,-1,12
 141 803 141 803 141 829 c 0,13,14
 141 1116 141 1116 686 1116 c 0,15,16
 924 1116 924 1116 1068 1009.5 c 128,-1,17
 1212 903 1212 903 1212 680 c 2,18,-1
 1212 61 l 2,19,20
 1212 34 1212 34 1195 17 c 128,-1,21
 1178 0 1178 0 1151 0 c 2,22,-1
 958 0 l 2,23,24
 931 0 931 0 914 17.5 c 128,-1,25
 897 35 897 35 897 61 c 2,26,-1
 897 92 l 1,27,28
 739 -21 739 -21 532.5 -20.5 c 128,-1,29
 326 -20 326 -20 193.5 72 c 128,-1,0
 61 164 61 164 61 332 c 128,-1,1
287 1227 m 0,30,31
 281 1238 281 1238 281 1253 c 128,-1,32
 281 1268 281 1268 299 1284 c 2,33,-1
 455 1427 l 1,34,35
 547 1515 547 1515 602 1516 c 1,36,-1
 725 1516 l 2,37,38
 780 1516 780 1516 872 1427 c 1,39,-1
 1030 1284 l 2,40,41
 1048 1267 1048 1267 1048 1252.5 c 128,-1,42
 1048 1238 1048 1238 1042 1227 c 0,43,44
 1026 1196 1026 1196 989 1196 c 2,45,-1
 844 1196 l 2,46,47
 787 1196 787 1196 698 1280 c 1,48,-1
 664 1311 l 1,49,-1
 631 1280 l 2,50,51
 543 1196 543 1196 485 1196 c 2,52,-1
 340 1196 l 2,53,54
 303 1196 303 1196 287 1227 c 0,30,31
448.5 419 m 128,-1,56
 408 385 408 385 408 331 c 128,-1,57
 408 277 408 277 450 242 c 128,-1,58
 492 207 492 207 569 207 c 0,59,60
 723 207 723 207 866 297 c 1,61,-1
 866 453 l 1,62,-1
 559 453 l 2,63,55
 489 453 489 453 448.5 419 c 128,-1,56
EndSplineSet
EndChar

StartChar: atilde
Encoding: 227 227 164
Width: 1335
Flags: W
LayerCount: 2
Fore
SplineSet
61 332 m 128,-1,1
 61 500 61 500 193.5 590 c 128,-1,2
 326 680 326 680 535 680 c 2,3,-1
 866 680 l 1,4,5
 866 797 866 797 817 843 c 128,-1,6
 768 889 768 889 645.5 889 c 128,-1,7
 523 889 523 889 473.5 828.5 c 128,-1,8
 424 768 424 768 352 768 c 2,9,-1
 203 768 l 2,10,11
 176 768 176 768 158.5 785.5 c 128,-1,12
 141 803 141 803 141 829 c 0,13,14
 141 1116 141 1116 686 1116 c 0,15,16
 924 1116 924 1116 1068 1009.5 c 128,-1,17
 1212 903 1212 903 1212 680 c 2,18,-1
 1212 61 l 2,19,20
 1212 34 1212 34 1195 17 c 128,-1,21
 1178 0 1178 0 1151 0 c 2,22,-1
 958 0 l 2,23,24
 931 0 931 0 914 17.5 c 128,-1,25
 897 35 897 35 897 61 c 2,26,-1
 897 92 l 1,27,28
 739 -21 739 -21 532.5 -20.5 c 128,-1,29
 326 -20 326 -20 193.5 72 c 128,-1,0
 61 164 61 164 61 332 c 128,-1,1
326 1229 m 0,30,31
 326 1360 326 1360 390.5 1427.5 c 128,-1,32
 455 1495 455 1495 528.5 1495 c 128,-1,33
 602 1495 602 1495 676 1454 c 128,-1,34
 750 1413 750 1413 786.5 1413 c 128,-1,35
 823 1413 823 1413 845.5 1449 c 128,-1,36
 868 1485 868 1485 897 1485 c 2,37,-1
 979 1485 l 2,38,39
 1010 1485 1010 1485 1010 1454 c 0,40,41
 1010 1323 1010 1323 946.5 1255.5 c 128,-1,42
 883 1188 883 1188 810.5 1188 c 128,-1,43
 738 1188 738 1188 662 1229 c 128,-1,44
 586 1270 586 1270 550 1270 c 128,-1,45
 514 1270 514 1270 490.5 1234 c 128,-1,46
 467 1198 467 1198 438 1198 c 2,47,-1
 356 1198 l 2,48,49
 326 1198 326 1198 326 1229 c 0,30,31
448.5 419 m 128,-1,51
 408 385 408 385 408 331 c 128,-1,52
 408 277 408 277 450 242 c 128,-1,53
 492 207 492 207 569 207 c 0,54,55
 723 207 723 207 866 297 c 1,56,-1
 866 453 l 1,57,-1
 559 453 l 2,58,50
 489 453 489 453 448.5 419 c 128,-1,51
EndSplineSet
EndChar

StartChar: adieresis
Encoding: 228 228 165
Width: 1335
Flags: W
LayerCount: 2
Fore
SplineSet
61 332 m 128,-1,1
 61 500 61 500 192.5 590 c 128,-1,2
 324 680 324 680 535 680 c 2,3,-1
 866 680 l 1,4,5
 866 799 866 799 815 844 c 1,6,7
 770 889 770 889 646.5 889 c 128,-1,8
 523 889 523 889 473.5 828.5 c 128,-1,9
 424 768 424 768 352 768 c 2,10,-1
 203 768 l 2,11,12
 142 768 142 768 141 829 c 1,13,14
 141 1116 141 1116 686 1116 c 0,15,16
 924 1116 924 1116 1061 1016 c 1,17,18
 1213 901 1213 901 1212 680 c 1,19,-1
 1212 61 l 2,20,21
 1212 0 1212 0 1151 0 c 2,22,-1
 958 0 l 2,23,24
 897 0 897 0 897 61 c 2,25,-1
 897 92 l 1,26,27
 741 -21 741 -21 534.5 -20.5 c 128,-1,28
 328 -20 328 -20 194.5 72 c 128,-1,0
 61 164 61 164 61 332 c 128,-1,1
303 1376 m 2,29,-1
 303 1415 l 2,30,31
 303 1530 303 1530 418 1530 c 2,32,-1
 514 1530 l 2,33,34
 629 1530 629 1530 629 1415 c 2,35,-1
 629 1376 l 2,36,37
 629 1261 629 1261 514 1262 c 1,38,-1
 418 1262 l 1,39,40
 303 1261 303 1261 303 1376 c 2,29,-1
408 332 m 0,41,42
 408 207 408 207 564.5 207 c 128,-1,43
 721 207 721 207 866 297 c 1,44,-1
 866 453 l 1,45,-1
 559 453 l 2,46,47
 491 453 491 453 446 418 c 1,48,49
 408 385 408 385 408 332 c 0,41,42
764 1376 m 2,50,-1
 764 1415 l 2,51,52
 764 1530 764 1530 879 1530 c 2,53,-1
 975 1530 l 2,54,55
 1090 1530 1090 1530 1090 1415 c 2,56,-1
 1090 1376 l 2,57,58
 1090 1261 1090 1261 975 1262 c 1,59,-1
 879 1262 l 1,60,61
 764 1261 764 1261 764 1376 c 2,50,-1
EndSplineSet
EndChar

StartChar: aring
Encoding: 229 229 166
Width: 1335
Flags: W
LayerCount: 2
Fore
SplineSet
61 332 m 128,-1,1
 61 500 61 500 193.5 590 c 128,-1,2
 326 680 326 680 535 680 c 2,3,-1
 866 680 l 1,4,5
 866 797 866 797 817 843 c 128,-1,6
 768 889 768 889 645.5 889 c 128,-1,7
 523 889 523 889 473.5 828.5 c 128,-1,8
 424 768 424 768 352 768 c 2,9,-1
 203 768 l 2,10,11
 176 768 176 768 158.5 785.5 c 128,-1,12
 141 803 141 803 141 829 c 0,13,14
 141 1116 141 1116 686 1116 c 0,15,16
 924 1116 924 1116 1068 1009.5 c 128,-1,17
 1212 903 1212 903 1212 680 c 2,18,-1
 1212 61 l 2,19,20
 1212 34 1212 34 1195 17 c 128,-1,21
 1178 0 1178 0 1151 0 c 2,22,-1
 958 0 l 2,23,24
 931 0 931 0 914 17.5 c 128,-1,25
 897 35 897 35 897 61 c 2,26,-1
 897 92 l 1,27,28
 739 -21 739 -21 532.5 -20.5 c 128,-1,29
 326 -20 326 -20 193.5 72 c 128,-1,0
 61 164 61 164 61 332 c 128,-1,1
448.5 419 m 128,-1,31
 408 385 408 385 408 331 c 128,-1,32
 408 277 408 277 450 242 c 128,-1,33
 492 207 492 207 569 207 c 0,34,35
 723 207 723 207 866 297 c 1,36,-1
 866 453 l 1,37,-1
 559 453 l 2,38,30
 489 453 489 453 448.5 419 c 128,-1,31
891 1642 m 1,39,40
 973 1572 973 1572 973 1447.5 c 128,-1,41
 973 1323 973 1323 894 1251 c 128,-1,42
 815 1179 815 1179 693 1179.5 c 128,-1,43
 571 1180 571 1180 492.5 1251.5 c 128,-1,44
 414 1323 414 1323 414 1448 c 128,-1,45
 414 1573 414 1573 496 1642 c 1,46,47
 572 1712 572 1712 693.5 1712 c 128,-1,48
 815 1712 815 1712 891 1642 c 1,39,40
586 1446 m 128,-1,50
 586 1313 586 1313 693 1313 c 128,-1,51
 800 1313 800 1313 800.5 1446 c 128,-1,52
 801 1579 801 1579 693.5 1579 c 128,-1,49
 586 1579 586 1579 586 1446 c 128,-1,50
EndSplineSet
EndChar

StartChar: ae
Encoding: 230 230 167
Width: 2089
Flags: W
LayerCount: 2
Fore
SplineSet
196.5 71 m 128,-1,1
 61 162 61 162 61 331 c 128,-1,2
 61 500 61 500 193.5 590 c 128,-1,3
 326 680 326 680 535 680 c 2,4,-1
 866 680 l 1,5,6
 866 797 866 797 817 843 c 128,-1,7
 768 889 768 889 645 889 c 128,-1,8
 522 889 522 889 473 828.5 c 128,-1,9
 424 768 424 768 352 768 c 2,10,-1
 203 768 l 2,11,12
 176 768 176 768 158.5 785.5 c 128,-1,13
 141 803 141 803 141 829 c 0,14,15
 141 1116 141 1116 645 1116 c 0,16,17
 901 1116 901 1116 1044 989 c 1,18,19
 1198 1116 1198 1116 1459 1116 c 128,-1,20
 1720 1116 1720 1116 1874 972.5 c 128,-1,21
 2028 829 2028 829 2028 561 c 2,22,-1
 2028 504 l 2,23,24
 2028 477 2028 477 2010.5 459.5 c 128,-1,25
 1993 442 1993 442 1966 442 c 2,26,-1
 1212 442 l 1,27,28
 1223 319 1223 319 1283 263 c 128,-1,29
 1343 207 1343 207 1476.5 207 c 128,-1,30
 1610 207 1610 207 1659 267.5 c 128,-1,31
 1708 328 1708 328 1780 328 c 2,32,-1
 1929 328 l 2,33,34
 1956 328 1956 328 1973.5 310.5 c 128,-1,35
 1991 293 1991 293 1991 266 c 0,36,37
 1991 -20 1991 -20 1464 -20 c 0,38,39
 1208 -20 1208 -20 1051 131 c 1,40,41
 903 -20 903 -20 555 -20 c 0,42,0
 332 -20 332 -20 196.5 71 c 128,-1,1
866 440 m 1,43,-1
 864 453 l 1,44,-1
 559 453 l 2,45,46
 489 453 489 453 448.5 419 c 128,-1,47
 408 385 408 385 408 330.5 c 128,-1,48
 408 276 408 276 450 241.5 c 128,-1,49
 492 207 492 207 569 207 c 0,50,51
 762 207 762 207 866 297 c 1,52,-1
 866 440 l 1,43,-1
1212 653 m 1,53,-1
 1675 653 l 1,54,55
 1665 889 1665 889 1444 889 c 0,56,57
 1235 889 1235 889 1212 676 c 1,58,-1
 1212 653 l 1,53,-1
EndSplineSet
EndChar

StartChar: ccedilla
Encoding: 231 231 168
Width: 1272
Flags: W
LayerCount: 2
Fore
SplineSet
61 547 m 0,0,1
 61 827 61 827 216 971.5 c 128,-1,2
 371 1116 371 1116 647.5 1116 c 128,-1,3
 924 1116 924 1116 1072.5 1028 c 128,-1,4
 1221 940 1221 940 1221 768 c 0,5,6
 1221 741 1221 741 1203.5 724 c 128,-1,7
 1186 707 1186 707 1159 707 c 2,8,-1
 1010 707 l 2,9,10
 942 707 942 707 895 780 c 1,11,12
 836 874 836 874 686.5 874 c 128,-1,13
 537 874 537 874 477.5 797.5 c 128,-1,14
 418 721 418 721 418 548 c 128,-1,15
 418 375 418 375 479.5 298 c 128,-1,16
 541 221 541 221 693.5 221 c 128,-1,17
 846 221 846 221 905 315 c 0,18,19
 952 389 952 389 1020 389 c 2,20,-1
 1169 389 l 2,21,22
 1196 389 1196 389 1213.5 371.5 c 128,-1,23
 1231 354 1231 354 1231 328 c 0,24,25
 1231 168 1231 168 1103 81 c 128,-1,26
 975 -6 975 -6 737 -18 c 1,27,-1
 737 -80 l 1,28,29
 961 -98 961 -98 961 -270 c 0,30,31
 961 -487 961 -487 635 -487 c 2,32,-1
 551 -487 l 2,33,34
 510 -487 510 -487 510 -446 c 2,35,-1
 510 -362 l 2,36,37
 510 -322 510 -322 551 -322 c 2,38,-1
 635 -322 l 2,39,40
 768 -322 768 -322 768 -269.5 c 128,-1,41
 768 -217 768 -217 633 -217 c 2,42,-1
 573 -217 l 2,43,44
 532 -217 532 -217 532 -176 c 2,45,-1
 532 -8 l 1,46,47
 61 59 61 59 61 547 c 0,0,1
EndSplineSet
EndChar

StartChar: egrave
Encoding: 232 232 169
Width: 1290
Flags: W
LayerCount: 2
Fore
SplineSet
61 546.5 m 128,-1,1
 61 821 61 821 217 971 c 1,2,3
 373 1116 373 1116 647 1116 c 128,-1,4
 921 1116 921 1116 1075 974 c 128,-1,5
 1229 832 1229 832 1229 561 c 2,6,-1
 1229 504 l 2,7,8
 1229 443 1229 443 1167 442 c 1,9,-1
 414 442 l 1,10,11
 434 206 434 206 670 207 c 0,12,13
 811 207 811 207 860 267 c 128,-1,14
 909 327 909 327 981 328 c 1,15,-1
 1130 328 l 2,16,17
 1191 328 1191 328 1192 266 c 1,18,19
 1192 -21 1192 -21 645 -20 c 0,20,21
 369 -20 369 -20 215 126 c 128,-1,0
 61 272 61 272 61 546.5 c 128,-1,1
475 1616 m 2,22,-1
 565 1616 l 2,23,24
 657 1616 657 1616 696 1501 c 1,25,-1
 745 1313 l 2,26,27
 753 1284 753 1284 754 1263 c 1,28,29
 754 1198 754 1198 680 1198 c 2,30,-1
 633 1198 l 2,31,32
 565 1198 565 1198 510 1292 c 2,33,-1
 401 1481 l 1,34,35
 381 1513 381 1513 381 1536 c 0,36,37
 381 1616 381 1616 475 1616 c 2,22,-1
412 653 m 1,38,-1
 877 653 l 1,39,40
 869 889 869 889 646.5 889 c 128,-1,41
 424 889 424 889 412 653 c 1,38,-1
EndSplineSet
EndChar

StartChar: eacute
Encoding: 233 233 170
Width: 1290
Flags: W
LayerCount: 2
Fore
SplineSet
61 546.5 m 128,-1,1
 61 821 61 821 217 971 c 1,2,3
 373 1116 373 1116 647 1116 c 128,-1,4
 921 1116 921 1116 1075 974 c 128,-1,5
 1229 832 1229 832 1229 561 c 2,6,-1
 1229 504 l 2,7,8
 1229 443 1229 443 1167 442 c 1,9,-1
 414 442 l 1,10,11
 434 206 434 206 670 207 c 0,12,13
 811 207 811 207 860 267 c 128,-1,14
 909 327 909 327 981 328 c 1,15,-1
 1130 328 l 2,16,17
 1191 328 1191 328 1192 266 c 1,18,19
 1192 -21 1192 -21 645 -20 c 0,20,21
 369 -20 369 -20 215 126 c 128,-1,0
 61 272 61 272 61 546.5 c 128,-1,1
412 653 m 1,22,-1
 877 653 l 1,23,24
 869 889 869 889 646.5 889 c 128,-1,25
 424 889 424 889 412 653 c 1,22,-1
588 1313 m 2,26,-1
 637 1501 l 1,27,28
 676 1616 676 1616 768 1616 c 2,29,-1
 858 1616 l 2,30,31
 924 1616 924 1616 944 1574 c 0,32,33
 952 1558 952 1558 952 1535 c 128,-1,34
 952 1512 952 1512 932 1481 c 1,35,-1
 823 1292 l 2,36,37
 768 1198 768 1198 700 1198 c 2,38,-1
 653 1198 l 2,39,40
 579 1198 579 1198 580 1263 c 0,41,42
 580 1284 580 1284 588 1313 c 2,26,-1
EndSplineSet
EndChar

StartChar: ecircumflex
Encoding: 234 234 171
Width: 1290
Flags: W
LayerCount: 2
Fore
SplineSet
61 546.5 m 128,-1,1
 61 821 61 821 216 968.5 c 128,-1,2
 371 1116 371 1116 646 1116 c 128,-1,3
 921 1116 921 1116 1075 972.5 c 128,-1,4
 1229 829 1229 829 1229 561 c 2,5,-1
 1229 504 l 2,6,7
 1229 477 1229 477 1211.5 459.5 c 128,-1,8
 1194 442 1194 442 1167 442 c 2,9,-1
 414 442 l 1,10,11
 424 319 424 319 484.5 263 c 128,-1,12
 545 207 545 207 678 207 c 128,-1,13
 811 207 811 207 860 267 c 128,-1,14
 909 327 909 327 981 328 c 1,15,-1
 1130 328 l 2,16,17
 1157 328 1157 328 1174.5 310.5 c 128,-1,18
 1192 293 1192 293 1192 266 c 0,19,20
 1192 -21 1192 -21 645 -20 c 0,21,22
 369 -20 369 -20 215 126 c 128,-1,0
 61 272 61 272 61 546.5 c 128,-1,1
266 1232 m 0,23,24
 260 1243 260 1243 260 1257.5 c 128,-1,25
 260 1272 260 1272 279 1290 c 2,26,-1
 434 1434 l 1,27,28
 526 1522 526 1522 582 1522 c 2,29,-1
 705 1522 l 2,30,31
 760 1522 760 1522 852 1434 c 1,32,-1
 1010 1290 l 1,33,34
 1028 1272 1028 1272 1028 1257 c 128,-1,35
 1028 1242 1028 1242 1022 1232 c 0,36,37
 1006 1202 1006 1202 969 1202 c 2,38,-1
 823 1202 l 2,39,40
 766 1202 766 1202 678 1286 c 1,41,-1
 643 1317 l 1,42,-1
 610 1286 l 2,43,44
 522 1202 522 1202 465 1202 c 2,45,-1
 319 1202 l 2,46,47
 282 1202 282 1202 266 1232 c 0,23,24
412 653 m 1,48,-1
 877 653 l 1,49,50
 867 889 867 889 645.5 889 c 128,-1,51
 424 889 424 889 412 653 c 1,48,-1
EndSplineSet
EndChar

StartChar: edieresis
Encoding: 235 235 172
Width: 1290
Flags: W
LayerCount: 2
Fore
SplineSet
61 546.5 m 128,-1,1
 61 821 61 821 216 968.5 c 128,-1,2
 371 1116 371 1116 646 1116 c 128,-1,3
 921 1116 921 1116 1075 972.5 c 128,-1,4
 1229 829 1229 829 1229 561 c 2,5,-1
 1229 504 l 2,6,7
 1229 477 1229 477 1211.5 459.5 c 128,-1,8
 1194 442 1194 442 1167 442 c 2,9,-1
 414 442 l 1,10,11
 424 319 424 319 484.5 263 c 128,-1,12
 545 207 545 207 678 207 c 128,-1,13
 811 207 811 207 860 267 c 128,-1,14
 909 327 909 327 981 328 c 1,15,-1
 1130 328 l 2,16,17
 1157 328 1157 328 1174.5 310.5 c 128,-1,18
 1192 293 1192 293 1192 266 c 0,19,20
 1192 -21 1192 -21 645 -20 c 0,21,22
 369 -20 369 -20 215 126 c 128,-1,0
 61 272 61 272 61 546.5 c 128,-1,1
231 1341 m 2,23,-1
 231 1380 l 2,24,25
 231 1433 231 1433 262 1464 c 128,-1,26
 293 1495 293 1495 346 1495 c 2,27,-1
 442 1495 l 2,28,29
 495 1495 495 1495 526 1464.5 c 128,-1,30
 557 1434 557 1434 557 1380 c 2,31,-1
 557 1341 l 2,32,33
 557 1288 557 1288 526.5 1257.5 c 128,-1,34
 496 1227 496 1227 442 1227 c 2,35,-1
 346 1227 l 2,36,37
 293 1227 293 1227 262 1257.5 c 128,-1,38
 231 1288 231 1288 231 1341 c 2,23,-1
412 653 m 1,39,-1
 877 653 l 1,40,41
 867 889 867 889 645.5 889 c 128,-1,42
 424 889 424 889 412 653 c 1,39,-1
733 1341 m 2,43,-1
 733 1380 l 2,44,45
 733 1433 733 1433 764 1464 c 128,-1,46
 795 1495 795 1495 848 1495 c 2,47,-1
 944 1495 l 2,48,49
 997 1495 997 1495 1028 1464.5 c 128,-1,50
 1059 1434 1059 1434 1059 1380 c 2,51,-1
 1059 1341 l 2,52,53
 1059 1288 1059 1288 1028 1257.5 c 128,-1,54
 997 1227 997 1227 944 1227 c 2,55,-1
 848 1227 l 2,56,57
 795 1227 795 1227 764 1257.5 c 128,-1,58
 733 1288 733 1288 733 1341 c 2,43,-1
EndSplineSet
EndChar

StartChar: igrave
Encoding: 236 236 173
Width: 596
Flags: W
LayerCount: 2
Fore
SplineSet
125 1616 m 2,0,-1
 215 1616 l 2,1,2
 307 1616 307 1616 346 1501 c 1,3,-1
 395 1313 l 2,4,5
 403 1284 403 1284 403 1264 c 0,6,7
 403 1198 403 1198 330 1198 c 2,8,-1
 283 1198 l 2,9,10
 215 1198 215 1198 160 1292 c 2,11,-1
 51 1481 l 1,12,13
 31 1513 31 1513 31 1536 c 0,14,15
 31 1616 31 1616 125 1616 c 2,0,-1
127 61 m 2,16,-1
 127 1010 l 2,17,18
 127 1071 127 1071 188 1071 c 2,19,-1
 412 1071 l 2,20,21
 473 1071 473 1071 473 1010 c 2,22,-1
 473 61 l 2,23,24
 473 0 473 0 412 0 c 2,25,-1
 188 0 l 2,26,27
 127 0 127 0 127 61 c 2,16,-1
EndSplineSet
EndChar

StartChar: iacute
Encoding: 237 237 174
Width: 596
Flags: W
LayerCount: 2
Fore
SplineSet
123 61 m 2,0,-1
 123 1010 l 2,1,2
 123 1071 123 1071 184 1071 c 2,3,-1
 408 1071 l 2,4,5
 469 1071 469 1071 469 1010 c 2,6,-1
 469 61 l 2,7,8
 469 0 469 0 408 0 c 2,9,-1
 184 0 l 2,10,11
 123 0 123 0 123 61 c 2,0,-1
211 1313 m 2,12,-1
 260 1501 l 1,13,14
 299 1616 299 1616 391 1616 c 2,15,-1
 481 1616 l 2,16,17
 547 1616 547 1616 567 1575 c 0,18,19
 575 1559 575 1559 575 1535 c 128,-1,20
 575 1511 575 1511 555 1481 c 1,21,-1
 446 1292 l 2,22,23
 391 1198 391 1198 324 1198 c 2,24,-1
 276 1198 l 2,25,26
 203 1198 203 1198 203 1264 c 0,27,28
 203 1284 203 1284 211 1313 c 2,12,-1
EndSplineSet
EndChar

StartChar: icircumflex
Encoding: 238 238 175
Width: 645
Flags: W
LayerCount: 2
Fore
SplineSet
-55 1232 m 0,0,1
 -61 1243 -61 1243 -61 1257.5 c 128,-1,2
 -61 1272 -61 1272 -43 1290 c 1,3,-1
 113 1434 l 1,4,5
 205 1522 205 1522 260 1522 c 2,6,-1
 383 1522 l 2,7,8
 438 1522 438 1522 530 1434 c 1,9,-1
 688 1290 l 1,10,11
 706 1272 706 1272 706 1257 c 128,-1,12
 706 1242 706 1242 700 1232 c 0,13,14
 684 1202 684 1202 647 1202 c 2,15,-1
 502 1202 l 2,16,17
 445 1202 445 1202 356 1286 c 1,18,-1
 322 1317 l 1,19,-1
 289 1286 l 2,20,21
 201 1202 201 1202 143 1202 c 2,22,-1
 -2 1202 l 2,23,24
 -39 1202 -39 1202 -55 1232 c 0,0,1
150 61 m 2,25,-1
 150 1010 l 2,26,27
 150 1037 150 1037 167 1054 c 128,-1,28
 184 1071 184 1071 211 1071 c 2,29,-1
 434 1071 l 2,30,31
 461 1071 461 1071 478.5 1053.5 c 128,-1,32
 496 1036 496 1036 496 1010 c 2,33,-1
 496 61 l 2,34,35
 496 34 496 34 478.5 17 c 128,-1,36
 461 0 461 0 434 0 c 2,37,-1
 211 0 l 2,38,39
 184 0 184 0 167 17 c 128,-1,40
 150 34 150 34 150 61 c 2,25,-1
EndSplineSet
EndChar

StartChar: idieresis
Encoding: 239 239 176
Width: 664
Flags: W
LayerCount: 2
Fore
SplineSet
-82 1300 m 2,0,-1
 -82 1339 l 2,1,2
 -82 1393 -82 1393 -51 1423.5 c 128,-1,3
 -20 1454 -20 1454 33 1454 c 2,4,-1
 129 1454 l 2,5,6
 182 1454 182 1454 213 1423.5 c 128,-1,7
 244 1393 244 1393 244 1339 c 2,8,-1
 244 1300 l 2,9,10
 244 1247 244 1247 213 1216.5 c 128,-1,11
 182 1186 182 1186 129 1186 c 2,12,-1
 33 1186 l 2,13,14
 -20 1186 -20 1186 -51 1216.5 c 128,-1,15
 -82 1247 -82 1247 -82 1300 c 2,0,-1
158 61 m 2,16,-1
 158 1010 l 2,17,18
 158 1036 158 1036 175.5 1053.5 c 128,-1,19
 193 1071 193 1071 219 1071 c 2,20,-1
 442 1071 l 2,21,22
 469 1071 469 1071 486.5 1053.5 c 128,-1,23
 504 1036 504 1036 504 1010 c 2,24,-1
 504 61 l 2,25,26
 504 35 504 35 486.5 17.5 c 128,-1,27
 469 0 469 0 442 0 c 2,28,-1
 219 0 l 2,29,30
 193 0 193 0 175.5 17.5 c 128,-1,31
 158 35 158 35 158 61 c 2,16,-1
420 1300 m 2,32,-1
 420 1339 l 2,33,34
 420 1393 420 1393 450.5 1423.5 c 128,-1,35
 481 1454 481 1454 535 1454 c 2,36,-1
 631 1454 l 2,37,38
 684 1454 684 1454 714.5 1423.5 c 128,-1,39
 745 1393 745 1393 745 1339 c 2,40,-1
 745 1300 l 2,41,42
 745 1247 745 1247 714.5 1216.5 c 128,-1,43
 684 1186 684 1186 631 1186 c 2,44,-1
 535 1186 l 2,45,46
 481 1186 481 1186 450.5 1216.5 c 128,-1,47
 420 1247 420 1247 420 1300 c 2,32,-1
EndSplineSet
EndChar

StartChar: eth
Encoding: 240 240 177
Width: 1327
Flags: W
LayerCount: 2
Fore
SplineSet
215 106.5 m 128,-1,1
 61 233 61 233 61 467.5 c 128,-1,2
 61 702 61 702 207.5 831.5 c 128,-1,3
 354 961 354 961 582 961 c 0,4,5
 858 961 858 961 969 809 c 1,6,7
 944 1069 944 1069 709 1208 c 1,8,-1
 618 1063 l 2,9,10
 598 1031 598 1031 575.5 1031 c 128,-1,11
 553 1031 553 1031 532 1042 c 1,12,-1
 485 1073 l 2,13,14
 462 1087 462 1087 456.5 1112 c 128,-1,15
 451 1137 451 1137 465 1159 c 2,16,-1
 539 1280 l 1,17,18
 428 1311 428 1311 313 1319 c 0,19,20
 264 1323 264 1323 287 1374 c 1,21,-1
 301 1458 l 1,22,23
 308 1486 308 1486 344 1486 c 0,24,25
 351 1486 351 1486 358 1485 c 0,26,27
 512 1475 512 1475 641 1442 c 1,28,-1
 727 1581 l 2,29,30
 745 1610 745 1610 769.5 1610 c 128,-1,31
 794 1610 794 1610 811 1599 c 2,32,-1
 860 1569 l 2,33,34
 883 1555 883 1555 889 1530 c 128,-1,35
 895 1505 895 1505 881 1485 c 1,36,-1
 815 1378 l 1,37,38
 1034 1276 1034 1276 1150 1080.5 c 128,-1,39
 1266 885 1266 885 1266 614 c 2,40,-1
 1266 573 l 2,41,42
 1266 313 1266 313 1108 146.5 c 128,-1,43
 950 -20 950 -20 659.5 -20 c 128,-1,0
 369 -20 369 -20 215 106.5 c 128,-1,1
474.5 664.5 m 128,-1,45
 408 596 408 596 408 470 c 128,-1,46
 408 344 408 344 474.5 275.5 c 128,-1,47
 541 207 541 207 663.5 207 c 128,-1,48
 786 207 786 207 853 275.5 c 128,-1,49
 920 344 920 344 920 470 c 128,-1,50
 920 596 920 596 853 664.5 c 128,-1,51
 786 733 786 733 663.5 733 c 128,-1,44
 541 733 541 733 474.5 664.5 c 128,-1,45
EndSplineSet
EndChar

StartChar: ntilde
Encoding: 241 241 178
Width: 1397
Flags: W
LayerCount: 2
Fore
SplineSet
123 61 m 2,0,-1
 123 1034 l 2,1,2
 123 1061 123 1061 140.5 1078.5 c 128,-1,3
 158 1096 158 1096 184 1096 c 2,4,-1
 408 1096 l 2,5,6
 434 1096 434 1096 451.5 1078.5 c 128,-1,7
 469 1061 469 1061 469 1034 c 2,8,-1
 469 971 l 1,9,10
 641 1116 641 1116 835.5 1116 c 128,-1,11
 1030 1116 1030 1116 1152 997.5 c 128,-1,12
 1274 879 1274 879 1274 635 c 2,13,-1
 1274 61 l 2,14,15
 1274 35 1274 35 1256.5 17.5 c 128,-1,16
 1239 0 1239 0 1212 0 c 2,17,-1
 989 0 l 2,18,19
 963 0 963 0 945.5 17.5 c 128,-1,20
 928 35 928 35 928 61 c 2,21,-1
 928 635 l 2,22,23
 928 874 928 874 737 874 c 0,24,25
 612 874 612 874 469 731 c 1,26,-1
 469 61 l 2,27,28
 469 35 469 35 451.5 17.5 c 128,-1,29
 434 0 434 0 408 0 c 2,30,-1
 184 0 l 2,31,32
 158 0 158 0 140.5 17.5 c 128,-1,33
 123 35 123 35 123 61 c 2,0,-1
356 1249 m 0,34,35
 356 1380 356 1380 420.5 1448 c 128,-1,36
 485 1516 485 1516 558 1516 c 128,-1,37
 631 1516 631 1516 706.5 1475 c 128,-1,38
 782 1434 782 1434 818 1434 c 128,-1,39
 854 1434 854 1434 876.5 1469.5 c 128,-1,40
 899 1505 899 1505 928 1505 c 2,41,-1
 1010 1505 l 2,42,43
 1040 1505 1040 1505 1040 1475 c 0,44,45
 1040 1343 1040 1343 976.5 1275.5 c 128,-1,46
 913 1208 913 1208 839.5 1208 c 128,-1,47
 766 1208 766 1208 692 1249 c 128,-1,48
 618 1290 618 1290 581.5 1290 c 128,-1,49
 545 1290 545 1290 521.5 1254.5 c 128,-1,50
 498 1219 498 1219 469 1219 c 2,51,-1
 387 1219 l 2,52,53
 356 1219 356 1219 356 1249 c 0,34,35
EndSplineSet
EndChar

StartChar: ograve
Encoding: 242 242 179
Width: 1331
Flags: W
LayerCount: 2
Fore
SplineSet
61 548.5 m 128,-1,1
 61 829 61 829 217 972.5 c 128,-1,2
 373 1116 373 1116 665.5 1116 c 128,-1,3
 958 1116 958 1116 1114 972.5 c 128,-1,4
 1270 829 1270 829 1270 548.5 c 128,-1,5
 1270 268 1270 268 1114 124 c 128,-1,6
 958 -20 958 -20 665.5 -20 c 128,-1,7
 373 -20 373 -20 217 124 c 128,-1,0
 61 268 61 268 61 548.5 c 128,-1,1
408 549 m 128,-1,9
 408 371 408 371 470 289 c 128,-1,10
 532 207 532 207 665.5 207 c 128,-1,11
 799 207 799 207 861.5 289 c 128,-1,12
 924 371 924 371 924 549 c 128,-1,13
 924 727 924 727 861.5 808 c 128,-1,14
 799 889 799 889 665.5 889 c 128,-1,15
 532 889 532 889 470 808 c 128,-1,8
 408 727 408 727 408 549 c 128,-1,9
496 1616 m 2,16,-1
 586 1616 l 2,17,18
 678 1616 678 1616 717 1501 c 1,19,-1
 766 1313 l 2,20,21
 774 1284 774 1284 774 1263 c 0,22,23
 774 1198 774 1198 700 1198 c 2,24,-1
 653 1198 l 2,25,26
 585 1198 585 1198 530 1292 c 1,27,-1
 422 1481 l 1,28,29
 402 1513 402 1513 402 1536 c 0,30,31
 402 1616 402 1616 496 1616 c 2,16,-1
EndSplineSet
EndChar

StartChar: oacute
Encoding: 243 243 180
Width: 1331
Flags: W
LayerCount: 2
Fore
SplineSet
61 549 m 0,0,1
 61 1116 61 1116 665.5 1116 c 128,-1,2
 1270 1116 1270 1116 1270 549 c 0,3,4
 1270 268 1270 268 1115 124 c 128,-1,5
 960 -20 960 -20 665.5 -20 c 128,-1,6
 371 -20 371 -20 216 124 c 128,-1,7
 61 268 61 268 61 549 c 0,0,1
666 889 m 128,-1,9
 408 889 408 889 408 548 c 128,-1,10
 408 207 408 207 666 207 c 128,-1,11
 924 207 924 207 924 548 c 128,-1,8
 924 889 924 889 666 889 c 128,-1,9
588 1333 m 2,12,-1
 637 1522 l 1,13,14
 676 1637 676 1637 768 1636 c 1,15,-1
 858 1636 l 2,16,17
 924 1636 924 1636 944 1594 c 0,18,19
 952 1578 952 1578 952 1555.5 c 128,-1,20
 952 1533 952 1533 932 1501 c 1,21,-1
 823 1313 l 2,22,23
 768 1219 768 1219 700 1219 c 2,24,-1
 653 1219 l 2,25,26
 579 1219 579 1219 580 1283 c 0,27,28
 580 1304 580 1304 588 1333 c 2,12,-1
EndSplineSet
EndChar

StartChar: ocircumflex
Encoding: 244 244 181
Width: 1331
Flags: W
LayerCount: 2
Fore
SplineSet
61 548.5 m 128,-1,1
 61 829 61 829 217 972.5 c 128,-1,2
 373 1116 373 1116 665.5 1116 c 128,-1,3
 958 1116 958 1116 1114 972.5 c 128,-1,4
 1270 829 1270 829 1270 548.5 c 128,-1,5
 1270 268 1270 268 1114 124 c 128,-1,6
 958 -20 958 -20 665.5 -20 c 128,-1,7
 373 -20 373 -20 217 124 c 128,-1,0
 61 268 61 268 61 548.5 c 128,-1,1
297 1273 m 0,8,9
 291 1284 291 1284 291 1298.5 c 128,-1,10
 291 1313 291 1313 309 1331 c 1,11,-1
 465 1475 l 1,12,13
 557 1563 557 1563 612 1563 c 2,14,-1
 735 1563 l 2,15,16
 790 1563 790 1563 883 1475 c 1,17,-1
 1040 1331 l 1,18,19
 1070 1301 1070 1301 1053.5 1272 c 128,-1,20
 1037 1243 1037 1243 999 1243 c 2,21,-1
 854 1243 l 2,22,23
 797 1243 797 1243 709 1327 c 1,24,-1
 674 1358 l 1,25,-1
 641 1327 l 2,26,27
 553 1243 553 1243 496 1243 c 2,28,-1
 350 1243 l 2,29,30
 313 1243 313 1243 297 1273 c 0,8,9
408 549 m 128,-1,32
 408 371 408 371 470 289 c 128,-1,33
 532 207 532 207 665.5 207 c 128,-1,34
 799 207 799 207 861.5 289 c 128,-1,35
 924 371 924 371 924 549 c 128,-1,36
 924 727 924 727 861.5 808 c 128,-1,37
 799 889 799 889 665.5 889 c 128,-1,38
 532 889 532 889 470 808 c 128,-1,31
 408 727 408 727 408 549 c 128,-1,32
EndSplineSet
EndChar

StartChar: otilde
Encoding: 245 245 182
Width: 1331
Flags: W
LayerCount: 2
Fore
SplineSet
61 548.5 m 128,-1,1
 61 829 61 829 217 972.5 c 128,-1,2
 373 1116 373 1116 665.5 1116 c 128,-1,3
 958 1116 958 1116 1114 972.5 c 128,-1,4
 1270 829 1270 829 1270 548.5 c 128,-1,5
 1270 268 1270 268 1114 124 c 128,-1,6
 958 -20 958 -20 665.5 -20 c 128,-1,7
 373 -20 373 -20 217 124 c 128,-1,0
 61 268 61 268 61 548.5 c 128,-1,1
303 1249 m 0,8,9
 303 1380 303 1380 367.5 1448 c 128,-1,10
 432 1516 432 1516 504.5 1516 c 128,-1,11
 577 1516 577 1516 653 1475 c 128,-1,12
 729 1434 729 1434 765 1434 c 128,-1,13
 801 1434 801 1434 823.5 1469.5 c 128,-1,14
 846 1505 846 1505 874 1505 c 2,15,-1
 956 1505 l 2,16,17
 987 1505 987 1505 987 1475 c 0,18,19
 987 1344 987 1344 923.5 1276 c 128,-1,20
 860 1208 860 1208 786.5 1208 c 128,-1,21
 713 1208 713 1208 639 1249 c 128,-1,22
 565 1290 565 1290 528.5 1290 c 128,-1,23
 492 1290 492 1290 468 1254.5 c 128,-1,24
 444 1219 444 1219 416 1219 c 2,25,-1
 334 1219 l 1,26,27
 303 1218 303 1218 303 1249 c 0,8,9
408 549 m 128,-1,29
 408 371 408 371 470 289 c 128,-1,30
 532 207 532 207 665.5 207 c 128,-1,31
 799 207 799 207 861.5 289 c 128,-1,32
 924 371 924 371 924 549 c 128,-1,33
 924 727 924 727 861.5 808 c 128,-1,34
 799 889 799 889 665.5 889 c 128,-1,35
 532 889 532 889 470 808 c 128,-1,28
 408 727 408 727 408 549 c 128,-1,29
EndSplineSet
EndChar

StartChar: odieresis
Encoding: 246 246 183
Width: 1331
Flags: W
LayerCount: 2
Fore
SplineSet
61 549 m 0,0,1
 61 1116 61 1116 665.5 1116 c 128,-1,2
 1270 1116 1270 1116 1270 549 c 0,3,4
 1270 268 1270 268 1115 124 c 128,-1,5
 960 -20 960 -20 665.5 -20 c 128,-1,6
 371 -20 371 -20 216 124 c 128,-1,7
 61 268 61 268 61 549 c 0,0,1
268 1346 m 2,8,-1
 268 1384 l 2,9,10
 268 1499 268 1499 383 1499 c 2,11,-1
 479 1499 l 2,12,13
 594 1499 594 1499 594 1384 c 2,14,-1
 594 1346 l 2,15,16
 594 1231 594 1231 479 1231 c 2,17,-1
 383 1231 l 2,18,19
 268 1231 268 1231 268 1346 c 2,8,-1
666 889 m 128,-1,21
 408 889 408 889 408 548 c 128,-1,22
 408 207 408 207 666 207 c 128,-1,23
 924 207 924 207 924 548 c 128,-1,20
 924 889 924 889 666 889 c 128,-1,21
770 1346 m 2,24,-1
 770 1384 l 2,25,26
 770 1499 770 1499 885 1499 c 2,27,-1
 981 1499 l 2,28,29
 1096 1499 1096 1499 1096 1384 c 2,30,-1
 1096 1346 l 2,31,32
 1096 1231 1096 1231 981 1231 c 2,33,-1
 885 1231 l 2,34,35
 770 1231 770 1231 770 1346 c 2,24,-1
EndSplineSet
EndChar

StartChar: divide
Encoding: 247 247 184
Width: 1266
Flags: W
LayerCount: 2
Fore
SplineSet
41 569 m 2,0,-1
 41 688 l 2,1,2
 41 715 41 715 58.5 732.5 c 128,-1,3
 76 750 76 750 102 750 c 2,4,-1
 1163 750 l 2,5,6
 1190 750 1190 750 1207.5 732.5 c 128,-1,7
 1225 715 1225 715 1225 688 c 2,8,-1
 1225 569 l 2,9,10
 1225 543 1225 543 1207.5 525.5 c 128,-1,11
 1190 508 1190 508 1163 508 c 2,12,-1
 102 508 l 2,13,14
 76 508 76 508 58.5 525.5 c 128,-1,15
 41 543 41 543 41 569 c 2,0,-1
430 186 m 2,16,-1
 430 250 l 2,17,18
 430 315 430 315 465 350 c 128,-1,19
 500 385 500 385 565 385 c 2,20,-1
 688 385 l 2,21,22
 754 385 754 385 788.5 350 c 128,-1,23
 823 315 823 315 823 250 c 2,24,-1
 823 186 l 2,25,26
 823 123 823 123 788.5 87 c 128,-1,27
 754 51 754 51 688 51 c 2,28,-1
 565 51 l 2,29,30
 500 51 500 51 465 87 c 128,-1,31
 430 123 430 123 430 186 c 2,16,-1
823 1008 m 2,32,33
 823 872 823 872 688 872 c 2,34,-1
 565 872 l 2,35,36
 500 872 500 872 465 907 c 128,-1,37
 430 942 430 942 430 1008 c 2,38,-1
 430 1071 l 2,39,40
 430 1135 430 1135 465 1170.5 c 128,-1,41
 500 1206 500 1206 565 1206 c 2,42,-1
 688 1206 l 2,43,44
 754 1206 754 1206 788.5 1170.5 c 128,-1,45
 823 1135 823 1135 823 1071 c 2,46,-1
 823 1008 l 2,32,33
EndSplineSet
EndChar

StartChar: oslash
Encoding: 248 248 185
Width: 1356
Flags: W
LayerCount: 2
Fore
SplineSet
1235 1096 m 2,0,1
 1292 1096 1292 1096 1292 1049 c 0,2,3
 1292 1024 1292 1024 1270 1001 c 2,4,-1
 1182 907 l 1,5,6
 1282 770 1282 770 1282 549 c 0,7,8
 1282 268 1282 268 1126.5 124 c 128,-1,9
 971 -20 971 -20 678 -20 c 0,10,11
 524 -20 524 -20 381 57 c 1,12,13
 340 0 340 0 248 0 c 2,14,-1
 121 0 l 2,15,16
 74 0 74 0 66 33 c 1,17,18
 63 39 63 39 62 54.5 c 128,-1,19
 61 70 61 70 86 94 c 1,20,-1
 172 186 l 1,21,22
 74 324 74 324 74 549 c 0,23,24
 74 829 74 829 229.5 972.5 c 128,-1,25
 385 1116 385 1116 678 1116 c 0,26,27
 831 1116 831 1116 975 1038 c 1,28,29
 1016 1096 1016 1096 1108 1096 c 2,30,-1
 1235 1096 l 2,0,1
420 549 m 0,31,32
 420 510 420 510 424 457 c 1,33,-1
 805 862 l 1,34,35
 754 889 754 889 678 889 c 0,36,37
 545 889 545 889 482.5 808 c 128,-1,38
 420 727 420 727 420 549 c 0,31,32
551 231 m 1,39,40
 602 207 602 207 678 207 c 0,41,42
 811 207 811 207 873.5 289 c 128,-1,43
 936 371 936 371 936 549 c 0,44,45
 936 596 936 596 930 639 c 1,46,-1
 551 231 l 1,39,40
EndSplineSet
EndChar

StartChar: ugrave
Encoding: 249 249 186
Width: 1397
Flags: W
LayerCount: 2
Fore
SplineSet
123 461 m 2,0,-1
 123 1034 l 2,1,2
 123 1096 123 1096 184 1096 c 2,3,-1
 408 1096 l 2,4,5
 469 1096 469 1096 469 1034 c 2,6,-1
 469 461 l 2,7,8
 469 221 469 221 659 221 c 0,9,10
 784 221 784 221 928 365 c 1,11,-1
 928 1034 l 2,12,13
 928 1096 928 1096 989 1096 c 2,14,-1
 1212 1096 l 2,15,16
 1274 1096 1274 1096 1274 1034 c 2,17,-1
 1274 61 l 2,18,19
 1274 0 1274 0 1212 0 c 2,20,-1
 989 0 l 2,21,22
 928 0 928 0 928 61 c 2,23,-1
 928 125 l 1,24,25
 754 -20 754 -20 578 -20 c 0,26,27
 365 -20 365 -20 250 92 c 1,28,29
 123 219 123 219 123 461 c 2,0,-1
516 1616 m 2,30,-1
 606 1616 l 2,31,32
 698 1616 698 1616 737 1501 c 1,33,-1
 786 1313 l 1,34,35
 795 1284 795 1284 795 1264 c 0,36,37
 795 1198 795 1198 721 1198 c 2,38,-1
 674 1198 l 2,39,40
 606 1198 606 1198 551 1292 c 2,41,-1
 442 1481 l 1,42,43
 422 1513 422 1513 422 1536 c 0,44,45
 422 1616 422 1616 516 1616 c 2,30,-1
EndSplineSet
EndChar

StartChar: uacute
Encoding: 250 250 187
Width: 1397
Flags: W
LayerCount: 2
Fore
SplineSet
123 461 m 2,0,-1
 123 1034 l 2,1,2
 123 1096 123 1096 184 1096 c 2,3,-1
 408 1096 l 2,4,5
 469 1096 469 1096 469 1034 c 2,6,-1
 469 461 l 2,7,8
 469 221 469 221 659 221 c 0,9,10
 784 221 784 221 928 365 c 1,11,-1
 928 1034 l 2,12,13
 928 1096 928 1096 989 1096 c 2,14,-1
 1212 1096 l 2,15,16
 1274 1096 1274 1096 1274 1034 c 2,17,-1
 1274 61 l 2,18,19
 1274 0 1274 0 1212 0 c 2,20,-1
 989 0 l 2,21,22
 928 0 928 0 928 61 c 2,23,-1
 928 125 l 1,24,25
 754 -20 754 -20 578 -20 c 0,26,27
 365 -20 365 -20 250 92 c 1,28,29
 123 219 123 219 123 461 c 2,0,-1
608 1313 m 2,30,-1
 657 1501 l 1,31,32
 696 1616 696 1616 788 1616 c 2,33,-1
 879 1616 l 2,34,35
 944 1616 944 1616 965 1575 c 0,36,37
 973 1559 973 1559 973 1535 c 128,-1,38
 973 1511 973 1511 952 1481 c 1,39,-1
 844 1292 l 1,40,41
 788 1198 788 1198 721 1198 c 2,42,-1
 674 1198 l 2,43,44
 600 1198 600 1198 600 1264 c 0,45,46
 600 1284 600 1284 608 1313 c 2,30,-1
EndSplineSet
EndChar

StartChar: ucircumflex
Encoding: 251 251 188
Width: 1397
Flags: W
LayerCount: 2
Fore
SplineSet
123 461 m 2,0,-1
 123 1034 l 2,1,2
 123 1061 123 1061 140.5 1078.5 c 128,-1,3
 158 1096 158 1096 184 1096 c 2,4,-1
 408 1096 l 2,5,6
 434 1096 434 1096 451.5 1078.5 c 128,-1,7
 469 1061 469 1061 469 1034 c 2,8,-1
 469 461 l 2,9,10
 469 221 469 221 659 221 c 0,11,12
 784 221 784 221 928 365 c 1,13,-1
 928 1034 l 2,14,15
 928 1061 928 1061 945.5 1078.5 c 128,-1,16
 963 1096 963 1096 989 1096 c 2,17,-1
 1212 1096 l 2,18,19
 1239 1096 1239 1096 1256.5 1078.5 c 128,-1,20
 1274 1061 1274 1061 1274 1034 c 2,21,-1
 1274 61 l 2,22,23
 1274 35 1274 35 1256.5 17.5 c 128,-1,24
 1239 0 1239 0 1212 0 c 2,25,-1
 989 0 l 2,26,27
 963 0 963 0 945.5 17.5 c 128,-1,28
 928 35 928 35 928 61 c 2,29,-1
 928 125 l 1,30,31
 756 -20 756 -20 561.5 -20 c 128,-1,32
 367 -20 367 -20 245 98.5 c 128,-1,33
 123 217 123 217 123 461 c 2,0,-1
319 1274 m 0,34,35
 313 1284 313 1284 313 1298.5 c 128,-1,36
 313 1313 313 1313 332 1331 c 2,37,-1
 487 1475 l 1,38,39
 580 1563 580 1563 635 1563 c 2,40,-1
 758 1563 l 2,41,42
 813 1563 813 1563 905 1475 c 1,43,-1
 1063 1331 l 1,44,45
 1081 1313 1081 1313 1081 1297.5 c 128,-1,46
 1081 1282 1081 1282 1075 1274 c 1,47,48
 1059 1243 1059 1243 1022 1243 c 2,49,-1
 877 1243 l 2,50,51
 819 1243 819 1243 731 1327 c 1,52,-1
 696 1358 l 1,53,-1
 664 1327 l 1,54,55
 575 1243 575 1243 518 1243 c 2,56,-1
 373 1243 l 2,57,58
 336 1243 336 1243 319 1274 c 0,34,35
EndSplineSet
EndChar

